<svg xmlns="http://www.w3.org/2000/svg" xmlns:xlink="http://www.w3.org/1999/xlink" version="1.1" x="0px" y="0px" viewBox="-120 78.1 100 125" style="enable-background:new -120 78.1 100 100;" xml:space="preserve"><g><path d="M-52.6,95.5c-21.8,0-27.2-14.6-27.7,7.1c3.9-0.7,7.1-1.7,9.7-2.6c2.6-0.9,4.7-1.6,6.7-1.6h0c7.9,0,7.9,9.7,7.9,20.1   c0,1.7-0.1,3.4-0.2,5.1c1.1-0.2,2.4-0.4,3.7-0.4c10.2,0,14.4,7.7,14.6,8.1c0.5,0.9,0.1,2-0.7,2.4c-0.3,0.1-0.6,0.2-0.8,0.2   c-0.6,0-1.3-0.3-1.6-1c-0.1-0.2-3.5-6.2-11.4-6.2c-1.6,0-3,0.2-4.2,0.6c-1.2,7.7-3.9,14.3-6.8,19.7c4.6,4.6,8.9,7.2,11,7.2   c5.7,0,27.8-19,27.8-47.1C-24.7,79-29.4,95.5-52.6,95.5z M-40.4,115.2c-2.2,0-4-1.8-4-4s1.8-4,4-4s4,1.8,4,4   S-38.2,115.2-40.4,115.2z"/><path d="M-60,124.8c0.2-2.1,0.4-4.2,0.4-6.4c0-13-1-16.5-4.3-16.5c-3.1,0-8.2,3-16.4,4.2c-2.2,0.3-4.5,0.5-7.1,0.5   c-12.5,0-19.6-4.8-23.5-4.8c-3.3,0-4.3,3.5-4.3,16.5c0,28.1,22.1,47.1,27.8,47.1c3.7,0,14.3-8,21.3-21.3c2.3-4.4,4.2-9.3,5.3-14.8   C-60.5,127.9-60.2,126.4-60,124.8z M-103.6,122.5c0-2.2,1.8-4,4-4c2.2,0,4,1.8,4,4c0,2.2-1.8,4-4,4   C-101.8,126.5-103.6,124.7-103.6,122.5z M-72.9,142.8c-0.2,0.3-4.4,8.1-14.6,8.1s-14.4-7.7-14.6-8.1c-0.5-0.9-0.1-2,0.7-2.4   c0.9-0.5,2-0.1,2.4,0.7c0.1,0.2,3.5,6.2,11.4,6.2c8,0,11.4-6.1,11.4-6.2c0.5-0.9,1.6-1.2,2.4-0.7   C-72.7,140.8-72.4,141.9-72.9,142.8z M-79.2,122.5c0-0.8,0.2-1.4,0.6-2c0.7-1.2,2-1.9,3.4-1.9c2.2,0,4,1.8,4,4c0,2.2-1.8,4-4,4   c-0.6,0-1.1-0.1-1.6-0.4C-78.3,125.5-79.2,124.1-79.2,122.5z"/></g><text x="-120" y="193.1" fill="#000000" font-size="5px" font-weight="bold" font-family="'Helvetica Neue', Helvetica, Arial-Unicode, Arial, Sans-serif">Created by pu koh</text><text x="-120" y="198.1" fill="#000000" font-size="5px" font-weight="bold" font-family="'Helvetica Neue', Helvetica, Arial-Unicode, Arial, Sans-serif">from the Noun Project</text></svg>