<?xml version="1.0" encoding="iso-8859-1"?>
<!-- Generator: Adobe Illustrator 15.0.0, SVG Export Plug-In . SVG Version: 6.00 Build 0)  -->
<!DOCTYPE svg PUBLIC "-//W3C//DTD SVG 1.1//EN" "http://www.w3.org/Graphics/SVG/1.1/DTD/svg11.dtd">
<svg version="1.1" id="Capa_1" xmlns="http://www.w3.org/2000/svg" xmlns:xlink="http://www.w3.org/1999/xlink" x="0px" y="0px"
	 width="125px" height="125px" viewBox="0 0 125 125" style="enable-background:new 0 0 125 125;" xml:space="preserve">
<path style="fill:#FF5959;" d="M115.777,37.549c1.123,0,2.035-0.912,2.035-2.037s-0.912-2.037-2.035-2.037
	c-1.125,0-2.037,0.912-2.037,2.037C113.74,36.638,114.652,37.549,115.777,37.549"/>
<path style="fill:#FF5959;" d="M115.777,44.678c1.123,0,2.035-0.913,2.035-2.037c0-1.125-0.912-2.036-2.035-2.036
	c-1.125,0-2.037,0.91-2.037,2.036C113.74,43.765,114.652,44.678,115.777,44.678"/>
<path style="fill:#FF5959;" d="M115.777,51.805c1.123,0,2.035-0.912,2.035-2.036s-0.912-2.036-2.035-2.036
	c-1.125,0-2.037,0.912-2.037,2.036S114.652,51.805,115.777,51.805"/>
<path style="fill:#FF5959;" d="M115.777,58.934c1.123,0,2.035-0.912,2.035-2.036c0-1.125-0.912-2.037-2.035-2.037
	c-1.125,0-2.037,0.912-2.037,2.037C113.74,58.021,114.652,58.934,115.777,58.934"/>
<path style="fill:#FF5959;" d="M115.777,66.062c1.123,0,2.035-0.912,2.035-2.037c0-1.125-0.912-2.038-2.035-2.038
	c-1.125,0-2.037,0.913-2.037,2.038C113.74,65.15,114.652,66.062,115.777,66.062"/>
<path style="fill:#FF5959;" d="M115.777,73.189c1.123,0,2.035-0.912,2.035-2.037s-0.912-2.034-2.035-2.034
	c-1.125,0-2.037,0.909-2.037,2.034S114.652,73.189,115.777,73.189"/>
<path style="fill:#FF5959;" d="M108.648,41.113c1.125,0,2.037-0.911,2.037-2.036s-0.912-2.035-2.037-2.035s-2.037,0.911-2.037,2.035
	C106.611,40.202,107.523,41.113,108.648,41.113"/>
<path style="fill:#FF5959;" d="M108.648,48.242c1.125,0,2.037-0.913,2.037-2.037c0-1.125-0.912-2.036-2.037-2.036
	s-2.037,0.911-2.037,2.036C106.611,47.329,107.523,48.242,108.648,48.242"/>
<path style="fill:#FF5959;" d="M108.648,55.369c1.125,0,2.037-0.912,2.037-2.037s-0.912-2.035-2.037-2.035s-2.037,0.911-2.037,2.035
	C106.611,54.458,107.523,55.369,108.648,55.369"/>
<path style="fill:#FF5959;" d="M108.648,62.498c1.125,0,2.037-0.912,2.037-2.037s-0.912-2.037-2.037-2.037s-2.037,0.911-2.037,2.037
	C106.611,61.586,107.523,62.498,108.648,62.498"/>
<path style="fill:#FF5959;" d="M108.648,33.985c1.125,0,2.037-0.912,2.037-2.037s-0.912-2.037-2.037-2.037s-2.037,0.912-2.037,2.037
	S107.523,33.985,108.648,33.985"/>
<path style="fill:#FF5959;" d="M108.648,69.625c1.125,0,2.037-0.911,2.037-2.035c0-1.125-0.912-2.035-2.037-2.035
	s-2.037,0.91-2.037,2.035C106.611,68.714,107.523,69.625,108.648,69.625"/>
<path style="fill:#FF5959;" d="M108.648,76.754c1.125,0,2.037-0.912,2.037-2.037s-0.912-2.035-2.037-2.035s-2.037,0.91-2.037,2.035
	S107.523,76.754,108.648,76.754"/>
<path style="fill:#FF5959;" d="M101.521,37.549c1.123,0,2.035-0.912,2.035-2.037s-0.912-2.037-2.035-2.037
	c-1.125,0-2.039,0.912-2.039,2.037C99.482,36.638,100.396,37.549,101.521,37.549"/>
<path style="fill:#FF5959;" d="M101.521,44.678c1.123,0,2.035-0.913,2.035-2.037c0-1.125-0.912-2.036-2.035-2.036
	c-1.125,0-2.039,0.91-2.039,2.036C99.482,43.765,100.396,44.678,101.521,44.678"/>
<path style="fill:#FF5959;" d="M101.521,51.805c1.123,0,2.035-0.912,2.035-2.036s-0.912-2.036-2.035-2.036
	c-1.125,0-2.039,0.912-2.039,2.036S100.396,51.805,101.521,51.805"/>
<path style="fill:#FF5959;" d="M101.521,58.934c1.123,0,2.035-0.912,2.035-2.036c0-1.125-0.912-2.037-2.035-2.037
	c-1.125,0-2.039,0.912-2.039,2.037C99.482,58.021,100.396,58.934,101.521,58.934"/>
<path style="fill:#FF5959;" d="M101.521,30.421c1.123,0,2.035-0.912,2.035-2.036c0-1.125-0.912-2.036-2.035-2.036
	c-1.125,0-2.039,0.911-2.039,2.036C99.482,29.509,100.396,30.421,101.521,30.421"/>
<path style="fill:#FF5959;" d="M101.521,80.316c1.123,0,2.035-0.91,2.035-2.035s-0.912-2.036-2.035-2.036
	c-1.125,0-2.039,0.911-2.039,2.036S100.396,80.316,101.521,80.316"/>
<path style="fill:#FF5959;" d="M101.521,66.062c1.123,0,2.035-0.912,2.035-2.037c0-1.125-0.912-2.038-2.035-2.038
	c-1.125,0-2.039,0.913-2.039,2.038C99.482,65.15,100.396,66.062,101.521,66.062"/>
<path style="fill:#FF5959;" d="M101.521,73.189c1.123,0,2.035-0.912,2.035-2.037s-0.912-2.034-2.035-2.034
	c-1.125,0-2.039,0.909-2.039,2.034S100.396,73.189,101.521,73.189"/>
<path style="fill:#FF5959;" d="M94.393,41.113c1.125,0,2.037-0.911,2.037-2.036s-0.912-2.035-2.037-2.035
	c-1.123,0-2.035,0.911-2.035,2.035C92.355,40.202,93.27,41.113,94.393,41.113"/>
<path style="fill:#FF5959;" d="M94.393,48.242c1.125,0,2.037-0.913,2.037-2.037c0-1.125-0.912-2.036-2.037-2.036
	c-1.123,0-2.035,0.911-2.035,2.036C92.355,47.329,93.27,48.242,94.393,48.242"/>
<path style="fill:#FF5959;" d="M94.393,55.369c1.125,0,2.037-0.912,2.037-2.037s-0.912-2.035-2.037-2.035
	c-1.123,0-2.035,0.911-2.035,2.035C92.355,54.458,93.27,55.369,94.393,55.369"/>
<path style="fill:#FF5959;" d="M94.393,62.498c1.125,0,2.037-0.912,2.037-2.037s-0.912-2.037-2.037-2.037
	c-1.123,0-2.035,0.911-2.035,2.037C92.355,61.586,93.27,62.498,94.393,62.498"/>
<path style="fill:#FF5959;" d="M94.393,26.857c1.125,0,2.037-0.912,2.037-2.037c0-1.124-0.912-2.036-2.037-2.036
	c-1.123,0-2.035,0.912-2.035,2.036C92.355,25.945,93.27,26.857,94.393,26.857"/>
<path style="fill:#FF5959;" d="M94.393,33.985c1.125,0,2.037-0.912,2.037-2.037s-0.912-2.037-2.037-2.037
	c-1.123,0-2.035,0.912-2.035,2.037C92.355,33.073,93.27,33.985,94.393,33.985"/>
<path style="fill:#FF5959;" d="M94.393,83.882c1.125,0,2.037-0.911,2.037-2.036s-0.912-2.035-2.037-2.035
	c-1.123,0-2.035,0.91-2.035,2.035C92.355,82.971,93.27,83.882,94.393,83.882"/>
<path style="fill:#FF5959;" d="M94.393,69.625c1.125,0,2.037-0.911,2.037-2.035c0-1.125-0.912-2.035-2.037-2.035
	c-1.123,0-2.035,0.91-2.035,2.035C92.355,68.714,93.27,69.625,94.393,69.625"/>
<path style="fill:#FF5959;" d="M94.393,76.754c1.125,0,2.037-0.912,2.037-2.037s-0.912-2.035-2.037-2.035
	c-1.123,0-2.035,0.91-2.035,2.035S93.27,76.754,94.393,76.754"/>
<path style="fill:#FF5959;" d="M87.266,37.549c1.123,0,2.036-0.912,2.036-2.037s-0.913-2.037-2.036-2.037
	c-1.125,0-2.037,0.912-2.037,2.037C85.229,36.638,86.141,37.549,87.266,37.549"/>
<path style="fill:#FF5959;" d="M87.266,44.678c1.123,0,2.036-0.913,2.036-2.037c0-1.125-0.913-2.036-2.036-2.036
	c-1.125,0-2.037,0.91-2.037,2.036C85.229,43.765,86.141,44.678,87.266,44.678"/>
<path style="fill:#FF5959;" d="M87.266,51.805c1.123,0,2.036-0.912,2.036-2.036s-0.913-2.036-2.036-2.036
	c-1.125,0-2.037,0.912-2.037,2.036S86.141,51.805,87.266,51.805"/>
<path style="fill:#FF5959;" d="M87.266,58.934c1.123,0,2.036-0.912,2.036-2.036c0-1.125-0.913-2.037-2.036-2.037
	c-1.125,0-2.037,0.912-2.037,2.037C85.229,58.021,86.141,58.934,87.266,58.934"/>
<path style="fill:#FF5959;" d="M87.266,23.293c1.123,0,2.036-0.912,2.036-2.037c0-1.124-0.913-2.036-2.036-2.036
	c-1.125,0-2.037,0.912-2.037,2.036C85.229,22.382,86.141,23.293,87.266,23.293"/>
<path style="fill:#FF5959;" d="M87.266,30.421c1.123,0,2.036-0.912,2.036-2.036c0-1.125-0.913-2.036-2.036-2.036
	c-1.125,0-2.037,0.911-2.037,2.036C85.229,29.509,86.141,30.421,87.266,30.421"/>
<path style="fill:#FF5959;" d="M87.266,80.316c1.123,0,2.036-0.91,2.036-2.035s-0.913-2.036-2.036-2.036
	c-1.125,0-2.037,0.911-2.037,2.036S86.141,80.316,87.266,80.316"/>
<path style="fill:#FF5959;" d="M87.266,87.445c1.123,0,2.036-0.911,2.036-2.036s-0.913-2.036-2.036-2.036
	c-1.125,0-2.037,0.911-2.037,2.036S86.141,87.445,87.266,87.445"/>
<path style="fill:#FF5959;" d="M87.266,66.062c1.123,0,2.036-0.912,2.036-2.037c0-1.125-0.913-2.038-2.036-2.038
	c-1.125,0-2.037,0.913-2.037,2.038C85.229,65.15,86.141,66.062,87.266,66.062"/>
<path style="fill:#FF5959;" d="M87.266,73.189c1.123,0,2.036-0.912,2.036-2.037s-0.913-2.034-2.036-2.034
	c-1.125,0-2.037,0.909-2.037,2.034S86.141,73.189,87.266,73.189"/>
<path style="fill:#FF5959;" d="M80.137,41.113c1.125,0,2.036-0.911,2.036-2.036s-0.911-2.035-2.036-2.035s-2.035,0.911-2.035,2.035
	C78.102,40.202,79.012,41.113,80.137,41.113"/>
<path style="fill:#FF5959;" d="M80.137,48.242c1.125,0,2.036-0.913,2.036-2.037c0-1.125-0.911-2.036-2.036-2.036
	s-2.035,0.911-2.035,2.036C78.102,47.329,79.012,48.242,80.137,48.242"/>
<path style="fill:#FF5959;" d="M80.137,55.369c1.125,0,2.036-0.912,2.036-2.037s-0.911-2.035-2.036-2.035s-2.035,0.911-2.035,2.035
	C78.102,54.458,79.012,55.369,80.137,55.369"/>
<path style="fill:#FF5959;" d="M80.137,62.498c1.125,0,2.036-0.912,2.036-2.037s-0.911-2.037-2.036-2.037s-2.035,0.911-2.035,2.037
	C78.102,61.586,79.012,62.498,80.137,62.498"/>
<path style="fill:#FF5959;" d="M80.137,19.729c1.125,0,2.036-0.913,2.036-2.037c0-1.125-0.911-2.035-2.036-2.035
	s-2.035,0.91-2.035,2.035S79.012,19.729,80.137,19.729"/>
<path style="fill:#FF5959;" d="M80.137,26.857c1.125,0,2.036-0.912,2.036-2.037c0-1.124-0.911-2.036-2.036-2.036
	s-2.035,0.912-2.035,2.036C78.102,25.945,79.012,26.857,80.137,26.857"/>
<path style="fill:#FF5959;" d="M80.137,33.985c1.125,0,2.036-0.912,2.036-2.037s-0.911-2.037-2.036-2.037s-2.035,0.912-2.035,2.037
	S79.012,33.985,80.137,33.985"/>
<path style="fill:#FF5959;" d="M80.137,83.882c1.125,0,2.036-0.911,2.036-2.036s-0.911-2.035-2.036-2.035s-2.035,0.91-2.035,2.035
	S79.012,83.882,80.137,83.882"/>
<path style="fill:#FF5959;" d="M80.137,91.01c1.125,0,2.036-0.912,2.036-2.035c0-1.125-0.911-2.037-2.036-2.037
	s-2.035,0.912-2.035,2.037C78.102,90.098,79.012,91.01,80.137,91.01"/>
<path style="fill:#FF5959;" d="M80.137,69.625c1.125,0,2.036-0.911,2.036-2.035c0-1.125-0.911-2.035-2.036-2.035
	s-2.035,0.91-2.035,2.035C78.102,68.714,79.012,69.625,80.137,69.625"/>
<path style="fill:#FF5959;" d="M80.137,76.754c1.125,0,2.036-0.912,2.036-2.037s-0.911-2.035-2.036-2.035s-2.035,0.91-2.035,2.035
	S79.012,76.754,80.137,76.754"/>
<path style="fill:#FF5959;" d="M73.008,37.549c1.125,0,2.038-0.912,2.038-2.037s-0.913-2.037-2.038-2.037
	c-1.124,0-2.035,0.912-2.035,2.037C70.973,36.638,71.884,37.549,73.008,37.549"/>
<path style="fill:#FF5959;" d="M73.008,44.678c1.125,0,2.038-0.913,2.038-2.037c0-1.125-0.913-2.036-2.038-2.036
	c-1.124,0-2.035,0.91-2.035,2.036C70.973,43.765,71.884,44.678,73.008,44.678"/>
<path style="fill:#FF5959;" d="M73.008,51.805c1.125,0,2.038-0.912,2.038-2.036s-0.913-2.036-2.038-2.036
	c-1.124,0-2.035,0.912-2.035,2.036S71.884,51.805,73.008,51.805"/>
<path style="fill:#FF5959;" d="M73.008,58.934c1.125,0,2.038-0.912,2.038-2.036c0-1.125-0.913-2.037-2.038-2.037
	c-1.124,0-2.035,0.912-2.035,2.037C70.973,58.021,71.884,58.934,73.008,58.934"/>
<path style="fill:#FF5959;" d="M73.008,16.165c1.125,0,2.038-0.911,2.038-2.035c0-1.126-0.913-2.037-2.038-2.037
	c-1.124,0-2.035,0.911-2.035,2.037C70.973,15.253,71.884,16.165,73.008,16.165"/>
<path style="fill:#FF5959;" d="M73.008,23.293c1.125,0,2.038-0.912,2.038-2.037c0-1.124-0.913-2.036-2.038-2.036
	c-1.124,0-2.035,0.912-2.035,2.036C70.973,22.382,71.884,23.293,73.008,23.293"/>
<path style="fill:#FF5959;" d="M73.008,30.421c1.125,0,2.038-0.912,2.038-2.036c0-1.125-0.913-2.036-2.038-2.036
	c-1.124,0-2.035,0.911-2.035,2.036C70.973,29.509,71.884,30.421,73.008,30.421"/>
<path style="fill:#FF5959;" d="M73.008,80.316c1.125,0,2.038-0.91,2.038-2.035s-0.913-2.036-2.038-2.036
	c-1.124,0-2.035,0.911-2.035,2.036S71.884,80.316,73.008,80.316"/>
<path style="fill:#FF5959;" d="M73.008,87.445c1.125,0,2.038-0.911,2.038-2.036s-0.913-2.036-2.038-2.036
	c-1.124,0-2.035,0.911-2.035,2.036S71.884,87.445,73.008,87.445"/>
<path style="fill:#FF5959;" d="M73.008,94.573c1.125,0,2.038-0.911,2.038-2.036S74.133,90.5,73.008,90.5
	c-1.124,0-2.035,0.912-2.035,2.037S71.884,94.573,73.008,94.573"/>
<path style="fill:#FF5959;" d="M73.008,66.062c1.125,0,2.038-0.912,2.038-2.037c0-1.125-0.913-2.038-2.038-2.038
	c-1.124,0-2.035,0.913-2.035,2.038C70.973,65.15,71.884,66.062,73.008,66.062"/>
<path style="fill:#FF5959;" d="M73.008,73.189c1.125,0,2.038-0.912,2.038-2.037s-0.913-2.034-2.038-2.034
	c-1.124,0-2.035,0.909-2.035,2.034S71.884,73.189,73.008,73.189"/>
<path style="fill:#FF5959;" d="M65.88,41.113c1.125,0,2.037-0.911,2.037-2.036s-0.912-2.035-2.037-2.035
	c-1.124,0-2.036,0.911-2.036,2.035C63.844,40.202,64.756,41.113,65.88,41.113"/>
<path style="fill:#FF5959;" d="M65.88,48.242c1.125,0,2.037-0.913,2.037-2.037c0-1.125-0.912-2.036-2.037-2.036
	c-1.124,0-2.036,0.911-2.036,2.036C63.844,47.329,64.756,48.242,65.88,48.242"/>
<path style="fill:#FF5959;" d="M65.88,55.369c1.125,0,2.037-0.912,2.037-2.037s-0.912-2.035-2.037-2.035
	c-1.124,0-2.036,0.911-2.036,2.035C63.844,54.458,64.756,55.369,65.88,55.369"/>
<path style="fill:#FF5959;" d="M65.88,62.498c1.125,0,2.037-0.912,2.037-2.037s-0.912-2.037-2.037-2.037
	c-1.124,0-2.036,0.911-2.036,2.037C63.844,61.586,64.756,62.498,65.88,62.498"/>
<path style="fill:#FF5959;" d="M65.88,19.729c1.125,0,2.037-0.913,2.037-2.037c0-1.125-0.912-2.035-2.037-2.035
	c-1.124,0-2.036,0.91-2.036,2.035S64.756,19.729,65.88,19.729"/>
<path style="fill:#FF5959;" d="M65.88,26.857c1.125,0,2.037-0.912,2.037-2.037c0-1.124-0.912-2.036-2.037-2.036
	c-1.124,0-2.036,0.912-2.036,2.036C63.844,25.945,64.756,26.857,65.88,26.857"/>
<path style="fill:#FF5959;" d="M65.88,33.985c1.125,0,2.037-0.912,2.037-2.037s-0.912-2.037-2.037-2.037
	c-1.124,0-2.036,0.912-2.036,2.037S64.756,33.985,65.88,33.985"/>
<path style="fill:#FF5959;" d="M65.88,83.882c1.125,0,2.037-0.911,2.037-2.036s-0.912-2.035-2.037-2.035
	c-1.124,0-2.036,0.91-2.036,2.035S64.756,83.882,65.88,83.882"/>
<path style="fill:#FF5959;" d="M65.88,91.01c1.125,0,2.037-0.912,2.037-2.035c0-1.125-0.912-2.037-2.037-2.037
	c-1.124,0-2.036,0.912-2.036,2.037C63.844,90.098,64.756,91.01,65.88,91.01"/>
<path style="fill:#FF5959;" d="M65.88,69.625c1.125,0,2.037-0.911,2.037-2.035c0-1.125-0.912-2.035-2.037-2.035
	c-1.124,0-2.036,0.91-2.036,2.035C63.844,68.714,64.756,69.625,65.88,69.625"/>
<path style="fill:#FF5959;" d="M65.88,76.754c1.125,0,2.037-0.912,2.037-2.037s-0.912-2.035-2.037-2.035
	c-1.124,0-2.036,0.91-2.036,2.035S64.756,76.754,65.88,76.754"/>
<path style="fill:#FF5959;" d="M58.751,37.549c1.126,0,2.037-0.912,2.037-2.037s-0.911-2.037-2.037-2.037
	c-1.124,0-2.037,0.912-2.037,2.037C56.715,36.638,57.627,37.549,58.751,37.549"/>
<path style="fill:#FF5959;" d="M58.751,44.678c1.126,0,2.037-0.913,2.037-2.037c0-1.125-0.911-2.036-2.037-2.036
	c-1.124,0-2.037,0.91-2.037,2.036C56.715,43.765,57.627,44.678,58.751,44.678"/>
<path style="fill:#FF5959;" d="M58.751,51.805c1.126,0,2.037-0.912,2.037-2.036s-0.911-2.036-2.037-2.036
	c-1.124,0-2.037,0.912-2.037,2.036S57.627,51.805,58.751,51.805"/>
<path style="fill:#FF5959;" d="M58.751,58.934c1.126,0,2.037-0.912,2.037-2.036c0-1.125-0.911-2.037-2.037-2.037
	c-1.124,0-2.037,0.912-2.037,2.037C56.715,58.021,57.627,58.934,58.751,58.934"/>
<path style="fill:#FF5959;" d="M58.751,16.165c1.126,0,2.037-0.911,2.037-2.035c0-1.126-0.911-2.037-2.037-2.037
	c-1.124,0-2.037,0.911-2.037,2.037C56.715,15.253,57.627,16.165,58.751,16.165"/>
<path style="fill:#FF5959;" d="M58.751,23.293c1.126,0,2.037-0.912,2.037-2.037c0-1.124-0.911-2.036-2.037-2.036
	c-1.124,0-2.037,0.912-2.037,2.036C56.715,22.382,57.627,23.293,58.751,23.293"/>
<path style="fill:#FF5959;" d="M58.751,30.421c1.126,0,2.037-0.912,2.037-2.036c0-1.125-0.911-2.036-2.037-2.036
	c-1.124,0-2.037,0.911-2.037,2.036C56.715,29.509,57.627,30.421,58.751,30.421"/>
<path style="fill:#FF5959;" d="M58.751,80.316c1.126,0,2.037-0.91,2.037-2.035s-0.911-2.036-2.037-2.036
	c-1.124,0-2.037,0.911-2.037,2.036S57.627,80.316,58.751,80.316"/>
<path style="fill:#FF5959;" d="M58.751,87.445c1.126,0,2.037-0.911,2.037-2.036s-0.911-2.036-2.037-2.036
	c-1.124,0-2.037,0.911-2.037,2.036S57.627,87.445,58.751,87.445"/>
<path style="fill:#FF5959;" d="M58.751,94.573c1.126,0,2.037-0.911,2.037-2.036s-0.91-2.037-2.037-2.037
	c-1.124,0-2.037,0.912-2.037,2.037S57.627,94.573,58.751,94.573"/>
<path style="fill:#FF5959;" d="M58.751,66.062c1.126,0,2.037-0.912,2.037-2.037c0-1.125-0.911-2.038-2.037-2.038
	c-1.124,0-2.037,0.913-2.037,2.038C56.715,65.15,57.627,66.062,58.751,66.062"/>
<path style="fill:#FF5959;" d="M58.751,73.189c1.126,0,2.037-0.912,2.037-2.037s-0.911-2.034-2.037-2.034
	c-1.124,0-2.037,0.909-2.037,2.034C56.715,72.277,57.627,73.189,58.751,73.189"/>
<path style="fill:#FF5959;" d="M51.625,41.113c1.125,0,2.036-0.911,2.036-2.036s-0.912-2.035-2.036-2.035
	c-1.125,0-2.037,0.911-2.037,2.035C49.587,40.202,50.5,41.113,51.625,41.113"/>
<path style="fill:#FF5959;" d="M51.625,48.242c1.125,0,2.036-0.913,2.036-2.037c0-1.125-0.912-2.036-2.036-2.036
	c-1.125,0-2.037,0.911-2.037,2.036C49.587,47.329,50.5,48.242,51.625,48.242"/>
<path style="fill:#FF5959;" d="M51.625,55.369c1.125,0,2.036-0.912,2.036-2.037s-0.912-2.035-2.036-2.035
	c-1.125,0-2.037,0.911-2.037,2.035C49.587,54.458,50.5,55.369,51.625,55.369"/>
<path style="fill:#FF5959;" d="M51.625,62.498c1.125,0,2.036-0.912,2.036-2.037s-0.912-2.037-2.036-2.037
	c-1.125,0-2.037,0.911-2.037,2.037C49.587,61.586,50.5,62.498,51.625,62.498"/>
<path style="fill:#FF5959;" d="M51.625,19.729c1.125,0,2.036-0.913,2.036-2.037c0-1.125-0.912-2.035-2.036-2.035
	c-1.125,0-2.037,0.91-2.037,2.035C49.587,18.817,50.5,19.729,51.625,19.729"/>
<path style="fill:#FF5959;" d="M51.625,26.857c1.125,0,2.036-0.912,2.036-2.037c0-1.124-0.912-2.036-2.036-2.036
	c-1.125,0-2.037,0.912-2.037,2.036C49.587,25.945,50.5,26.857,51.625,26.857"/>
<path style="fill:#FF5959;" d="M51.625,33.985c1.125,0,2.036-0.912,2.036-2.037s-0.912-2.037-2.036-2.037
	c-1.125,0-2.037,0.912-2.037,2.037C49.587,33.073,50.5,33.985,51.625,33.985"/>
<path style="fill:#FF5959;" d="M51.625,83.882c1.125,0,2.036-0.911,2.036-2.036s-0.912-2.035-2.036-2.035
	c-1.125,0-2.037,0.91-2.037,2.035C49.587,82.971,50.5,83.882,51.625,83.882"/>
<path style="fill:#FF5959;" d="M51.625,91.01c1.125,0,2.036-0.912,2.036-2.035c0-1.125-0.912-2.037-2.036-2.037
	c-1.125,0-2.037,0.912-2.037,2.037C49.587,90.098,50.5,91.01,51.625,91.01"/>
<path style="fill:#FF5959;" d="M51.625,69.625c1.125,0,2.036-0.911,2.036-2.035c0-1.125-0.912-2.035-2.036-2.035
	c-1.125,0-2.037,0.91-2.037,2.035C49.587,68.714,50.5,69.625,51.625,69.625"/>
<path style="fill:#FF5959;" d="M51.625,76.754c1.125,0,2.036-0.912,2.036-2.037s-0.912-2.035-2.036-2.035
	c-1.125,0-2.037,0.91-2.037,2.035S50.5,76.754,51.625,76.754"/>
<path style="fill:#FF5959;" d="M44.496,37.549c1.125,0,2.036-0.912,2.036-2.037s-0.912-2.037-2.036-2.037s-2.037,0.912-2.037,2.037
	C42.459,36.638,43.372,37.549,44.496,37.549"/>
<path style="fill:#FF5959;" d="M44.496,44.678c1.125,0,2.036-0.913,2.036-2.037c0-1.125-0.912-2.036-2.036-2.036
	s-2.037,0.91-2.037,2.036C42.459,43.765,43.372,44.678,44.496,44.678"/>
<path style="fill:#FF5959;" d="M44.496,51.805c1.125,0,2.036-0.912,2.036-2.036s-0.912-2.036-2.036-2.036s-2.037,0.912-2.037,2.036
	S43.372,51.805,44.496,51.805"/>
<path style="fill:#FF5959;" d="M44.496,58.934c1.125,0,2.036-0.912,2.036-2.036c0-1.125-0.912-2.037-2.036-2.037
	s-2.037,0.912-2.037,2.037C42.459,58.021,43.372,58.934,44.496,58.934"/>
<path style="fill:#FF5959;" d="M44.496,16.165c1.125,0,2.036-0.911,2.036-2.035c0-1.126-0.912-2.037-2.036-2.037
	s-2.037,0.911-2.037,2.037C42.459,15.253,43.372,16.165,44.496,16.165"/>
<path style="fill:#FF5959;" d="M44.496,23.293c1.125,0,2.036-0.912,2.036-2.037c0-1.124-0.912-2.036-2.036-2.036
	s-2.037,0.912-2.037,2.036C42.459,22.382,43.372,23.293,44.496,23.293"/>
<path style="fill:#FF5959;" d="M44.496,30.421c1.125,0,2.036-0.912,2.036-2.036c0-1.125-0.912-2.036-2.036-2.036
	s-2.037,0.911-2.037,2.036C42.459,29.509,43.372,30.421,44.496,30.421"/>
<path style="fill:#FF5959;" d="M44.496,80.316c1.125,0,2.036-0.91,2.036-2.035s-0.912-2.036-2.036-2.036s-2.037,0.911-2.037,2.036
	S43.372,80.316,44.496,80.316"/>
<path style="fill:#FF5959;" d="M44.496,87.445c1.125,0,2.036-0.911,2.036-2.036s-0.912-2.036-2.036-2.036s-2.037,0.911-2.037,2.036
	S43.372,87.445,44.496,87.445"/>
<path style="fill:#FF5959;" d="M44.496,94.573c1.125,0,2.036-0.911,2.036-2.036S45.621,90.5,44.496,90.5s-2.037,0.912-2.037,2.037
	S43.372,94.573,44.496,94.573"/>
<path style="fill:#FF5959;" d="M44.496,66.062c1.125,0,2.036-0.912,2.036-2.037c0-1.125-0.912-2.038-2.036-2.038
	s-2.037,0.913-2.037,2.038C42.459,65.15,43.372,66.062,44.496,66.062"/>
<path style="fill:#FF5959;" d="M44.496,73.189c1.125,0,2.036-0.912,2.036-2.037s-0.912-2.034-2.036-2.034s-2.037,0.909-2.037,2.034
	S43.372,73.189,44.496,73.189"/>
<path style="fill:#FF5959;" d="M37.368,41.113c1.125,0,2.037-0.911,2.037-2.036s-0.912-2.035-2.037-2.035s-2.037,0.911-2.037,2.035
	C35.332,40.202,36.243,41.113,37.368,41.113"/>
<path style="fill:#FF5959;" d="M37.368,48.242c1.125,0,2.037-0.913,2.037-2.037c0-1.125-0.912-2.036-2.037-2.036
	s-2.037,0.911-2.037,2.036C35.332,47.329,36.243,48.242,37.368,48.242"/>
<path style="fill:#FF5959;" d="M37.368,55.369c1.125,0,2.037-0.912,2.037-2.037s-0.912-2.035-2.037-2.035s-2.037,0.911-2.037,2.035
	C35.332,54.458,36.243,55.369,37.368,55.369"/>
<path style="fill:#FF5959;" d="M37.368,62.498c1.125,0,2.037-0.912,2.037-2.037s-0.912-2.037-2.037-2.037s-2.037,0.911-2.037,2.037
	C35.332,61.586,36.243,62.498,37.368,62.498"/>
<path style="fill:#FF5959;" d="M37.368,19.729c1.125,0,2.037-0.913,2.037-2.037c0-1.125-0.912-2.035-2.037-2.035
	s-2.037,0.91-2.037,2.035C35.332,18.817,36.243,19.729,37.368,19.729"/>
<path style="fill:#FF5959;" d="M37.368,26.857c1.125,0,2.037-0.912,2.037-2.037c0-1.124-0.912-2.036-2.037-2.036
	s-2.037,0.912-2.037,2.036C35.332,25.945,36.243,26.857,37.368,26.857"/>
<path style="fill:#FF5959;" d="M37.368,33.985c1.125,0,2.037-0.912,2.037-2.037s-0.912-2.037-2.037-2.037s-2.037,0.912-2.037,2.037
	C35.332,33.073,36.243,33.985,37.368,33.985"/>
<path style="fill:#FF5959;" d="M37.368,83.882c1.125,0,2.037-0.911,2.037-2.036s-0.912-2.035-2.037-2.035s-2.037,0.91-2.037,2.035
	C35.332,82.971,36.243,83.882,37.368,83.882"/>
<path style="fill:#FF5959;" d="M37.368,91.01c1.125,0,2.037-0.912,2.037-2.035c0-1.125-0.912-2.037-2.037-2.037
	s-2.037,0.912-2.037,2.037C35.332,90.098,36.243,91.01,37.368,91.01"/>
<path style="fill:#FF5959;" d="M37.368,98.139c1.125,0,2.037-0.912,2.037-2.035c0-1.127-0.912-2.037-2.037-2.037
	s-2.037,0.91-2.037,2.037C35.332,97.227,36.243,98.139,37.368,98.139"/>
<path style="fill:#FF5959;" d="M37.368,69.625c1.125,0,2.037-0.911,2.037-2.035c0-1.125-0.912-2.035-2.037-2.035
	s-2.037,0.91-2.037,2.035C35.332,68.714,36.243,69.625,37.368,69.625"/>
<path style="fill:#FF5959;" d="M37.368,76.754c1.125,0,2.037-0.912,2.037-2.037s-0.912-2.035-2.037-2.035s-2.037,0.91-2.037,2.035
	S36.243,76.754,37.368,76.754"/>
<path style="fill:#FF5959;" d="M30.24,37.549c1.125,0,2.037-0.912,2.037-2.037s-0.912-2.037-2.037-2.037s-2.036,0.912-2.036,2.037
	C28.204,36.638,29.115,37.549,30.24,37.549"/>
<path style="fill:#FF5959;" d="M30.24,44.678c1.125,0,2.037-0.913,2.037-2.037c0-1.125-0.912-2.036-2.037-2.036
	s-2.036,0.91-2.036,2.036C28.204,43.765,29.115,44.678,30.24,44.678"/>
<path style="fill:#FF5959;" d="M30.24,51.805c1.125,0,2.037-0.912,2.037-2.036s-0.912-2.036-2.037-2.036s-2.036,0.912-2.036,2.036
	S29.115,51.805,30.24,51.805"/>
<path style="fill:#FF5959;" d="M30.24,58.934c1.125,0,2.037-0.912,2.037-2.036c0-1.125-0.912-2.037-2.037-2.037
	s-2.036,0.912-2.036,2.037C28.204,58.021,29.115,58.934,30.24,58.934"/>
<path style="fill:#FF5959;" d="M30.24,23.293c1.125,0,2.037-0.912,2.037-2.037c0-1.124-0.912-2.036-2.037-2.036
	s-2.036,0.912-2.036,2.036C28.204,22.382,29.115,23.293,30.24,23.293"/>
<path style="fill:#FF5959;" d="M30.24,30.421c1.125,0,2.037-0.912,2.037-2.036c0-1.125-0.912-2.036-2.037-2.036
	s-2.036,0.911-2.036,2.036C28.204,29.509,29.115,30.421,30.24,30.421"/>
<path style="fill:#FF5959;" d="M30.24,80.316c1.125,0,2.037-0.91,2.037-2.035s-0.912-2.036-2.037-2.036s-2.036,0.911-2.036,2.036
	S29.115,80.316,30.24,80.316"/>
<path style="fill:#FF5959;" d="M30.24,87.445c1.125,0,2.037-0.911,2.037-2.036s-0.912-2.036-2.037-2.036s-2.036,0.911-2.036,2.036
	S29.115,87.445,30.24,87.445"/>
<path style="fill:#FF5959;" d="M30.24,94.573c1.125,0,2.037-0.911,2.037-2.036S31.365,90.5,30.24,90.5s-2.036,0.912-2.036,2.037
	S29.115,94.573,30.24,94.573"/>
<path style="fill:#FF5959;" d="M30.24,101.702c1.125,0,2.037-0.912,2.037-2.037s-0.912-2.035-2.037-2.035s-2.036,0.91-2.036,2.035
	S29.115,101.702,30.24,101.702"/>
<path style="fill:#FF5959;" d="M30.24,66.062c1.125,0,2.037-0.912,2.037-2.037c0-1.125-0.912-2.038-2.037-2.038
	s-2.036,0.913-2.036,2.038C28.204,65.15,29.115,66.062,30.24,66.062"/>
<path style="fill:#FF5959;" d="M30.24,73.189c1.125,0,2.037-0.912,2.037-2.037s-0.912-2.034-2.037-2.034s-2.036,0.909-2.036,2.034
	S29.115,73.189,30.24,73.189"/>
<path style="fill:#FF5959;" d="M23.112,41.113c1.125,0,2.037-0.911,2.037-2.036s-0.912-2.035-2.037-2.035s-2.037,0.911-2.037,2.035
	C21.075,40.202,21.987,41.113,23.112,41.113"/>
<path style="fill:#FF5959;" d="M23.112,48.242c1.125,0,2.037-0.913,2.037-2.037c0-1.125-0.912-2.036-2.037-2.036
	s-2.037,0.911-2.037,2.036C21.075,47.329,21.987,48.242,23.112,48.242"/>
<path style="fill:#FF5959;" d="M23.112,55.369c1.125,0,2.037-0.912,2.037-2.037s-0.912-2.035-2.037-2.035s-2.037,0.911-2.037,2.035
	C21.075,54.458,21.987,55.369,23.112,55.369"/>
<path style="fill:#FF5959;" d="M23.112,62.498c1.125,0,2.037-0.912,2.037-2.037s-0.912-2.037-2.037-2.037s-2.037,0.911-2.037,2.037
	C21.075,61.586,21.987,62.498,23.112,62.498"/>
<path style="fill:#FF5959;" d="M23.112,26.857c1.125,0,2.037-0.912,2.037-2.037c0-1.124-0.912-2.036-2.037-2.036
	s-2.037,0.912-2.037,2.036C21.075,25.945,21.987,26.857,23.112,26.857"/>
<path style="fill:#FF5959;" d="M23.112,33.985c1.125,0,2.037-0.912,2.037-2.037s-0.912-2.037-2.037-2.037s-2.037,0.912-2.037,2.037
	S21.987,33.985,23.112,33.985"/>
<path style="fill:#FF5959;" d="M23.112,83.882c1.125,0,2.037-0.911,2.037-2.036s-0.912-2.035-2.037-2.035s-2.037,0.91-2.037,2.035
	S21.987,83.882,23.112,83.882"/>
<path style="fill:#FF5959;" d="M23.112,91.01c1.125,0,2.037-0.912,2.037-2.035c0-1.125-0.912-2.037-2.037-2.037
	s-2.037,0.912-2.037,2.037C21.075,90.098,21.987,91.01,23.112,91.01"/>
<path style="fill:#FF5959;" d="M23.112,98.139c1.125,0,2.037-0.912,2.037-2.035c0-1.127-0.912-2.037-2.037-2.037
	s-2.037,0.91-2.037,2.037C21.075,97.227,21.987,98.139,23.112,98.139"/>
<path style="fill:#FF5959;" d="M23.112,105.266c1.125,0,2.037-0.912,2.037-2.035c0-1.125-0.912-2.037-2.037-2.037
	s-2.037,0.912-2.037,2.037C21.075,104.354,21.987,105.266,23.112,105.266"/>
<path style="fill:#FF5959;" d="M23.112,69.625c1.125,0,2.037-0.911,2.037-2.035c0-1.125-0.912-2.035-2.037-2.035
	s-2.037,0.91-2.037,2.035C21.075,68.714,21.987,69.625,23.112,69.625"/>
<path style="fill:#FF5959;" d="M23.112,76.754c1.125,0,2.037-0.912,2.037-2.037s-0.912-2.035-2.037-2.035s-2.037,0.91-2.037,2.035
	S21.987,76.754,23.112,76.754"/>
<path style="fill:#FF5959;" d="M15.984,37.549c1.125,0,2.037-0.912,2.037-2.037s-0.912-2.037-2.037-2.037s-2.036,0.912-2.036,2.037
	C13.948,36.638,14.859,37.549,15.984,37.549"/>
<path style="fill:#FF5959;" d="M15.984,44.678c1.125,0,2.037-0.913,2.037-2.037c0-1.125-0.912-2.036-2.037-2.036
	s-2.036,0.91-2.036,2.036C13.948,43.765,14.859,44.678,15.984,44.678"/>
<path style="fill:#FF5959;" d="M15.984,51.805c1.125,0,2.037-0.912,2.037-2.036s-0.912-2.036-2.037-2.036s-2.036,0.912-2.036,2.036
	S14.859,51.805,15.984,51.805"/>
<path style="fill:#FF5959;" d="M15.984,58.934c1.125,0,2.037-0.912,2.037-2.036c0-1.125-0.912-2.037-2.037-2.037
	s-2.036,0.912-2.036,2.037C13.948,58.021,14.859,58.934,15.984,58.934"/>
<path style="fill:#FF5959;" d="M15.984,30.421c1.125,0,2.037-0.912,2.037-2.036c0-1.125-0.912-2.036-2.037-2.036
	s-2.036,0.911-2.036,2.036C13.948,29.509,14.859,30.421,15.984,30.421"/>
<path style="fill:#FF5959;" d="M15.984,80.316c1.125,0,2.037-0.91,2.037-2.035s-0.912-2.036-2.037-2.036s-2.036,0.911-2.036,2.036
	S14.859,80.316,15.984,80.316"/>
<path style="fill:#FF5959;" d="M15.984,66.062c1.125,0,2.037-0.912,2.037-2.037c0-1.125-0.912-2.038-2.037-2.038
	s-2.036,0.913-2.036,2.038C13.948,65.15,14.859,66.062,15.984,66.062"/>
<path style="fill:#FF5959;" d="M15.984,73.189c1.125,0,2.037-0.912,2.037-2.037s-0.912-2.034-2.037-2.034s-2.036,0.909-2.036,2.034
	S14.859,73.189,15.984,73.189"/>
<path style="fill:#FF5959;" d="M8.856,41.113c1.125,0,2.037-0.911,2.037-2.036s-0.912-2.035-2.037-2.035s-2.037,0.911-2.037,2.035
	C6.819,40.202,7.731,41.113,8.856,41.113"/>
<path style="fill:#FF5959;" d="M8.856,48.242c1.125,0,2.037-0.913,2.037-2.037c0-1.125-0.912-2.036-2.037-2.036
	s-2.037,0.911-2.037,2.036C6.819,47.329,7.731,48.242,8.856,48.242"/>
<path style="fill:#FF5959;" d="M8.856,55.369c1.125,0,2.037-0.912,2.037-2.037s-0.912-2.035-2.037-2.035s-2.037,0.911-2.037,2.035
	C6.819,54.458,7.731,55.369,8.856,55.369"/>
<path style="fill:#FF5959;" d="M8.856,62.498c1.125,0,2.037-0.912,2.037-2.037s-0.912-2.037-2.037-2.037s-2.037,0.911-2.037,2.037
	C6.819,61.586,7.731,62.498,8.856,62.498"/>
<path style="fill:#FF5959;" d="M8.856,69.625c1.125,0,2.037-0.911,2.037-2.035c0-1.125-0.912-2.035-2.037-2.035
	s-2.037,0.91-2.037,2.035C6.819,68.714,7.731,69.625,8.856,69.625"/>
<path style="fill:#2B2622;" d="M62.558,7.512c-34.016,0-61.691,20.429-61.691,45.54c0,12.927,7.336,25.118,20.218,33.736
	l-8.502,24.587c-0.403,1.167-0.008,2.462,0.978,3.204c0.506,0.38,1.108,0.569,1.709,0.569c0.573,0,1.148-0.172,1.639-0.521
	l26.064-18.373c6.295,1.55,12.877,2.334,19.585,2.334c34.017,0,61.692-20.428,61.692-45.538
	C124.25,27.941,96.575,7.512,62.558,7.512 M62.558,92.9c-6.679,0-13.214-0.832-19.426-2.476c-0.807-0.212-1.676-0.059-2.364,0.427
	L20.841,104.9l6.351-18.366c0.436-1.259-0.062-2.651-1.196-3.353c-12.355-7.608-19.44-18.591-19.44-30.13
	c0-21.975,25.124-39.853,56.002-39.853c30.879,0,56.002,17.878,56.002,39.853C118.562,75.025,93.438,92.9,62.558,92.9"/>
<path style="fill:#2B2622;" d="M87.506,38.146H37.61c-1.572,0-2.844,1.874-2.844,3.444c0,1.57,1.272,3.444,2.844,3.444h49.896
	c1.571,0,2.844-1.874,2.844-3.444C90.35,40.02,89.077,38.146,87.506,38.146"/>
<path style="fill:#2B2622;" d="M87.506,57.952H37.61c-1.572,0-2.844,1.875-2.844,3.444s1.272,3.445,2.844,3.445h49.896
	c1.571,0,2.844-1.875,2.844-3.445S89.077,57.952,87.506,57.952"/>
</svg>
