<?xml version="1.0"?>
<svg xmlns="http://www.w3.org/2000/svg" xmlns:xlink="http://www.w3.org/1999/xlink" xmlns:svgjs="http://svgjs.com/svgjs" version="1.1" width="512" height="512" x="0" y="0" viewBox="0 0 420.864 420.864" style="enable-background:new 0 0 512 512" xml:space="preserve" class=""><g>
<g xmlns="http://www.w3.org/2000/svg">
	<g>
		<path d="M310.272,379.392c55.808-35.84,92.16-98.304,92.16-168.96c0-111.104-90.112-201.216-201.216-201.216S0,99.328,0,210.432    s90.112,201.216,201.216,201.216h219.648v-32.256H310.272z M201.216,77.824c26.624,0,48.128,21.504,48.128,48.128    c0,26.624-21.504,48.128-48.128,48.128c-26.624,0-48.128-21.504-48.128-48.128C153.088,99.328,174.592,77.824,201.216,77.824z     M116.736,258.56c-26.624,0-48.128-21.504-48.128-48.128s21.504-48.128,48.128-48.128c26.624,0,48.128,21.504,48.128,48.128    S143.36,258.56,116.736,258.56z M201.216,343.04c-26.624,0-48.128-21.504-48.128-48.128s21.504-48.128,48.128-48.128    c26.624,0,48.128,21.504,48.128,48.128C249.344,321.536,227.84,343.04,201.216,343.04z M237.056,210.432    c0-26.624,22.016-48.128,48.128-48.128c26.624,0,48.128,21.504,48.128,48.128s-21.504,48.128-48.128,48.128    S237.056,237.056,237.056,210.432z" fill="#999999" data-original="#000000" style="" class=""/>
	</g>
</g>
<g xmlns="http://www.w3.org/2000/svg">
</g>
<g xmlns="http://www.w3.org/2000/svg">
</g>
<g xmlns="http://www.w3.org/2000/svg">
</g>
<g xmlns="http://www.w3.org/2000/svg">
</g>
<g xmlns="http://www.w3.org/2000/svg">
</g>
<g xmlns="http://www.w3.org/2000/svg">
</g>
<g xmlns="http://www.w3.org/2000/svg">
</g>
<g xmlns="http://www.w3.org/2000/svg">
</g>
<g xmlns="http://www.w3.org/2000/svg">
</g>
<g xmlns="http://www.w3.org/2000/svg">
</g>
<g xmlns="http://www.w3.org/2000/svg">
</g>
<g xmlns="http://www.w3.org/2000/svg">
</g>
<g xmlns="http://www.w3.org/2000/svg">
</g>
<g xmlns="http://www.w3.org/2000/svg">
</g>
<g xmlns="http://www.w3.org/2000/svg">
</g>
</g></svg>
