<svg width="187" height="42" viewBox="0 0 187 42" fill="none" xmlns="http://www.w3.org/2000/svg">
<path fill-rule="evenodd" clip-rule="evenodd" d="M162.126 10.7207C162.072 9.8297 162.051 9.4617 162.719 9.0577C163.186 8.7747 165.755 7.2897 170.372 5.8617C170.942 5.6837 171.462 5.7957 171.794 6.1687C172.139 6.5577 172.213 7.1517 171.975 7.6777C171.542 8.6297 171.425 9.5247 171.907 9.9017C172.302 10.2107 172.689 10.3197 173.889 9.6947C175.462 8.8737 177.322 6.8097 177.209 3.4207C177.168 2.2077 176.714 1.3017 175.86 0.725699C175.054 0.181699 173.972 -0.000301361 172.872 -0.000301361C169.873 -0.000301361 168.419 0.745699 164.466 2.1577C158.986 4.1157 152.081 6.4037 148.257 7.3437C146.685 7.7297 145.309 8.8867 145.309 10.4747C145.309 12.9867 148.335 13.6267 150.405 12.9337C150.84 12.7887 155.134 11.2417 156.655 11.0467C156.872 11.0187 156.977 11.0997 156.994 11.2587C157.019 11.4677 157.112 13.6207 157.152 14.5937C157.321 18.6987 157.667 26.6777 157.699 27.2357C157.761 28.2937 157.769 31.6217 159.581 31.6217C161.266 31.6217 162.078 29.8217 162.505 27.2357C163.106 23.5797 162.605 18.3477 162.362 14.1647C162.293 12.9837 162.126 10.7207 162.126 10.7207" fill="white"/>
<path fill-rule="evenodd" clip-rule="evenodd" d="M184.692 4.1435C182.425 4.1435 180.267 8.3405 178.714 12.0665C176.754 16.7775 175.656 21.0075 174.998 22.4145C174.481 21.0545 173.126 17.0555 172.435 15.6055C171.259 13.1345 170.003 11.2375 168.406 11.2375C167.514 11.2375 166.457 11.7855 166.457 13.3725C166.457 14.4975 166.923 15.9035 167.41 17.1985C167.565 17.6145 170.618 25.0125 171.055 26.3795C171.055 26.3795 172.511 30.8535 172.643 31.2485C173.534 33.9295 174.372 34.2685 174.936 34.2685C175.855 34.2685 177.106 33.8985 177.745 31.1615C178.151 29.4165 178.731 27.4335 179.226 25.8095C180.124 22.8695 182.372 17.3085 183.818 13.9235C184.991 11.1785 186.463 8.0165 186.463 6.0525C186.463 5.1215 186.07 4.1435 184.692 4.1435" fill="white"/>
<path fill-rule="evenodd" clip-rule="evenodd" d="M111.27 35.3252H27.6445L34.3055 41.9862L111.27 35.3252Z" fill="white"/>
<path fill-rule="evenodd" clip-rule="evenodd" d="M30.5391 26.166C27.6501 26.166 25.5351 23.322 25.5351 19.728C25.5351 16.137 27.6501 13.292 30.5391 13.292C33.4321 13.292 35.4701 16.137 35.4701 19.728C35.4701 23.322 33.4321 26.166 30.5391 26.166V26.166ZM35.3911 8.382V9.389C33.8391 8.4 32.4461 7.824 30.5391 7.824C24.6811 7.824 20.2301 13.167 20.2301 19.728C20.2301 26.291 24.6811 31.63 30.5391 31.63C32.4461 31.63 33.8391 31.058 35.3911 30.067V31.073H40.5411V8.382H35.3911Z" fill="white"/>
<path fill-rule="evenodd" clip-rule="evenodd" d="M76.6465 8.3818V21.7118C76.6465 24.2118 74.9275 26.3238 72.4255 26.3238C69.9255 26.3238 68.2075 24.2118 68.2075 21.7118V8.3818H63.0565V21.7118C63.0565 27.1808 66.7975 31.6308 72.2685 31.6308C74.8015 31.6308 76.6465 30.2298 76.6465 30.2298V31.0728H81.7955V8.3818H76.6465Z" fill="white"/>
<path fill-rule="evenodd" clip-rule="evenodd" d="M124.633 31.0732V17.7432C124.633 15.2422 126.351 13.1312 128.853 13.1312C131.353 13.1312 133.072 15.2422 133.072 17.7432V31.0732H138.223V17.7432C138.223 12.2742 134.481 7.8242 129.01 7.8242C126.477 7.8242 124.633 9.2252 124.633 9.2252V8.3822H119.483V31.0732H124.633Z" fill="white"/>
<path fill-rule="evenodd" clip-rule="evenodd" d="M95.6768 25.7036C95.2138 26.0176 94.6298 26.2616 93.9538 26.2616C93.1138 26.2616 91.5268 25.6196 91.5268 23.4776V13.7676H95.9308V8.3816H91.5268V2.7266H86.3758L86.3768 8.3816H83.6518V13.7676H86.3768V23.5566C86.3748 28.6236 90.1928 31.6496 94.0318 31.6496C95.4638 31.6496 97.4498 31.1816 99.0708 30.2216L95.6768 25.7036Z" fill="white"/>
<path fill-rule="evenodd" clip-rule="evenodd" d="M53.3447 19.018L62.1787 8.382H54.9597L48.7817 16.287V0.852997H43.4777V31.073H48.7817V21.752L56.3767 31.073H63.5927L53.3447 19.018Z" fill="white"/>
<path fill-rule="evenodd" clip-rule="evenodd" d="M112.068 16.7983H102.793C103.876 11.4843 111.064 11.1783 112.068 16.7983ZM107.572 7.8053C101.611 7.8053 97.3364 13.0443 97.3364 19.7273C97.3364 26.7553 102.702 31.6513 108.084 31.6513C110.799 31.6513 114.28 30.7193 117.205 26.5713L112.656 23.9443C109.137 29.1303 103.274 26.4983 102.597 21.3123L117.432 21.3163C118.702 13.1663 113.431 7.8053 107.572 7.8053" fill="white"/>
<path fill-rule="evenodd" clip-rule="evenodd" d="M5.38569 8.1088H8.9017C11.3197 8.1088 13.2977 10.0768 13.2977 12.4998C13.2977 14.9298 11.3197 16.8958 8.9017 16.8958H5.38569V8.1088ZM5.38569 31.0728V22.2818H9.1967L15.7907 31.0728H22.5337L14.5647 20.4648C17.0477 18.6828 18.6797 15.7838 18.6797 12.4998C18.6797 7.1068 14.2937 2.7268 8.9017 2.7268H-0.000305176V31.0728H5.38569Z" fill="white"/>
</svg>
