<svg width="19" height="19" viewBox="0 0 19 19" fill="none" xmlns="http://www.w3.org/2000/svg">
<path d="M16.391 12.669C19.286 9.77501 19.286 5.06501 16.391 2.17101C13.496 -0.723994 8.78702 -0.723994 5.89302 2.17101C3.32102 4.74301 3.04002 8.74501 5.04002 11.637L0.576031 16.101C0.0550311 16.622 0.0540311 17.465 0.576031 17.986C1.09703 18.507 1.94001 18.507 2.46101 17.986L6.92503 13.522C9.81603 15.521 13.818 15.241 16.391 12.669ZM7.77803 10.784C5.92403 8.92901 5.92302 5.91101 7.77702 4.05601C9.63102 2.20101 12.651 2.20201 14.506 4.05601C16.361 5.91001 16.36 8.92901 14.506 10.784C12.65 12.64 9.63203 12.64 7.77803 10.784Z" fill="white"/>
</svg>
