<svg width="39" height="50" viewBox="0 0 39 50" fill="none" xmlns="http://www.w3.org/2000/svg">
<path d="M22.687 5.054C22.687 4.579 22.302 4.194 21.827 4.194C21.352 4.194 20.967 4.579 20.967 5.054C20.967 5.529 21.352 5.914 21.827 5.914C22.302 5.914 22.687 5.529 22.687 5.054Z" fill="#FF5A5D"/>
<path d="M25.698 5.054C25.698 4.579 25.312 4.194 24.838 4.194C24.362 4.194 23.977 4.579 23.977 5.054C23.977 5.529 24.363 5.914 24.838 5.914C25.312 5.914 25.698 5.529 25.698 5.054Z" fill="#FF5A5D"/>
<path d="M21.181 8.065C21.181 7.59 20.796 7.205 20.321 7.205C19.846 7.205 19.461 7.59 19.461 8.065C19.461 8.54 19.846 8.925 20.321 8.925C20.796 8.925 21.181 8.54 21.181 8.065Z" fill="#FF5A5D"/>
<path d="M30.215 8.065C30.215 7.59 29.83 7.205 29.356 7.205C28.879 7.205 28.495 7.59 28.495 8.065C28.495 8.54 28.88 8.925 29.356 8.925C29.83 8.925 30.215 8.54 30.215 8.065Z" fill="#FF5A5D"/>
<path d="M24.192 8.065C24.192 7.59 23.807 7.205 23.332 7.205C22.857 7.205 22.472 7.59 22.472 8.065C22.472 8.54 22.857 8.925 23.332 8.925C23.807 8.925 24.192 8.54 24.192 8.065Z" fill="#FF5A5D"/>
<path d="M27.204 8.065C27.204 7.59 26.818 7.205 26.344 7.205C25.867 7.205 25.483 7.59 25.483 8.065C25.483 8.54 25.868 8.925 26.344 8.925C26.818 8.925 27.204 8.54 27.204 8.065Z" fill="#FF5A5D"/>
<path d="M16.664 11.077C16.664 10.602 16.278 10.217 15.804 10.217C15.327 10.217 14.943 10.602 14.943 11.077C14.943 11.552 15.328 11.937 15.804 11.937C16.278 11.937 16.664 11.552 16.664 11.077Z" fill="#FF5A5D"/>
<path d="M19.675 11.077C19.675 10.602 19.29 10.217 18.815 10.217C18.34 10.217 17.955 10.602 17.955 11.077C17.955 11.552 18.34 11.937 18.815 11.937C19.29 11.937 19.675 11.552 19.675 11.077Z" fill="#FF5A5D"/>
<path d="M28.71 11.077C28.71 10.602 28.324 10.217 27.85 10.217C27.373 10.217 26.989 10.602 26.989 11.077C26.989 11.552 27.374 11.937 27.85 11.937C28.324 11.937 28.71 11.552 28.71 11.077Z" fill="#FF5A5D"/>
<path d="M22.687 11.077C22.687 10.602 22.302 10.217 21.827 10.217C21.352 10.217 20.967 10.602 20.967 11.077C20.967 11.552 21.352 11.937 21.827 11.937C22.302 11.937 22.687 11.552 22.687 11.077Z" fill="#FF5A5D"/>
<path d="M25.698 11.077C25.698 10.602 25.312 10.217 24.838 10.217C24.362 10.217 23.977 10.602 23.977 11.077C23.977 11.552 24.363 11.937 24.838 11.937C25.312 11.937 25.698 11.552 25.698 11.077Z" fill="#FF5A5D"/>
<path d="M12.146 14.088C12.146 13.613 11.761 13.228 11.286 13.228C10.811 13.228 10.426 13.613 10.426 14.088C10.426 14.563 10.811 14.948 11.286 14.948C11.761 14.948 12.146 14.563 12.146 14.088Z" fill="#FF5A5D"/>
<path d="M15.158 14.088C15.158 13.613 14.772 13.228 14.298 13.228C13.822 13.228 13.437 13.613 13.437 14.088C13.437 14.563 13.823 14.948 14.298 14.948C14.772 14.948 15.158 14.563 15.158 14.088Z" fill="#FF5A5D"/>
<path d="M18.169 14.088C18.169 13.613 17.784 13.228 17.31 13.228C16.833 13.228 16.449 13.613 16.449 14.088C16.449 14.563 16.834 14.948 17.31 14.948C17.784 14.948 18.169 14.563 18.169 14.088Z" fill="#FF5A5D"/>
<path d="M21.181 14.088C21.181 13.613 20.796 13.228 20.321 13.228C19.846 13.228 19.461 13.613 19.461 14.088C19.461 14.563 19.846 14.948 20.321 14.948C20.796 14.948 21.181 14.563 21.181 14.088Z" fill="#FF5A5D"/>
<path d="M9.13498 14.088C9.13498 13.613 8.74998 13.228 8.27498 13.228C7.79998 13.228 7.41498 13.613 7.41498 14.088C7.41498 14.563 7.79998 14.948 8.27498 14.948C8.74998 14.948 9.13498 14.563 9.13498 14.088Z" fill="#FF5A5D"/>
<path d="M24.192 14.088C24.192 13.613 23.807 13.228 23.332 13.228C22.857 13.228 22.472 13.613 22.472 14.088C22.472 14.563 22.857 14.948 23.332 14.948C23.807 14.948 24.192 14.563 24.192 14.088Z" fill="#FF5A5D"/>
<path d="M27.204 14.088C27.204 13.613 26.818 13.228 26.344 13.228C25.867 13.228 25.483 13.613 25.483 14.088C25.483 14.563 25.868 14.948 26.344 14.948C26.818 14.948 27.204 14.563 27.204 14.088Z" fill="#FF5A5D"/>
<path d="M10.641 17.1C10.641 16.625 10.256 16.24 9.78102 16.24C9.30602 16.24 8.92102 16.625 8.92102 17.1C8.92102 17.575 9.30602 17.96 9.78102 17.96C10.256 17.96 10.641 17.575 10.641 17.1Z" fill="#FF5A5D"/>
<path d="M13.652 17.1C13.652 16.625 13.267 16.24 12.792 16.24C12.317 16.24 11.931 16.625 11.931 17.1C11.931 17.575 12.317 17.96 12.792 17.96C13.267 17.96 13.652 17.575 13.652 17.1Z" fill="#FF5A5D"/>
<path d="M16.664 17.1C16.664 16.625 16.278 16.24 15.804 16.24C15.327 16.24 14.943 16.625 14.943 17.1C14.943 17.575 15.328 17.96 15.804 17.96C16.278 17.959 16.664 17.575 16.664 17.1Z" fill="#FF5A5D"/>
<path d="M19.675 17.1C19.675 16.625 19.29 16.24 18.815 16.24C18.34 16.24 17.955 16.625 17.955 17.1C17.955 17.575 18.34 17.96 18.815 17.96C19.29 17.96 19.675 17.575 19.675 17.1Z" fill="#FF5A5D"/>
<path d="M4.61697 17.1C4.61697 16.625 4.23197 16.24 3.75797 16.24C3.28097 16.24 2.89697 16.625 2.89697 17.1C2.89697 17.575 3.28197 17.96 3.75797 17.96C4.23197 17.959 4.61697 17.575 4.61697 17.1Z" fill="#FF5A5D"/>
<path d="M7.629 17.1C7.629 16.625 7.244 16.24 6.769 16.24C6.294 16.24 5.909 16.625 5.909 17.1C5.909 17.575 6.294 17.96 6.769 17.96C7.244 17.96 7.629 17.575 7.629 17.1Z" fill="#FF5A5D"/>
<path d="M28.71 17.1C28.71 16.625 28.324 16.24 27.85 16.24C27.373 16.24 26.989 16.625 26.989 17.1C26.989 17.575 27.374 17.96 27.85 17.96C28.324 17.959 28.71 17.575 28.71 17.1Z" fill="#FF5A5D"/>
<path d="M31.721 17.1C31.721 16.625 31.336 16.24 30.862 16.24C30.385 16.24 30 16.625 30 17.1C30 17.575 30.385 17.96 30.861 17.96C31.336 17.959 31.721 17.575 31.721 17.1Z" fill="#FF5A5D"/>
<path d="M34.732 17.1C34.732 16.625 34.347 16.24 33.872 16.24C33.397 16.24 33.012 16.625 33.012 17.1C33.012 17.575 33.397 17.96 33.872 17.96C34.347 17.96 34.732 17.575 34.732 17.1Z" fill="#FF5A5D"/>
<path d="M22.687 17.1C22.687 16.625 22.302 16.24 21.827 16.24C21.352 16.24 20.967 16.625 20.967 17.1C20.967 17.575 21.352 17.96 21.827 17.96C22.302 17.96 22.687 17.575 22.687 17.1Z" fill="#FF5A5D"/>
<path d="M25.698 17.1C25.698 16.625 25.312 16.24 24.838 16.24C24.362 16.24 23.977 16.625 23.977 17.1C23.977 17.575 24.363 17.96 24.838 17.96C25.312 17.959 25.698 17.575 25.698 17.1Z" fill="#FF5A5D"/>
<path d="M12.146 20.111C12.146 19.636 11.761 19.251 11.286 19.251C10.811 19.251 10.426 19.636 10.426 20.111C10.426 20.586 10.811 20.971 11.286 20.971C11.761 20.971 12.146 20.586 12.146 20.111Z" fill="#FF5A5D"/>
<path d="M15.158 20.111C15.158 19.636 14.772 19.251 14.298 19.251C13.822 19.251 13.437 19.636 13.437 20.111C13.437 20.586 13.823 20.971 14.298 20.971C14.772 20.971 15.158 20.586 15.158 20.111Z" fill="#FF5A5D"/>
<path d="M18.169 20.111C18.169 19.636 17.784 19.251 17.31 19.251C16.833 19.251 16.449 19.636 16.449 20.111C16.449 20.586 16.834 20.971 17.31 20.971C17.784 20.971 18.169 20.586 18.169 20.111Z" fill="#FF5A5D"/>
<path d="M21.181 20.111C21.181 19.636 20.796 19.251 20.321 19.251C19.846 19.251 19.461 19.636 19.461 20.111C19.461 20.586 19.846 20.971 20.321 20.971C20.796 20.971 21.181 20.586 21.181 20.111Z" fill="#FF5A5D"/>
<path d="M6.12302 20.111C6.12302 19.636 5.73802 19.251 5.26402 19.251C4.78702 19.251 4.40302 19.636 4.40302 20.111C4.40302 20.586 4.78802 20.971 5.26402 20.971C5.73802 20.971 6.12302 20.586 6.12302 20.111Z" fill="#FF5A5D"/>
<path d="M9.13498 20.111C9.13498 19.636 8.74998 19.251 8.27498 19.251C7.79998 19.251 7.41498 19.636 7.41498 20.111C7.41498 20.586 7.79998 20.971 8.27498 20.971C8.74998 20.971 9.13498 20.586 9.13498 20.111Z" fill="#FF5A5D"/>
<path d="M30.215 20.111C30.215 19.636 29.83 19.251 29.356 19.251C28.879 19.251 28.495 19.636 28.495 20.111C28.495 20.586 28.88 20.971 29.356 20.971C29.83 20.971 30.215 20.586 30.215 20.111Z" fill="#FF5A5D"/>
<path d="M33.227 20.111C33.227 19.636 32.842 19.251 32.367 19.251C31.892 19.251 31.507 19.636 31.507 20.111C31.507 20.586 31.892 20.971 32.367 20.971C32.842 20.971 33.227 20.586 33.227 20.111Z" fill="#FF5A5D"/>
<path d="M36.238 20.111C36.238 19.636 35.853 19.251 35.378 19.251C34.903 19.251 34.518 19.636 34.518 20.111C34.518 20.586 34.903 20.971 35.378 20.971C35.853 20.971 36.238 20.586 36.238 20.111Z" fill="#FF5A5D"/>
<path d="M24.192 20.111C24.192 19.636 23.807 19.251 23.332 19.251C22.857 19.251 22.472 19.636 22.472 20.111C22.472 20.586 22.857 20.971 23.332 20.971C23.807 20.971 24.192 20.586 24.192 20.111Z" fill="#FF5A5D"/>
<path d="M27.204 20.111C27.204 19.636 26.818 19.251 26.344 19.251C25.867 19.251 25.483 19.636 25.483 20.111C25.483 20.586 25.868 20.971 26.344 20.971C26.818 20.971 27.204 20.586 27.204 20.111Z" fill="#FF5A5D"/>
<path d="M10.641 23.123C10.641 22.648 10.256 22.263 9.78102 22.263C9.30602 22.263 8.92102 22.648 8.92102 23.123C8.92102 23.598 9.30602 23.983 9.78102 23.983C10.256 23.983 10.641 23.598 10.641 23.123Z" fill="#FF5A5D"/>
<path d="M13.652 23.123C13.652 22.648 13.267 22.263 12.792 22.263C12.317 22.263 11.931 22.648 11.931 23.123C11.931 23.598 12.317 23.983 12.792 23.983C13.267 23.983 13.652 23.598 13.652 23.123Z" fill="#FF5A5D"/>
<path d="M16.664 23.123C16.664 22.648 16.278 22.263 15.804 22.263C15.327 22.263 14.943 22.648 14.943 23.123C14.943 23.598 15.328 23.983 15.804 23.983C16.278 23.982 16.664 23.598 16.664 23.123Z" fill="#FF5A5D"/>
<path d="M19.675 23.123C19.675 22.648 19.29 22.263 18.815 22.263C18.34 22.263 17.955 22.648 17.955 23.123C17.955 23.598 18.34 23.983 18.815 23.983C19.29 23.983 19.675 23.598 19.675 23.123Z" fill="#FF5A5D"/>
<path d="M4.61697 23.123C4.61697 22.648 4.23197 22.263 3.75797 22.263C3.28097 22.263 2.89697 22.648 2.89697 23.123C2.89697 23.598 3.28197 23.983 3.75797 23.983C4.23197 23.982 4.61697 23.598 4.61697 23.123Z" fill="#FF5A5D"/>
<path d="M7.629 23.123C7.629 22.648 7.244 22.263 6.769 22.263C6.294 22.263 5.909 22.648 5.909 23.123C5.909 23.598 6.294 23.983 6.769 23.983C7.244 23.983 7.629 23.598 7.629 23.123Z" fill="#FF5A5D"/>
<path d="M28.71 23.123C28.71 22.648 28.324 22.263 27.85 22.263C27.373 22.263 26.989 22.648 26.989 23.123C26.989 23.598 27.374 23.983 27.85 23.983C28.324 23.982 28.71 23.598 28.71 23.123Z" fill="#FF5A5D"/>
<path d="M31.721 23.123C31.721 22.648 31.336 22.263 30.862 22.263C30.385 22.263 30.001 22.648 30.001 23.123C30.001 23.598 30.386 23.983 30.862 23.983C31.336 23.982 31.721 23.598 31.721 23.123Z" fill="#FF5A5D"/>
<path d="M34.732 23.123C34.732 22.648 34.347 22.263 33.872 22.263C33.397 22.263 33.012 22.648 33.012 23.123C33.012 23.598 33.397 23.983 33.872 23.983C34.347 23.983 34.732 23.598 34.732 23.123Z" fill="#FF5A5D"/>
<path d="M37.744 23.123C37.744 22.648 37.359 22.263 36.884 22.263C36.409 22.263 36.023 22.648 36.023 23.123C36.023 23.598 36.409 23.983 36.884 23.983C37.359 23.983 37.744 23.598 37.744 23.123Z" fill="#FF5A5D"/>
<path d="M22.687 23.123C22.687 22.648 22.302 22.263 21.827 22.263C21.352 22.263 20.967 22.648 20.967 23.123C20.967 23.598 21.352 23.983 21.827 23.983C22.302 23.983 22.687 23.598 22.687 23.123Z" fill="#FF5A5D"/>
<path d="M25.698 23.123C25.698 22.648 25.312 22.263 24.838 22.263C24.362 22.263 23.977 22.648 23.977 23.123C23.977 23.598 24.363 23.983 24.838 23.983C25.312 23.982 25.698 23.598 25.698 23.123Z" fill="#FF5A5D"/>
<path d="M12.146 26.135C12.146 25.659 11.761 25.275 11.286 25.275C10.811 25.275 10.426 25.66 10.426 26.135C10.426 26.61 10.811 26.994 11.286 26.994C11.761 26.994 12.146 26.609 12.146 26.135Z" fill="#FF5A5D"/>
<path d="M15.158 26.135C15.158 25.659 14.772 25.275 14.298 25.275C13.822 25.275 13.437 25.66 13.437 26.135C13.437 26.61 13.823 26.994 14.298 26.994C14.772 26.994 15.158 26.609 15.158 26.135Z" fill="#FF5A5D"/>
<path d="M18.169 26.135C18.169 25.659 17.784 25.275 17.31 25.275C16.833 25.275 16.449 25.66 16.449 26.135C16.449 26.61 16.834 26.994 17.31 26.994C17.784 26.994 18.169 26.609 18.169 26.135Z" fill="#FF5A5D"/>
<path d="M21.181 26.135C21.181 25.659 20.796 25.275 20.321 25.275C19.846 25.275 19.461 25.66 19.461 26.135C19.461 26.61 19.846 26.994 20.321 26.994C20.796 26.994 21.181 26.609 21.181 26.135Z" fill="#FF5A5D"/>
<path d="M6.12302 26.135C6.12302 25.659 5.73802 25.275 5.26402 25.275C4.78702 25.275 4.40302 25.66 4.40302 26.135C4.40302 26.61 4.78802 26.994 5.26402 26.994C5.73802 26.994 6.12302 26.609 6.12302 26.135Z" fill="#FF5A5D"/>
<path d="M9.13498 26.135C9.13498 25.659 8.74998 25.275 8.27498 25.275C7.79998 25.275 7.41498 25.66 7.41498 26.135C7.41498 26.61 7.79998 26.994 8.27498 26.994C8.74998 26.994 9.13498 26.609 9.13498 26.135Z" fill="#FF5A5D"/>
<path d="M30.215 26.135C30.215 25.659 29.83 25.275 29.356 25.275C28.879 25.275 28.495 25.66 28.495 26.135C28.495 26.61 28.88 26.994 29.356 26.994C29.83 26.994 30.215 26.609 30.215 26.135Z" fill="#FF5A5D"/>
<path d="M33.227 26.135C33.227 25.659 32.842 25.275 32.367 25.275C31.892 25.275 31.507 25.66 31.507 26.135C31.507 26.61 31.892 26.994 32.367 26.994C32.842 26.994 33.227 26.609 33.227 26.135Z" fill="#FF5A5D"/>
<path d="M36.238 26.135C36.238 25.659 35.853 25.275 35.378 25.275C34.903 25.275 34.518 25.66 34.518 26.135C34.518 26.61 34.903 26.994 35.378 26.994C35.853 26.994 36.238 26.609 36.238 26.135Z" fill="#FF5A5D"/>
<path d="M24.192 26.135C24.192 25.659 23.807 25.275 23.332 25.275C22.857 25.275 22.472 25.66 22.472 26.135C22.472 26.61 22.857 26.994 23.332 26.994C23.807 26.994 24.192 26.609 24.192 26.135Z" fill="#FF5A5D"/>
<path d="M27.204 26.135C27.204 25.659 26.818 25.275 26.344 25.275C25.867 25.275 25.483 25.66 25.483 26.135C25.483 26.61 25.868 26.994 26.344 26.994C26.818 26.994 27.204 26.609 27.204 26.135Z" fill="#FF5A5D"/>
<path d="M38.867 21.601C38.867 17.731 35.96 15.262 30.781 14.603C31.067 14.184 31.297 13.712 31.466 13.192C32.324 10.565 31.398 6.967 29.358 5.003C25.682 1.462 16.915 0.177998 16.828 0.186998C16.433 0.229998 18.091 2.519 17.904 2.869C17.716 3.22 17.721 3.651 17.905 4.003C17.938 4.067 18.696 5.572 17.365 8.066C16.871 8.994 14.516 9.804 12.24 10.587C7.39001 12.257 0.747009 14.542 0.747009 21.388C0.747009 24.904 2.20301 26.896 3.51101 27.976C3.51101 27.978 3.51101 27.978 3.51101 27.98V28.404C3.51101 28.489 3.52101 28.573 3.53701 28.656L7.89601 48.96C8.01501 49.516 8.50401 49.91 9.07101 49.91H31.182C31.748 49.91 32.238 49.514 32.357 48.96L36.714 28.656C36.733 28.573 36.741 28.489 36.741 28.404V27.98C36.741 27.823 36.709 27.672 36.654 27.536C37.946 26.445 38.867 24.638 38.867 21.601ZM13.021 12.86C15.985 11.84 18.545 10.958 19.485 9.197C20.506 7.28 20.631 5.68 20.501 4.561C22.376 4.567 25.747 4.862 27.69 6.733C29.074 8.066 29.757 10.683 29.182 12.447C28.81 13.586 27.968 14.26 26.682 14.451C26.093 14.477 25.742 14.513 25.742 14.513C25.106 14.581 24.634 15.134 24.667 15.772C24.701 16.41 25.228 16.91 25.866 16.91C26.22 16.91 26.567 16.889 26.895 16.847C27.155 16.837 27.459 16.829 27.798 16.829C31.034 16.829 36.463 17.449 36.463 21.601C36.463 26.374 33.992 26.771 30.214 26.777H6.09401C5.48301 26.523 3.15001 25.295 3.15001 21.388C3.14901 16.257 8.39401 14.452 13.021 12.86ZM34.145 29.182L30.21 47.507H10.041L6.10701 29.182H30.109C30.19 29.182 30.279 29.182 30.363 29.182H34.145Z" fill="#2B2622"/>
<path d="M16.503 33.316C16.389 32.663 15.767 32.222 15.113 32.337C14.459 32.452 14.021 33.073 14.134 33.728L15.812 43.37C15.915 43.956 16.421 44.366 16.995 44.366C17.063 44.366 17.133 44.361 17.203 44.347C17.856 44.234 18.294 43.611 18.181 42.958L16.503 33.316Z" fill="#2B2622"/>
<path d="M25.988 32.34C25.329 32.221 24.713 32.663 24.598 33.319L22.92 42.962C22.807 43.614 23.243 44.237 23.898 44.351C23.968 44.363 24.037 44.37 24.106 44.37C24.679 44.37 25.186 43.958 25.289 43.374L26.967 33.732C27.079 33.075 26.643 32.452 25.988 32.34Z" fill="#2B2622"/>
</svg>
