<svg xmlns="http://www.w3.org/2000/svg" xmlns:xlink="http://www.w3.org/1999/xlink" version="1.1" x="0px" y="0px" viewBox="0 0 100 125" style="enable-background:new 0 0 100 100;" xml:space="preserve"><path d="M26.6982422,42.2773438c2.1435547,2.1435547,4.9589844,3.2148438,7.7744141,3.2148438  s5.6308594-1.0712891,7.7744141-3.2148438c4.2871094-4.2871094,4.2871094-11.2617188,0-15.5488281  s-11.2617188-4.2871094-15.5488281,0S22.4111328,37.9902344,26.6982422,42.2773438z M34.4726562,25.5126953  c2.3037109,0,4.6064453,0.8759766,6.3603516,2.6298828c3.5068359,3.5068359,3.5068359,9.2138672,0,12.7207031  c-3.5078125,3.5078125-9.2128906,3.5078125-12.7207031,0c-3.5068359-3.5068359-3.5068359-9.2138672,0-12.7207031  C29.8662109,26.3886719,32.1689453,25.5126953,34.4726562,25.5126953z"/><path d="M19.2265625,42.6826172c1.9560547-1.9560547,1.9560547-5.1376953,0-7.09375  c-1.9550781-1.9550781-5.1386719-1.9550781-7.09375,0c-1.9560547,1.9560547-1.9560547,5.1376953,0,7.09375  c0.9775391,0.9775391,2.2626953,1.4667969,3.546875,1.4667969S18.2490234,43.6601562,19.2265625,42.6826172z M13.546875,37.0029297  c0.5878906-0.5878906,1.3603516-0.8818359,2.1328125-0.8818359s1.5449219,0.2939453,2.1328125,0.8818359  c1.1757812,1.1757812,1.1757812,3.0898438,0,4.265625s-3.0898438,1.1757812-4.265625,0S12.3710938,38.1787109,13.546875,37.0029297z  "/><path d="M39.1054688,20.7236328c1.2841797,0,2.5693359-0.4892578,3.546875-1.4667969  c1.9560547-1.9560547,1.9560547-5.1376953,0-7.09375c-1.9550781-1.9550781-5.1386719-1.9550781-7.09375,0  c-1.9560547,1.9560547-1.9560547,5.1376953,0,7.09375C36.5361328,20.234375,37.8212891,20.7236328,39.1054688,20.7236328z   M36.9726562,13.5771484c0.5878906-0.5878906,1.3603516-0.8818359,2.1328125-0.8818359s1.5449219,0.2939453,2.1328125,0.8818359  c1.1757812,1.1757812,1.1757812,3.0898438,0,4.265625s-3.0898438,1.1757812-4.265625,0S35.796875,14.7529297,36.9726562,13.5771484z  "/><path d="M18.5791016,21.0595703c-2.6943359-1.9052734-6.1835938-1.6171875-7.7802734,0.640625  C9.2021484,23.9589844,10.0947266,27.3457031,12.7880859,29.25c1.1650391,0.8242188,2.5117188,1.2666016,3.8310547,1.2666016  c0.1210938,0,0.2431641-0.0029297,0.3652344-0.0107422c1.5136719-0.0957031,2.7871094-0.7695312,3.5839844-1.8974609  c0.7978516-1.1269531,1.0078125-2.5517578,0.5927734-4.0117188C20.7685547,23.2148438,19.8515625,21.9589844,18.5791016,21.0595703z   M18.9355469,27.4541016c-0.4414062,0.6240234-1.1787109,0.9990234-2.0771484,1.0556641  c-0.9785156,0.0576172-2.0146484-0.2558594-2.9160156-0.8925781c-1.7929688-1.2675781-2.4707031-3.4042969-1.5107422-4.7626953  c0.5019531-0.7089844,1.3515625-1.0673828,2.3056641-1.0673828c0.8720703,0,1.8310547,0.2998047,2.6875,0.9052734  c0.9003906,0.6367188,1.5449219,1.5068359,1.8134766,2.4511719C19.484375,26.0097656,19.3769531,26.8300781,18.9355469,27.4541016z"/><path d="M22.3701172,10.375c-2.4414062,1.3007812-3.1669922,4.7275391-1.6162109,7.6386719  c1.1435547,2.1484375,3.2119141,3.4267578,5.1982422,3.4257812c0.7050781,0,1.4003906-0.1611328,2.0400391-0.5009766  c2.4414062-1.3007812,3.1669922-4.7265625,1.6171875-7.6386719C28.0585938,10.3857422,24.8076172,9.0751953,22.3701172,10.375z   M27.0527344,19.1728516c-1.46875,0.78125-3.5019531-0.1601562-4.5332031-2.0986328  c-1.0322266-1.9384766-0.6777344-4.1513672,0.7900391-4.9335938c0.3505859-0.1865234,0.7333984-0.2744141,1.1269531-0.2744141  c1.2548828,0,2.6220703,0.8974609,3.4072266,2.3730469C28.875,16.1777344,28.5205078,18.390625,27.0527344,19.1728516z"/><path d="M26.7285156,57.7529297c-4.2871094,4.2871094-4.2871094,11.2617188,0,15.5488281  c2.1435547,2.1435547,4.9589844,3.2148438,7.7744141,3.2148438s5.6308594-1.0712891,7.7744141-3.2148438  c4.2871094-4.2871094,4.2871094-11.2617188,0-15.5488281S31.015625,53.4658203,26.7285156,57.7529297z M40.8632812,71.8876953  c-3.5078125,3.5078125-9.2128906,3.5078125-12.7207031,0c-3.5068359-3.5068359-3.5068359-9.2138672,0-12.7207031  c1.7539062-1.7539062,4.0566406-2.6298828,6.3603516-2.6298828s4.6064453,0.8759766,6.3603516,2.6298828  C44.3701172,62.6738281,44.3701172,68.3808594,40.8632812,71.8876953z"/><path d="M42.6826172,87.8671875c1.9560547-1.9560547,1.9560547-5.1376953,0-7.09375  c-1.9550781-1.9550781-5.1386719-1.9550781-7.09375,0c-1.9560547,1.9560547-1.9560547,5.1376953,0,7.09375  c0.9775391,0.9775391,2.2626953,1.4667969,3.546875,1.4667969S41.7050781,88.8447266,42.6826172,87.8671875z M37.0029297,82.1875  c0.5878906-0.5878906,1.3603516-0.8818359,2.1328125-0.8818359s1.5449219,0.2939453,2.1328125,0.8818359  c1.1757812,1.1757812,1.1757812,3.0898438,0,4.265625s-3.0898438,1.1757812-4.265625,0S35.8271484,83.3632812,37.0029297,82.1875z"/><path d="M15.7099609,65.9082031c1.2841797,0,2.5693359-0.4892578,3.546875-1.4667969  c1.9560547-1.9560547,1.9560547-5.1376953,0-7.09375c-1.9550781-1.9550781-5.1386719-1.9550781-7.09375,0  c-1.9560547,1.9560547-1.9560547,5.1376953,0,7.09375C13.140625,65.4189453,14.4257812,65.9082031,15.7099609,65.9082031z   M13.5771484,58.7617188c0.5878906-0.5878906,1.3603516-0.8818359,2.1328125-0.8818359s1.5449219,0.2939453,2.1328125,0.8818359  c1.1757812,1.1757812,1.1757812,3.0898438,0,4.265625s-3.0898438,1.1757812-4.265625,0S12.4013672,59.9375,13.5771484,58.7617188z"/><path d="M21.7001953,89.2011719c0.7597656,0.5371094,1.6474609,0.7929688,2.5625,0.7929688  c1.8066406,0,3.7236328-0.9951172,4.9873047-2.7822266c0.9003906-1.2724609,1.3457031-2.7626953,1.2558594-4.1962891  c-0.0957031-1.5136719-0.7695312-2.7871094-1.8974609-3.5839844c-1.1269531-0.796875-2.5498047-1.0097656-4.0117188-0.5927734  c-1.3818359,0.3925781-2.6376953,1.3095703-3.5371094,2.5820312C19.1552734,84.1142578,19.4423828,87.6044922,21.7001953,89.2011719  z M22.6923828,82.5751953c0.6367188-0.9003906,1.5068359-1.5449219,2.4511719-1.8134766  c0.3046875-0.0859375,0.6035156-0.1289062,0.8896484-0.1289062c0.5292969,0,1.0166016,0.1455078,1.4208984,0.4316406  c0.6240234,0.4414062,0.9990234,1.1787109,1.0556641,2.0771484c0.0615234,0.9794922-0.2558594,2.0146484-0.8925781,2.9160156  c-1.2675781,1.7929688-3.4042969,2.4697266-4.7626953,1.5107422C21.4970703,86.6083984,21.4248047,84.3681641,22.6923828,82.5751953  z"/><path d="M10.375,77.6298828c0.8369141,1.5722656,2.5546875,2.4326172,4.4501953,2.4326172  c1.0478516,0,2.1513672-0.2646484,3.1884766-0.8164062c2.9121094-1.5498047,4.2236328-4.796875,2.9248047-7.2382812  c-1.2998047-2.4404297-4.7255859-3.1669922-7.6386719-1.6171875C10.3876953,71.9414062,9.0761719,75.1884766,10.375,77.6298828z   M14.2392578,72.15625c0.75-0.3994141,1.5410156-0.5908203,2.2734375-0.5908203  c1.1630859,0,2.1806641,0.4814453,2.6601562,1.3818359c0.78125,1.4677734-0.1601562,3.5009766-2.0986328,4.5332031  c-1.9375,1.0332031-4.1513672,0.6767578-4.9335938-0.7900391C11.359375,75.2226562,12.3007812,73.1884766,14.2392578,72.15625z"/><path d="M73.3017578,57.7226562c-4.2871094-4.2871094-11.2617188-4.2871094-15.5488281,0s-4.2871094,11.2617188,0,15.5488281  c2.1435547,2.1435547,4.9589844,3.2148438,7.7744141,3.2148438s5.6308594-1.0712891,7.7744141-3.2148438  C77.5888672,68.984375,77.5888672,62.0097656,73.3017578,57.7226562z M59.1669922,71.8574219  c-3.5068359-3.5068359-3.5068359-9.2138672,0-12.7207031c1.7539062-1.7539062,4.0566406-2.6298828,6.3603516-2.6298828  s4.6064453,0.8759766,6.3603516,2.6298828c3.5068359,3.5068359,3.5068359,9.2138672,0,12.7207031  C68.3798828,75.3652344,62.6748047,75.3652344,59.1669922,71.8574219z"/><path d="M80.7734375,57.3173828c-1.9560547,1.9560547-1.9560547,5.1376953,0,7.09375  c0.9775391,0.9775391,2.2626953,1.4667969,3.546875,1.4667969s2.5693359-0.4892578,3.546875-1.4667969  c1.9560547-1.9560547,1.9560547-5.1376953,0-7.09375C85.9121094,55.3623047,82.7285156,55.3623047,80.7734375,57.3173828z   M86.453125,62.9970703c-1.1757812,1.1757812-3.0898438,1.1757812-4.265625,0s-1.1757812-3.0898438,0-4.265625  c0.5878906-0.5878906,1.3603516-0.8818359,2.1328125-0.8818359s1.5449219,0.2939453,2.1328125,0.8818359  C87.6289062,59.9072266,87.6289062,61.8212891,86.453125,62.9970703z"/><path d="M57.3476562,80.7431641c-1.9560547,1.9560547-1.9560547,5.1376953,0,7.09375  c0.9775391,0.9775391,2.2626953,1.4667969,3.546875,1.4667969s2.5693359-0.4892578,3.546875-1.4667969  c1.9560547-1.9560547,1.9560547-5.1376953,0-7.09375C62.4863281,78.7880859,59.3027344,78.7880859,57.3476562,80.7431641z   M63.0273438,86.4228516c-1.1757812,1.1757812-3.0898438,1.1757812-4.265625,0s-1.1757812-3.0898438,0-4.265625  c0.5878906-0.5878906,1.3603516-0.8818359,2.1328125-0.8818359s1.5449219,0.2939453,2.1328125,0.8818359  C64.203125,83.3330078,64.203125,85.2470703,63.0273438,86.4228516z"/><path d="M78.8388672,75.4033203c0.3925781,1.3818359,1.3095703,2.6376953,2.5820312,3.5371094  c1.1972656,0.8466797,2.5517578,1.2597656,3.8271484,1.2597656c1.5947266,0,3.0664062-0.6455078,3.953125-1.9003906  c1.5966797-2.2587891,0.7041016-5.6455078-1.9892578-7.5498047c-1.2714844-0.8994141-2.7412109-1.3486328-4.1962891-1.2558594  c-1.5136719,0.0957031-2.7871094,0.7695312-3.5839844,1.8974609C78.6337891,72.5185547,78.4238281,73.9433594,78.8388672,75.4033203  z M81.0644531,72.5458984c0.4414062-0.6240234,1.1787109-0.9990234,2.0771484-1.0556641  c0.0800781-0.0048828,0.1611328-0.0078125,0.2421875-0.0078125c0.9052734,0,1.8466797,0.3154297,2.6738281,0.9003906  c1.7929688,1.2675781,2.4707031,3.4042969,1.5107422,4.7626953c-0.9599609,1.3574219-3.1982422,1.4306641-4.9931641,0.1621094  c-0.9003906-0.6367188-1.5449219-1.5068359-1.8134766-2.4511719C80.515625,73.9902344,80.6230469,73.1699219,81.0644531,72.5458984z  "/><path d="M72.0078125,79.0615234c-2.4414062,1.3007812-3.1669922,4.7265625-1.6171875,7.6386719  c1.1435547,2.1494141,3.2119141,3.4267578,5.1982422,3.4267578c0.7060547,0,1.4013672-0.1611328,2.0410156-0.5019531  c2.4414062-1.3007812,3.1669922-4.7275391,1.6162109-7.6386719C77.6962891,79.0751953,74.4501953,77.7646484,72.0078125,79.0615234z   M76.6904297,87.859375c-1.4697266,0.78125-3.5029297-0.1601562-4.5341797-2.0986328s-0.6767578-4.1513672,0.7910156-4.9335938  c0.3505859-0.1865234,0.7333984-0.2744141,1.1269531-0.2744141c1.2548828,0,2.6210938,0.8974609,3.40625,2.3730469  C78.5126953,84.8642578,78.1582031,87.0771484,76.6904297,87.859375z"/><path d="M57.7226562,42.2470703c2.1435547,2.1435547,4.9589844,3.2148438,7.7744141,3.2148438  s5.6308594-1.0712891,7.7744141-3.2148438c4.2871094-4.2871094,4.2871094-11.2617188,0-15.5488281  s-11.2617188-4.2871094-15.5488281,0S53.4355469,37.9599609,57.7226562,42.2470703z M59.1367188,28.1123047  c1.7539062-1.7539062,4.0566406-2.6298828,6.3603516-2.6298828s4.6064453,0.8759766,6.3603516,2.6298828  c3.5068359,3.5068359,3.5068359,9.2138672,0,12.7207031c-3.5078125,3.5078125-9.2128906,3.5078125-12.7207031,0  C55.6298828,37.3261719,55.6298828,31.6191406,59.1367188,28.1123047z"/><path d="M64.4111328,19.2265625c1.9560547-1.9560547,1.9560547-5.1376953,0-7.09375  c-1.9550781-1.9550781-5.1386719-1.9550781-7.09375,0c-1.9560547,1.9560547-1.9560547,5.1376953,0,7.09375  c0.9775391,0.9775391,2.2626953,1.4667969,3.546875,1.4667969S63.4335938,20.2041016,64.4111328,19.2265625z M58.7314453,13.546875  c0.5878906-0.5878906,1.3603516-0.8818359,2.1328125-0.8818359s1.5449219,0.2939453,2.1328125,0.8818359  c1.1757812,1.1757812,1.1757812,3.0898438,0,4.265625s-3.0898438,1.1757812-4.265625,0S57.5556641,14.7226562,58.7314453,13.546875z  "/><path d="M80.7431641,35.5585938c-1.9560547,1.9560547-1.9560547,5.1376953,0,7.09375  c0.9775391,0.9775391,2.2626953,1.4667969,3.546875,1.4667969s2.5693359-0.4892578,3.546875-1.4667969  c1.9560547-1.9560547,1.9560547-5.1376953,0-7.09375C85.8818359,33.6035156,82.6982422,33.6035156,80.7431641,35.5585938z   M86.4228516,41.2382812c-1.1757812,1.1757812-3.0898438,1.1757812-4.265625,0s-1.1757812-3.0898438,0-4.265625  c0.5878906-0.5878906,1.3603516-0.8818359,2.1328125-0.8818359s1.5449219,0.2939453,2.1328125,0.8818359  C87.5986328,38.1484375,87.5986328,40.0625,86.4228516,41.2382812z"/><path d="M78.2998047,10.7988281c-2.2597656-1.5976562-5.6464844-0.703125-7.5498047,1.9892578  c-0.9003906,1.2724609-1.3457031,2.7626953-1.2558594,4.1962891c0.0957031,1.5136719,0.7695312,2.7871094,1.8974609,3.5839844  c0.75,0.5302734,1.6308594,0.8007812,2.5664062,0.8007812c0.4707031,0,0.9560547-0.0683594,1.4453125-0.2080078  c1.3818359-0.3925781,2.6376953-1.3095703,3.5371094-2.5820312C80.8447266,15.8857422,80.5576172,12.3955078,78.2998047,10.7988281z   M77.3076172,17.4248047c-0.6367188,0.9003906-1.5068359,1.5449219-2.4511719,1.8134766  c-0.8681641,0.2451172-1.6884766,0.1386719-2.3105469-0.3027344c-0.6240234-0.4414062-0.9990234-1.1787109-1.0556641-2.0771484  c-0.0615234-0.9794922,0.2558594-2.0146484,0.8925781-2.9160156c0.8769531-1.2402344,2.1699219-1.9462891,3.3330078-1.9462891  c0.5185547,0,1.0107422,0.1396484,1.4296875,0.4355469C78.5029297,13.3916016,78.5751953,15.6318359,77.3076172,17.4248047z"/><path d="M81.9863281,20.7539062c-2.9121094,1.5498047-4.2236328,4.796875-2.9248047,7.2382812  c0.8369141,1.5722656,2.5556641,2.4326172,4.4511719,2.4326172c1.0478516,0,2.1503906-0.2636719,3.1875-0.8154297  c2.9121094-1.5507812,4.2236328-4.7978516,2.9248047-7.2392578C88.3251953,19.9287109,84.9003906,19.2050781,81.9863281,20.7539062z   M85.7607422,27.84375c-1.9394531,1.0341797-4.1523438,0.6767578-4.9335938-0.7910156s0.1601562-3.5009766,2.0986328-4.5332031  c0.75-0.3994141,1.5410156-0.5917969,2.2744141-0.5917969c1.1621094,0,2.1796875,0.4824219,2.6591797,1.3818359  C88.640625,24.7773438,87.6992188,26.8115234,85.7607422,27.84375z"/><text x="0" y="115" fill="#000000" font-size="5px" font-weight="bold" font-family="'Helvetica Neue', Helvetica, Arial-Unicode, Arial, Sans-serif">Created by Made x Made</text><text x="0" y="120" fill="#000000" font-size="5px" font-weight="bold" font-family="'Helvetica Neue', Helvetica, Arial-Unicode, Arial, Sans-serif">from the Noun Project</text></svg>