<?xml version="1.0" encoding="utf-8"?>
<!-- Generator: Adobe Illustrator 23.0.0, SVG Export Plug-In . SVG Version: 6.00 Build 0)  -->
<svg version="1.1" xmlns="http://www.w3.org/2000/svg" xmlns:xlink="http://www.w3.org/1999/xlink" x="0px" y="0px"
	 viewBox="0 0 481 481" style="enable-background:new 0 0 481 481;" xml:space="preserve">
<style type="text/css">
	.st0{fill:#FFFFFF;stroke:#000000;stroke-miterlimit:10;}
</style>
<g id="Capa_1">
	<path d="M353.7,7.3c-9.8-9.8-25.6-9.8-35.3,0c-9.8,9.8-9.8,25.6,0,35.3l6.3,6.3l-136,136h-74.8c-8.5,0-16.6,3.4-22.6,9.4
		c-12.5,12.5-12.5,32.8,0,45.3l57.4,57.4l-115,115c-16.3,16.3-27.8,36.7-33.4,59c-0.7,2.7,0.1,5.6,2.1,7.6c2,2,4.9,2.8,7.6,2.1
		c22.3-5.6,42.8-17.1,59-33.4l115-115l57.4,57.4c12.5,12.5,32.8,12.5,45.2,0c6-6,9.4-14.1,9.4-22.6v-74.8l136-136l6.3,6.3
		c9.8,9.8,25.6,9.8,35.3,0s9.8-25.6,0-35.3L353.7,7.3z M57.7,436c-10.6,10.6-23.3,19-37.3,24.6c5.6-14,13.9-26.6,24.6-37.3l115-115
		l12.7,12.7L57.7,436z M462.3,151.3c-3.5,3.4-9.1,3.4-12.7,0l-12-12c-3.1-3.1-8.2-3.1-11.3,0l-144,144c-1.5,1.5-2.3,3.5-2.3,5.7V367
		c0,4.2-1.7,8.3-4.7,11.3c-6.3,6-16.3,6-22.6,0L102.6,228.3c-6.2-6.2-6.2-16.4,0-22.6c3-3,7.1-4.7,11.3-4.7H192
		c2.1,0,4.2-0.8,5.7-2.3l144-144c3.1-3.1,3.1-8.2,0-11.3l-12-12c-3.5-3.5-3.5-9.2,0-12.7c3.6-3.4,9.1-3.4,12.7,0l120,120
		C465.8,142.1,465.8,147.8,462.3,151.3z"/>
</g>
<g id="Capa_2">
	<path class="st0" d="M160.7,294.3L30,427.5c0,0-20.7,33.3-22,43.3c-1.3,10,47.6-21.4,47.6-21.4L186,319.7L160.7,294.3z"/>
	<path class="st0" d="M96.5,229.8l154.4,155.1c0,0,8.8,9.3,23.2,3c3.8-1.7,12.4-6.7,12.8-14.6c1.8-34.2,0-84.2,0-84.2l144.6-142.8
		c0,0,24.8,23.8,33.5,12.8c11.3-14.3,6.8-23.2-7.8-39.1S353.4,16.1,353.4,16.1s-14.6-19.3-31.7-3.5s12.2,34.8,12.2,34.8L191.7,192.6
		l-79.9,0.6C111.8,193.2,77,203.6,96.5,229.8z"/>
</g>
</svg>
