<svg width="53" height="47" viewBox="0 0 53 47" fill="none" xmlns="http://www.w3.org/2000/svg">
<path d="M26.472 2.07C12.742 2.07 1.61099 10.146 1.61099 20.108C1.61099 25.621 5.02399 30.553 10.395 33.861L6.495 45.142L17.959 37.06C20.615 37.76 23.482 38.146 26.474 38.146C40.204 38.146 51.335 30.07 51.335 20.106C51.333 10.146 40.202 2.07 26.472 2.07Z" fill="white"/>
<path d="M49.058 12.44C49.534 12.44 49.917 12.055 49.917 11.58C49.917 11.104 49.532 10.719 49.058 10.719C48.582 10.719 48.199 11.104 48.199 11.58C48.197 12.055 48.582 12.44 49.058 12.44Z" fill="#FF5A5D"/>
<path d="M49.058 15.452C49.534 15.452 49.917 15.067 49.917 14.592C49.917 14.116 49.532 13.731 49.058 13.731C48.582 13.731 48.199 14.116 48.199 14.592C48.197 15.066 48.582 15.452 49.058 15.452Z" fill="#FF5A5D"/>
<path d="M49.058 18.463C49.534 18.463 49.917 18.078 49.917 17.603C49.917 17.127 49.532 16.742 49.058 16.742C48.582 16.742 48.199 17.127 48.199 17.603C48.197 18.078 48.582 18.463 49.058 18.463Z" fill="#FF5A5D"/>
<path d="M49.058 21.475C49.534 21.475 49.917 21.089 49.917 20.615C49.917 20.139 49.532 19.754 49.058 19.754C48.582 19.754 48.199 20.139 48.199 20.615C48.197 21.089 48.582 21.475 49.058 21.475Z" fill="#FF5A5D"/>
<path d="M49.058 24.486C49.534 24.486 49.917 24.101 49.917 23.625C49.917 23.149 49.532 22.765 49.058 22.765C48.582 22.765 48.199 23.15 48.199 23.625C48.197 24.102 48.582 24.486 49.058 24.486Z" fill="#FF5A5D"/>
<path d="M49.058 27.498C49.534 27.498 49.917 27.111 49.917 26.637C49.917 26.163 49.532 25.776 49.058 25.776C48.582 25.776 48.199 26.164 48.199 26.637C48.198 27.111 48.582 27.498 49.058 27.498Z" fill="#FF5A5D"/>
<path d="M46.046 13.946C46.522 13.946 46.906 13.561 46.906 13.086C46.906 12.61 46.519 12.225 46.046 12.225C45.573 12.225 45.186 12.61 45.186 13.086C45.186 13.561 45.571 13.946 46.046 13.946Z" fill="#FF5A5D"/>
<path d="M46.046 16.958C46.522 16.958 46.906 16.573 46.906 16.098C46.906 15.622 46.519 15.237 46.046 15.237C45.573 15.237 45.186 15.622 45.186 16.098C45.186 16.572 45.571 16.958 46.046 16.958Z" fill="#FF5A5D"/>
<path d="M46.046 19.969C46.522 19.969 46.906 19.584 46.906 19.109C46.906 18.633 46.519 18.248 46.046 18.248C45.573 18.248 45.186 18.633 45.186 19.109C45.186 19.584 45.571 19.969 46.046 19.969Z" fill="#FF5A5D"/>
<path d="M46.046 22.981C46.522 22.981 46.906 22.595 46.906 22.12C46.906 21.645 46.519 21.26 46.046 21.26C45.573 21.26 45.186 21.645 45.186 22.12C45.186 22.595 45.571 22.981 46.046 22.981Z" fill="#FF5A5D"/>
<path d="M46.046 10.935C46.522 10.935 46.906 10.55 46.906 10.075C46.906 9.599 46.519 9.214 46.046 9.214C45.573 9.214 45.186 9.599 45.186 10.075C45.186 10.549 45.571 10.935 46.046 10.935Z" fill="#FF5A5D"/>
<path d="M46.046 25.992C46.522 25.992 46.906 25.607 46.906 25.131C46.906 24.656 46.519 24.272 46.046 24.272C45.573 24.272 45.186 24.658 45.186 25.131C45.186 25.607 45.571 25.992 46.046 25.992Z" fill="#FF5A5D"/>
<path d="M46.046 29.004C46.522 29.004 46.906 28.617 46.906 28.143C46.906 27.669 46.519 27.283 46.046 27.283C45.573 27.283 45.186 27.67 45.186 28.143C45.186 28.617 45.571 29.004 46.046 29.004Z" fill="#FF5A5D"/>
<path d="M43.034 12.44C43.51 12.44 43.893 12.055 43.893 11.58C43.893 11.104 43.508 10.719 43.034 10.719C42.558 10.719 42.175 11.104 42.175 11.58C42.175 12.055 42.56 12.44 43.034 12.44Z" fill="#FF5A5D"/>
<path d="M43.034 15.452C43.51 15.452 43.893 15.067 43.893 14.592C43.893 14.116 43.508 13.731 43.034 13.731C42.558 13.731 42.175 14.116 42.175 14.592C42.175 15.066 42.56 15.452 43.034 15.452Z" fill="#FF5A5D"/>
<path d="M43.034 18.463C43.51 18.463 43.893 18.078 43.893 17.603C43.893 17.127 43.508 16.742 43.034 16.742C42.558 16.742 42.175 17.127 42.175 17.603C42.175 18.078 42.56 18.463 43.034 18.463Z" fill="#FF5A5D"/>
<path d="M43.034 21.475C43.51 21.475 43.893 21.089 43.893 20.615C43.893 20.139 43.508 19.754 43.034 19.754C42.558 19.754 42.175 20.139 42.175 20.615C42.175 21.089 42.56 21.475 43.034 21.475Z" fill="#FF5A5D"/>
<path d="M43.034 9.429C43.51 9.429 43.893 9.044 43.893 8.569C43.893 8.093 43.508 7.708 43.034 7.708C42.558 7.708 42.175 8.093 42.175 8.569C42.175 9.043 42.56 9.429 43.034 9.429Z" fill="#FF5A5D"/>
<path d="M43.034 30.508C43.51 30.508 43.893 30.123 43.893 29.649C43.893 29.172 43.508 28.789 43.034 28.789C42.558 28.789 42.175 29.174 42.175 29.649C42.175 30.123 42.56 30.508 43.034 30.508Z" fill="#FF5A5D"/>
<path d="M43.034 24.486C43.51 24.486 43.893 24.101 43.893 23.625C43.893 23.149 43.508 22.765 43.034 22.765C42.558 22.765 42.175 23.15 42.175 23.625C42.175 24.102 42.56 24.486 43.034 24.486Z" fill="#FF5A5D"/>
<path d="M43.034 27.498C43.51 27.498 43.893 27.111 43.893 26.637C43.893 26.163 43.508 25.776 43.034 25.776C42.558 25.776 42.175 26.164 42.175 26.637C42.175 27.111 42.56 27.498 43.034 27.498Z" fill="#FF5A5D"/>
<path d="M40.023 13.946C40.498 13.946 40.881 13.561 40.881 13.086C40.881 12.61 40.496 12.225 40.023 12.225C39.546 12.225 39.163 12.61 39.163 13.086C39.163 13.561 39.548 13.946 40.023 13.946Z" fill="#FF5A5D"/>
<path d="M40.023 16.958C40.498 16.958 40.881 16.573 40.881 16.098C40.881 15.622 40.496 15.237 40.023 15.237C39.546 15.237 39.163 15.622 39.163 16.098C39.163 16.572 39.548 16.958 40.023 16.958Z" fill="#FF5A5D"/>
<path d="M40.023 19.969C40.498 19.969 40.881 19.584 40.881 19.109C40.881 18.633 40.496 18.248 40.023 18.248C39.546 18.248 39.163 18.633 39.163 19.109C39.163 19.584 39.548 19.969 40.023 19.969Z" fill="#FF5A5D"/>
<path d="M40.023 22.981C40.498 22.981 40.881 22.595 40.881 22.12C40.881 21.645 40.496 21.26 40.023 21.26C39.546 21.26 39.163 21.645 39.163 22.12C39.163 22.595 39.548 22.981 40.023 22.981Z" fill="#FF5A5D"/>
<path d="M40.023 7.923C40.498 7.923 40.881 7.538 40.881 7.063C40.881 6.587 40.496 6.202 40.023 6.202C39.546 6.202 39.163 6.587 39.163 7.063C39.163 7.538 39.548 7.923 40.023 7.923Z" fill="#FF5A5D"/>
<path d="M40.023 10.935C40.498 10.935 40.881 10.55 40.881 10.075C40.881 9.599 40.496 9.214 40.023 9.214C39.546 9.214 39.163 9.599 39.163 10.075C39.163 10.549 39.548 10.935 40.023 10.935Z" fill="#FF5A5D"/>
<path d="M40.023 32.014C40.498 32.014 40.881 31.629 40.881 31.155C40.881 30.678 40.496 30.295 40.023 30.295C39.546 30.295 39.163 30.681 39.163 31.155C39.163 31.629 39.548 32.014 40.023 32.014Z" fill="#FF5A5D"/>
<path d="M40.023 25.992C40.498 25.992 40.881 25.607 40.881 25.131C40.881 24.656 40.496 24.272 40.023 24.272C39.546 24.272 39.163 24.658 39.163 25.131C39.163 25.607 39.548 25.992 40.023 25.992Z" fill="#FF5A5D"/>
<path d="M40.023 29.004C40.498 29.004 40.881 28.617 40.881 28.143C40.881 27.669 40.496 27.283 40.023 27.283C39.546 27.283 39.163 27.67 39.163 28.143C39.163 28.617 39.548 29.004 40.023 29.004Z" fill="#FF5A5D"/>
<path d="M37.012 12.44C37.488 12.44 37.872 12.055 37.872 11.58C37.872 11.104 37.486 10.719 37.012 10.719C36.536 10.719 36.153 11.104 36.153 11.58C36.151 12.055 36.536 12.44 37.012 12.44Z" fill="#FF5A5D"/>
<path d="M37.012 15.452C37.488 15.452 37.872 15.067 37.872 14.592C37.872 14.116 37.486 13.731 37.012 13.731C36.536 13.731 36.153 14.116 36.153 14.592C36.151 15.066 36.536 15.452 37.012 15.452Z" fill="#FF5A5D"/>
<path d="M37.012 18.463C37.488 18.463 37.872 18.078 37.872 17.603C37.872 17.127 37.486 16.742 37.012 16.742C36.536 16.742 36.153 17.127 36.153 17.603C36.151 18.078 36.536 18.463 37.012 18.463Z" fill="#FF5A5D"/>
<path d="M37.012 21.475C37.488 21.475 37.872 21.089 37.872 20.615C37.872 20.139 37.486 19.754 37.012 19.754C36.536 19.754 36.153 20.139 36.153 20.615C36.151 21.089 36.536 21.475 37.012 21.475Z" fill="#FF5A5D"/>
<path d="M37.012 6.417C37.488 6.417 37.872 6.032 37.872 5.557C37.872 5.081 37.486 4.696 37.012 4.696C36.536 4.696 36.153 5.081 36.153 5.557C36.151 6.032 36.536 6.417 37.012 6.417Z" fill="#FF5A5D"/>
<path d="M37.012 9.429C37.488 9.429 37.872 9.044 37.872 8.569C37.872 8.093 37.486 7.708 37.012 7.708C36.536 7.708 36.153 8.093 36.153 8.569C36.151 9.043 36.536 9.429 37.012 9.429Z" fill="#FF5A5D"/>
<path d="M37.012 30.508C37.488 30.508 37.872 30.123 37.872 29.649C37.872 29.172 37.486 28.789 37.012 28.789C36.536 28.789 36.153 29.174 36.153 29.649C36.151 30.123 36.536 30.508 37.012 30.508Z" fill="#FF5A5D"/>
<path d="M37.012 33.52C37.488 33.52 37.872 33.135 37.872 32.662C37.872 32.184 37.486 31.801 37.012 31.801C36.536 31.801 36.153 32.187 36.153 32.662C36.151 33.135 36.536 33.52 37.012 33.52Z" fill="#FF5A5D"/>
<path d="M37.012 24.486C37.488 24.486 37.872 24.101 37.872 23.625C37.872 23.149 37.486 22.765 37.012 22.765C36.536 22.765 36.153 23.15 36.153 23.625C36.151 24.102 36.536 24.486 37.012 24.486Z" fill="#FF5A5D"/>
<path d="M37.012 27.498C37.488 27.498 37.872 27.111 37.872 26.637C37.872 26.163 37.486 25.776 37.012 25.776C36.536 25.776 36.153 26.164 36.153 26.637C36.152 27.111 36.536 27.498 37.012 27.498Z" fill="#FF5A5D"/>
<path d="M34 13.946C34.476 13.946 34.86 13.561 34.86 13.086C34.86 12.61 34.474 12.225 34 12.225C33.526 12.225 33.14 12.61 33.14 13.086C33.14 13.561 33.525 13.946 34 13.946Z" fill="#FF5A5D"/>
<path d="M34 16.958C34.476 16.958 34.86 16.573 34.86 16.098C34.86 15.622 34.474 15.237 34 15.237C33.526 15.237 33.14 15.622 33.14 16.098C33.14 16.572 33.525 16.958 34 16.958Z" fill="#FF5A5D"/>
<path d="M34 19.969C34.476 19.969 34.86 19.584 34.86 19.109C34.86 18.633 34.474 18.248 34 18.248C33.526 18.248 33.14 18.633 33.14 19.109C33.14 19.584 33.525 19.969 34 19.969Z" fill="#FF5A5D"/>
<path d="M34 22.981C34.476 22.981 34.86 22.595 34.86 22.12C34.86 21.645 34.474 21.26 34 21.26C33.526 21.26 33.14 21.645 33.14 22.12C33.14 22.595 33.525 22.981 34 22.981Z" fill="#FF5A5D"/>
<path d="M34 4.912C34.476 4.912 34.86 4.527 34.86 4.052C34.86 3.576 34.474 3.191 34 3.191C33.526 3.191 33.14 3.576 33.14 4.052C33.14 4.526 33.525 4.912 34 4.912Z" fill="#FF5A5D"/>
<path d="M34 7.923C34.476 7.923 34.86 7.538 34.86 7.063C34.86 6.587 34.474 6.202 34 6.202C33.526 6.202 33.14 6.587 33.14 7.063C33.14 7.538 33.525 7.923 34 7.923Z" fill="#FF5A5D"/>
<path d="M34 10.935C34.476 10.935 34.86 10.55 34.86 10.075C34.86 9.599 34.474 9.214 34 9.214C33.526 9.214 33.14 9.599 33.14 10.075C33.14 10.549 33.525 10.935 34 10.935Z" fill="#FF5A5D"/>
<path d="M34 32.014C34.476 32.014 34.86 31.629 34.86 31.155C34.86 30.678 34.474 30.295 34 30.295C33.526 30.295 33.14 30.681 33.14 31.155C33.14 31.629 33.525 32.014 34 32.014Z" fill="#FF5A5D"/>
<path d="M34 35.025C34.476 35.025 34.86 34.64 34.86 34.166C34.86 33.689 34.474 33.305 34 33.305C33.526 33.305 33.14 33.69 33.14 34.166C33.14 34.641 33.525 35.025 34 35.025Z" fill="#FF5A5D"/>
<path d="M34 25.992C34.476 25.992 34.86 25.607 34.86 25.131C34.86 24.656 34.474 24.272 34 24.272C33.526 24.272 33.14 24.658 33.14 25.131C33.14 25.607 33.525 25.992 34 25.992Z" fill="#FF5A5D"/>
<path d="M34 29.004C34.476 29.004 34.86 28.617 34.86 28.143C34.86 27.669 34.474 27.283 34 27.283C33.526 27.283 33.14 27.67 33.14 28.143C33.14 28.617 33.525 29.004 34 29.004Z" fill="#FF5A5D"/>
<path d="M30.988 12.44C31.464 12.44 31.847 12.055 31.847 11.58C31.847 11.104 31.462 10.719 30.988 10.719C30.512 10.719 30.128 11.104 30.128 11.58C30.128 12.055 30.514 12.44 30.988 12.44Z" fill="#FF5A5D"/>
<path d="M30.988 15.452C31.464 15.452 31.847 15.067 31.847 14.592C31.847 14.116 31.462 13.731 30.988 13.731C30.512 13.731 30.128 14.116 30.128 14.592C30.128 15.066 30.514 15.452 30.988 15.452Z" fill="#FF5A5D"/>
<path d="M30.988 18.463C31.464 18.463 31.847 18.078 31.847 17.603C31.847 17.127 31.462 16.742 30.988 16.742C30.512 16.742 30.128 17.127 30.128 17.603C30.128 18.078 30.514 18.463 30.988 18.463Z" fill="#FF5A5D"/>
<path d="M30.988 21.475C31.464 21.475 31.847 21.089 31.847 20.615C31.847 20.139 31.462 19.754 30.988 19.754C30.512 19.754 30.128 20.139 30.128 20.615C30.128 21.089 30.514 21.475 30.988 21.475Z" fill="#FF5A5D"/>
<path d="M30.988 3.406C31.464 3.406 31.847 3.021 31.847 2.546C31.847 2.07 31.462 1.685 30.988 1.685C30.512 1.685 30.128 2.07 30.128 2.546C30.128 3.021 30.514 3.406 30.988 3.406Z" fill="#FF5A5D"/>
<path d="M30.988 6.417C31.464 6.417 31.847 6.032 31.847 5.557C31.847 5.081 31.462 4.696 30.988 4.696C30.512 4.696 30.128 5.081 30.128 5.557C30.128 6.032 30.514 6.417 30.988 6.417Z" fill="#FF5A5D"/>
<path d="M30.988 9.429C31.464 9.429 31.847 9.044 31.847 8.569C31.847 8.093 31.462 7.708 30.988 7.708C30.512 7.708 30.128 8.093 30.128 8.569C30.128 9.043 30.514 9.429 30.988 9.429Z" fill="#FF5A5D"/>
<path d="M30.988 30.508C31.464 30.508 31.847 30.123 31.847 29.649C31.847 29.172 31.462 28.789 30.988 28.789C30.512 28.789 30.128 29.174 30.128 29.649C30.128 30.123 30.514 30.508 30.988 30.508Z" fill="#FF5A5D"/>
<path d="M30.988 33.52C31.464 33.52 31.847 33.135 31.847 32.662C31.847 32.184 31.462 31.801 30.988 31.801C30.512 31.801 30.128 32.187 30.128 32.662C30.128 33.135 30.514 33.52 30.988 33.52Z" fill="#FF5A5D"/>
<path d="M30.988 36.531C31.464 36.531 31.847 36.146 31.847 35.672C31.847 35.195 31.462 34.811 30.988 34.811C30.512 34.811 30.128 35.196 30.128 35.672C30.128 36.146 30.514 36.531 30.988 36.531Z" fill="#FF5A5D"/>
<path d="M30.988 24.486C31.464 24.486 31.847 24.101 31.847 23.625C31.847 23.149 31.462 22.765 30.988 22.765C30.512 22.765 30.128 23.15 30.128 23.625C30.128 24.102 30.514 24.486 30.988 24.486Z" fill="#FF5A5D"/>
<path d="M30.988 27.498C31.464 27.498 31.847 27.111 31.847 26.637C31.847 26.163 31.462 25.776 30.988 25.776C30.512 25.776 30.128 26.164 30.128 26.637C30.128 27.111 30.514 27.498 30.988 27.498Z" fill="#FF5A5D"/>
<path d="M27.978 13.946C28.454 13.946 28.837 13.561 28.837 13.086C28.837 12.61 28.452 12.225 27.978 12.225C27.502 12.225 27.119 12.61 27.119 13.086C27.117 13.561 27.502 13.946 27.978 13.946Z" fill="#FF5A5D"/>
<path d="M27.978 16.958C28.454 16.958 28.837 16.573 28.837 16.098C28.837 15.622 28.452 15.237 27.978 15.237C27.502 15.237 27.119 15.622 27.119 16.098C27.117 16.572 27.502 16.958 27.978 16.958Z" fill="#FF5A5D"/>
<path d="M27.978 19.969C28.454 19.969 28.837 19.584 28.837 19.109C28.837 18.633 28.452 18.248 27.978 18.248C27.502 18.248 27.119 18.633 27.119 19.109C27.117 19.584 27.502 19.969 27.978 19.969Z" fill="#FF5A5D"/>
<path d="M27.978 22.981C28.454 22.981 28.837 22.595 28.837 22.12C28.837 21.645 28.452 21.26 27.978 21.26C27.502 21.26 27.119 21.645 27.119 22.12C27.119 22.595 27.502 22.981 27.978 22.981Z" fill="#FF5A5D"/>
<path d="M27.978 4.912C28.454 4.912 28.837 4.527 28.837 4.052C28.837 3.576 28.452 3.191 27.978 3.191C27.502 3.191 27.119 3.576 27.119 4.052C27.117 4.526 27.502 4.912 27.978 4.912Z" fill="#FF5A5D"/>
<path d="M27.978 7.923C28.454 7.923 28.837 7.538 28.837 7.063C28.837 6.587 28.452 6.202 27.978 6.202C27.502 6.202 27.119 6.587 27.119 7.063C27.117 7.538 27.502 7.923 27.978 7.923Z" fill="#FF5A5D"/>
<path d="M27.978 10.935C28.454 10.935 28.837 10.55 28.837 10.075C28.837 9.599 28.452 9.214 27.978 9.214C27.502 9.214 27.119 9.599 27.119 10.075C27.117 10.549 27.502 10.935 27.978 10.935Z" fill="#FF5A5D"/>
<path d="M27.978 32.014C28.454 32.014 28.837 31.629 28.837 31.155C28.837 30.678 28.452 30.295 27.978 30.295C27.502 30.295 27.119 30.681 27.119 31.155C27.117 31.629 27.502 32.014 27.978 32.014Z" fill="#FF5A5D"/>
<path d="M27.978 35.025C28.454 35.025 28.837 34.64 28.837 34.166C28.837 33.689 28.452 33.305 27.978 33.305C27.502 33.305 27.119 33.69 27.119 34.166C27.117 34.641 27.502 35.025 27.978 35.025Z" fill="#FF5A5D"/>
<path d="M27.978 25.992C28.454 25.992 28.837 25.607 28.837 25.131C28.837 24.656 28.452 24.272 27.978 24.272C27.502 24.272 27.119 24.658 27.119 25.131C27.117 25.607 27.502 25.992 27.978 25.992Z" fill="#FF5A5D"/>
<path d="M27.978 29.004C28.454 29.004 28.837 28.617 28.837 28.143C28.837 27.669 28.452 27.283 27.978 27.283C27.502 27.283 27.119 27.67 27.119 28.143C27.118 28.617 27.502 29.004 27.978 29.004Z" fill="#FF5A5D"/>
<path d="M24.966 12.44C25.442 12.44 25.825 12.055 25.825 11.58C25.825 11.104 25.44 10.719 24.966 10.719C24.49 10.719 24.107 11.104 24.107 11.58C24.105 12.055 24.49 12.44 24.966 12.44Z" fill="#FF5A5D"/>
<path d="M24.966 15.452C25.442 15.452 25.825 15.067 25.825 14.592C25.825 14.116 25.44 13.731 24.966 13.731C24.49 13.731 24.107 14.116 24.107 14.592C24.105 15.066 24.49 15.452 24.966 15.452Z" fill="#FF5A5D"/>
<path d="M24.966 18.463C25.442 18.463 25.825 18.078 25.825 17.603C25.825 17.127 25.44 16.742 24.966 16.742C24.49 16.742 24.107 17.127 24.107 17.603C24.105 18.078 24.49 18.463 24.966 18.463Z" fill="#FF5A5D"/>
<path d="M24.966 21.475C25.442 21.475 25.825 21.089 25.825 20.615C25.825 20.139 25.44 19.754 24.966 19.754C24.49 19.754 24.107 20.139 24.107 20.615C24.105 21.089 24.49 21.475 24.966 21.475Z" fill="#FF5A5D"/>
<path d="M24.966 3.406C25.442 3.406 25.825 3.021 25.825 2.546C25.825 2.07 25.44 1.685 24.966 1.685C24.49 1.685 24.107 2.07 24.107 2.546C24.105 3.021 24.49 3.406 24.966 3.406Z" fill="#FF5A5D"/>
<path d="M24.966 6.417C25.442 6.417 25.825 6.032 25.825 5.557C25.825 5.081 25.44 4.696 24.966 4.696C24.49 4.696 24.107 5.081 24.107 5.557C24.105 6.032 24.49 6.417 24.966 6.417Z" fill="#FF5A5D"/>
<path d="M24.966 9.429C25.442 9.429 25.825 9.044 25.825 8.569C25.825 8.093 25.44 7.708 24.966 7.708C24.49 7.708 24.107 8.093 24.107 8.569C24.105 9.043 24.49 9.429 24.966 9.429Z" fill="#FF5A5D"/>
<path d="M24.966 30.508C25.442 30.508 25.825 30.123 25.825 29.649C25.825 29.172 25.44 28.789 24.966 28.789C24.49 28.789 24.107 29.174 24.107 29.649C24.105 30.123 24.49 30.508 24.966 30.508Z" fill="#FF5A5D"/>
<path d="M24.966 33.52C25.442 33.52 25.825 33.135 25.825 32.662C25.825 32.184 25.44 31.801 24.966 31.801C24.49 31.801 24.107 32.187 24.107 32.662C24.105 33.135 24.49 33.52 24.966 33.52Z" fill="#FF5A5D"/>
<path d="M24.966 36.531C25.442 36.531 25.825 36.146 25.825 35.672C25.825 35.195 25.44 34.811 24.966 34.811C24.49 34.811 24.107 35.196 24.107 35.672C24.105 36.146 24.49 36.531 24.966 36.531Z" fill="#FF5A5D"/>
<path d="M24.966 24.486C25.442 24.486 25.825 24.101 25.825 23.625C25.825 23.149 25.44 22.765 24.966 22.765C24.49 22.765 24.107 23.15 24.107 23.625C24.105 24.102 24.49 24.486 24.966 24.486Z" fill="#FF5A5D"/>
<path d="M24.966 27.498C25.442 27.498 25.825 27.111 25.825 26.637C25.825 26.163 25.44 25.776 24.966 25.776C24.49 25.776 24.107 26.164 24.107 26.637C24.106 27.111 24.49 27.498 24.966 27.498Z" fill="#FF5A5D"/>
<path d="M21.954 13.946C22.429 13.946 22.814 13.561 22.814 13.086C22.814 12.61 22.427 12.225 21.954 12.225C21.481 12.225 21.094 12.61 21.094 13.086C21.094 13.561 21.479 13.946 21.954 13.946Z" fill="#FF5A5D"/>
<path d="M21.954 16.958C22.429 16.958 22.814 16.573 22.814 16.098C22.814 15.622 22.427 15.237 21.954 15.237C21.481 15.237 21.094 15.622 21.094 16.098C21.094 16.572 21.479 16.958 21.954 16.958Z" fill="#FF5A5D"/>
<path d="M21.954 19.969C22.429 19.969 22.814 19.584 22.814 19.109C22.814 18.633 22.427 18.248 21.954 18.248C21.481 18.248 21.094 18.633 21.094 19.109C21.094 19.584 21.479 19.969 21.954 19.969Z" fill="#FF5A5D"/>
<path d="M21.954 22.981C22.429 22.981 22.814 22.595 22.814 22.12C22.814 21.645 22.427 21.26 21.954 21.26C21.481 21.26 21.094 21.645 21.094 22.12C21.094 22.595 21.479 22.981 21.954 22.981Z" fill="#FF5A5D"/>
<path d="M21.954 4.912C22.429 4.912 22.814 4.527 22.814 4.052C22.814 3.576 22.427 3.191 21.954 3.191C21.481 3.191 21.094 3.576 21.094 4.052C21.094 4.526 21.479 4.912 21.954 4.912Z" fill="#FF5A5D"/>
<path d="M21.954 7.923C22.429 7.923 22.814 7.538 22.814 7.063C22.814 6.587 22.427 6.202 21.954 6.202C21.481 6.202 21.094 6.587 21.094 7.063C21.094 7.538 21.479 7.923 21.954 7.923Z" fill="#FF5A5D"/>
<path d="M21.954 10.935C22.429 10.935 22.814 10.55 22.814 10.075C22.814 9.599 22.427 9.214 21.954 9.214C21.481 9.214 21.094 9.599 21.094 10.075C21.094 10.549 21.479 10.935 21.954 10.935Z" fill="#FF5A5D"/>
<path d="M21.954 32.014C22.429 32.014 22.814 31.629 22.814 31.155C22.814 30.678 22.427 30.295 21.954 30.295C21.481 30.295 21.094 30.681 21.094 31.155C21.094 31.629 21.479 32.014 21.954 32.014Z" fill="#FF5A5D"/>
<path d="M21.954 35.025C22.429 35.025 22.814 34.64 22.814 34.166C22.814 33.689 22.427 33.305 21.954 33.305C21.481 33.305 21.094 33.69 21.094 34.166C21.094 34.641 21.479 35.025 21.954 35.025Z" fill="#FF5A5D"/>
<path d="M21.954 25.992C22.429 25.992 22.814 25.607 22.814 25.131C22.814 24.656 22.427 24.272 21.954 24.272C21.481 24.272 21.094 24.658 21.094 25.131C21.094 25.607 21.479 25.992 21.954 25.992Z" fill="#FF5A5D"/>
<path d="M21.954 29.004C22.429 29.004 22.814 28.617 22.814 28.143C22.814 27.669 22.427 27.283 21.954 27.283C21.481 27.283 21.094 27.67 21.094 28.143C21.094 28.617 21.479 29.004 21.954 29.004Z" fill="#FF5A5D"/>
<path d="M18.942 12.44C19.418 12.44 19.801 12.055 19.801 11.58C19.801 11.104 19.416 10.719 18.942 10.719C18.466 10.719 18.083 11.104 18.083 11.58C18.083 12.055 18.468 12.44 18.942 12.44Z" fill="#FF5A5D"/>
<path d="M18.942 15.452C19.418 15.452 19.801 15.067 19.801 14.592C19.801 14.116 19.416 13.731 18.942 13.731C18.466 13.731 18.083 14.116 18.083 14.592C18.083 15.066 18.468 15.452 18.942 15.452Z" fill="#FF5A5D"/>
<path d="M18.942 18.463C19.418 18.463 19.801 18.078 19.801 17.603C19.801 17.127 19.416 16.742 18.942 16.742C18.466 16.742 18.083 17.127 18.083 17.603C18.083 18.078 18.468 18.463 18.942 18.463Z" fill="#FF5A5D"/>
<path d="M18.942 21.475C19.418 21.475 19.801 21.089 19.801 20.615C19.801 20.139 19.416 19.754 18.942 19.754C18.466 19.754 18.083 20.139 18.083 20.615C18.083 21.089 18.468 21.475 18.942 21.475Z" fill="#FF5A5D"/>
<path d="M18.942 3.406C19.418 3.406 19.801 3.021 19.801 2.546C19.801 2.07 19.416 1.685 18.942 1.685C18.466 1.685 18.083 2.07 18.083 2.546C18.083 3.021 18.468 3.406 18.942 3.406Z" fill="#FF5A5D"/>
<path d="M18.942 6.417C19.418 6.417 19.801 6.032 19.801 5.557C19.801 5.081 19.416 4.696 18.942 4.696C18.466 4.696 18.083 5.081 18.083 5.557C18.083 6.032 18.468 6.417 18.942 6.417Z" fill="#FF5A5D"/>
<path d="M18.942 9.429C19.418 9.429 19.801 9.044 19.801 8.569C19.801 8.093 19.416 7.708 18.942 7.708C18.466 7.708 18.083 8.093 18.083 8.569C18.083 9.043 18.468 9.429 18.942 9.429Z" fill="#FF5A5D"/>
<path d="M18.942 30.508C19.418 30.508 19.801 30.123 19.801 29.649C19.801 29.172 19.416 28.789 18.942 28.789C18.466 28.789 18.083 29.174 18.083 29.649C18.083 30.123 18.468 30.508 18.942 30.508Z" fill="#FF5A5D"/>
<path d="M18.942 33.52C19.418 33.52 19.801 33.135 19.801 32.662C19.801 32.184 19.416 31.801 18.942 31.801C18.466 31.801 18.083 32.187 18.083 32.662C18.083 33.135 18.468 33.52 18.942 33.52Z" fill="#FF5A5D"/>
<path d="M18.942 36.531C19.418 36.531 19.801 36.146 19.801 35.672C19.801 35.195 19.416 34.811 18.942 34.811C18.466 34.811 18.083 35.196 18.083 35.672C18.083 36.146 18.468 36.531 18.942 36.531Z" fill="#FF5A5D"/>
<path d="M18.942 24.486C19.418 24.486 19.801 24.101 19.801 23.625C19.801 23.149 19.416 22.765 18.942 22.765C18.466 22.765 18.083 23.15 18.083 23.625C18.083 24.102 18.468 24.486 18.942 24.486Z" fill="#FF5A5D"/>
<path d="M18.942 27.498C19.418 27.498 19.801 27.111 19.801 26.637C19.801 26.163 19.416 25.776 18.942 25.776C18.466 25.776 18.083 26.164 18.083 26.637C18.083 27.111 18.468 27.498 18.942 27.498Z" fill="#FF5A5D"/>
<path d="M15.931 13.946C16.408 13.946 16.791 13.561 16.791 13.086C16.791 12.61 16.406 12.225 15.931 12.225C15.456 12.225 15.073 12.61 15.073 13.086C15.071 13.561 15.456 13.946 15.931 13.946Z" fill="#FF5A5D"/>
<path d="M15.931 16.958C16.408 16.958 16.791 16.573 16.791 16.098C16.791 15.622 16.406 15.237 15.931 15.237C15.456 15.237 15.073 15.622 15.073 16.098C15.071 16.572 15.456 16.958 15.931 16.958Z" fill="#FF5A5D"/>
<path d="M15.931 19.969C16.408 19.969 16.791 19.584 16.791 19.109C16.791 18.633 16.406 18.248 15.931 18.248C15.456 18.248 15.073 18.633 15.073 19.109C15.071 19.584 15.456 19.969 15.931 19.969Z" fill="#FF5A5D"/>
<path d="M15.931 22.981C16.408 22.981 16.791 22.595 16.791 22.12C16.791 21.645 16.406 21.26 15.931 21.26C15.456 21.26 15.073 21.645 15.073 22.12C15.073 22.595 15.456 22.981 15.931 22.981Z" fill="#FF5A5D"/>
<path d="M15.931 4.912C16.408 4.912 16.791 4.527 16.791 4.052C16.791 3.576 16.406 3.191 15.931 3.191C15.456 3.191 15.073 3.576 15.073 4.052C15.071 4.526 15.456 4.912 15.931 4.912Z" fill="#FF5A5D"/>
<path d="M15.931 7.923C16.408 7.923 16.791 7.538 16.791 7.063C16.791 6.587 16.406 6.202 15.931 6.202C15.456 6.202 15.073 6.587 15.073 7.063C15.071 7.538 15.456 7.923 15.931 7.923Z" fill="#FF5A5D"/>
<path d="M15.931 10.935C16.408 10.935 16.791 10.55 16.791 10.075C16.791 9.599 16.406 9.214 15.931 9.214C15.456 9.214 15.073 9.599 15.073 10.075C15.071 10.549 15.456 10.935 15.931 10.935Z" fill="#FF5A5D"/>
<path d="M15.931 32.014C16.408 32.014 16.791 31.629 16.791 31.155C16.791 30.678 16.406 30.295 15.931 30.295C15.456 30.295 15.073 30.681 15.073 31.155C15.071 31.629 15.456 32.014 15.931 32.014Z" fill="#FF5A5D"/>
<path d="M15.931 35.025C16.408 35.025 16.791 34.64 16.791 34.166C16.791 33.689 16.406 33.305 15.931 33.305C15.456 33.305 15.073 33.69 15.073 34.166C15.071 34.641 15.456 35.025 15.931 35.025Z" fill="#FF5A5D"/>
<path d="M15.931 38.037C16.408 38.037 16.791 37.652 16.791 37.178C16.791 36.701 16.406 36.317 15.931 36.317C15.456 36.317 15.073 36.703 15.073 37.178C15.071 37.652 15.456 38.037 15.931 38.037Z" fill="#FF5A5D"/>
<path d="M15.931 25.992C16.408 25.992 16.791 25.607 16.791 25.131C16.791 24.656 16.406 24.272 15.931 24.272C15.456 24.272 15.073 24.658 15.073 25.131C15.071 25.607 15.456 25.992 15.931 25.992Z" fill="#FF5A5D"/>
<path d="M15.931 29.004C16.408 29.004 16.791 28.617 16.791 28.143C16.791 27.669 16.406 27.283 15.931 27.283C15.456 27.283 15.073 27.67 15.073 28.143C15.072 28.617 15.456 29.004 15.931 29.004Z" fill="#FF5A5D"/>
<path d="M12.92 12.44C13.395 12.44 13.779 12.055 13.779 11.58C13.779 11.104 13.393 10.719 12.92 10.719C12.444 10.719 12.06 11.104 12.06 11.58C12.06 12.055 12.444 12.44 12.92 12.44Z" fill="#FF5A5D"/>
<path d="M12.92 15.452C13.395 15.452 13.779 15.067 13.779 14.592C13.779 14.116 13.393 13.731 12.92 13.731C12.444 13.731 12.06 14.116 12.06 14.592C12.06 15.066 12.444 15.452 12.92 15.452Z" fill="#FF5A5D"/>
<path d="M12.92 18.463C13.395 18.463 13.779 18.078 13.779 17.603C13.779 17.127 13.393 16.742 12.92 16.742C12.444 16.742 12.06 17.127 12.06 17.603C12.06 18.078 12.444 18.463 12.92 18.463Z" fill="#FF5A5D"/>
<path d="M12.92 21.475C13.395 21.475 13.779 21.089 13.779 20.615C13.779 20.139 13.393 19.754 12.92 19.754C12.444 19.754 12.06 20.139 12.06 20.615C12.06 21.089 12.444 21.475 12.92 21.475Z" fill="#FF5A5D"/>
<path d="M12.92 6.417C13.395 6.417 13.779 6.032 13.779 5.557C13.779 5.081 13.393 4.696 12.92 4.696C12.444 4.696 12.06 5.081 12.06 5.557C12.06 6.032 12.444 6.417 12.92 6.417Z" fill="#FF5A5D"/>
<path d="M12.92 9.429C13.395 9.429 13.779 9.044 13.779 8.569C13.779 8.093 13.393 7.708 12.92 7.708C12.444 7.708 12.06 8.093 12.06 8.569C12.06 9.043 12.444 9.429 12.92 9.429Z" fill="#FF5A5D"/>
<path d="M12.92 30.508C13.395 30.508 13.779 30.123 13.779 29.649C13.779 29.172 13.393 28.789 12.92 28.789C12.444 28.789 12.06 29.174 12.06 29.649C12.06 30.123 12.444 30.508 12.92 30.508Z" fill="#FF5A5D"/>
<path d="M12.92 33.52C13.395 33.52 13.779 33.135 13.779 32.662C13.779 32.184 13.393 31.801 12.92 31.801C12.444 31.801 12.06 32.187 12.06 32.662C12.06 33.135 12.444 33.52 12.92 33.52Z" fill="#FF5A5D"/>
<path d="M12.92 36.531C13.395 36.531 13.779 36.146 13.779 35.672C13.779 35.195 13.393 34.811 12.92 34.811C12.444 34.811 12.06 35.196 12.06 35.672C12.06 36.146 12.444 36.531 12.92 36.531Z" fill="#FF5A5D"/>
<path d="M12.92 39.543C13.395 39.543 13.779 39.158 13.779 38.684C13.779 38.207 13.393 37.824 12.92 37.824C12.444 37.824 12.06 38.209 12.06 38.684C12.06 39.158 12.444 39.543 12.92 39.543Z" fill="#FF5A5D"/>
<path d="M12.92 24.486C13.395 24.486 13.779 24.101 13.779 23.625C13.779 23.149 13.393 22.765 12.92 22.765C12.444 22.765 12.06 23.15 12.06 23.625C12.06 24.102 12.444 24.486 12.92 24.486Z" fill="#FF5A5D"/>
<path d="M12.92 27.498C13.395 27.498 13.779 27.111 13.779 26.637C13.779 26.163 13.393 25.776 12.92 25.776C12.444 25.776 12.06 26.164 12.06 26.637C12.06 27.111 12.444 27.498 12.92 27.498Z" fill="#FF5A5D"/>
<path d="M9.90799 13.946C10.383 13.946 10.767 13.561 10.767 13.086C10.767 12.61 10.381 12.225 9.90799 12.225C9.43099 12.225 9.048 12.61 9.048 13.086C9.048 13.561 9.43299 13.946 9.90799 13.946Z" fill="#FF5A5D"/>
<path d="M9.90799 16.958C10.383 16.958 10.767 16.573 10.767 16.098C10.767 15.622 10.381 15.237 9.90799 15.237C9.43099 15.237 9.048 15.622 9.048 16.098C9.048 16.572 9.43299 16.958 9.90799 16.958Z" fill="#FF5A5D"/>
<path d="M9.90799 19.969C10.383 19.969 10.767 19.584 10.767 19.109C10.767 18.633 10.381 18.248 9.90799 18.248C9.43099 18.248 9.048 18.633 9.048 19.109C9.048 19.584 9.43299 19.969 9.90799 19.969Z" fill="#FF5A5D"/>
<path d="M9.90799 22.981C10.383 22.981 10.767 22.595 10.767 22.12C10.767 21.645 10.381 21.26 9.90799 21.26C9.43099 21.26 9.048 21.645 9.048 22.12C9.048 22.595 9.43299 22.981 9.90799 22.981Z" fill="#FF5A5D"/>
<path d="M9.90799 7.923C10.383 7.923 10.767 7.538 10.767 7.063C10.767 6.587 10.381 6.202 9.90799 6.202C9.43099 6.202 9.048 6.587 9.048 7.063C9.048 7.538 9.43299 7.923 9.90799 7.923Z" fill="#FF5A5D"/>
<path d="M9.90799 10.935C10.383 10.935 10.767 10.55 10.767 10.075C10.767 9.599 10.381 9.214 9.90799 9.214C9.43099 9.214 9.048 9.599 9.048 10.075C9.048 10.549 9.43299 10.935 9.90799 10.935Z" fill="#FF5A5D"/>
<path d="M9.90799 32.014C10.383 32.014 10.767 31.629 10.767 31.155C10.767 30.678 10.381 30.295 9.90799 30.295C9.43099 30.295 9.048 30.681 9.048 31.155C9.048 31.629 9.43299 32.014 9.90799 32.014Z" fill="#FF5A5D"/>
<path d="M9.90799 35.025C10.383 35.025 10.767 34.64 10.767 34.166C10.767 33.689 10.381 33.305 9.90799 33.305C9.43099 33.305 9.048 33.69 9.048 34.166C9.048 34.641 9.43299 35.025 9.90799 35.025Z" fill="#FF5A5D"/>
<path d="M9.90799 38.037C10.383 38.037 10.767 37.652 10.767 37.178C10.767 36.701 10.381 36.317 9.90799 36.317C9.43099 36.317 9.048 36.703 9.048 37.178C9.048 37.652 9.43299 38.037 9.90799 38.037Z" fill="#FF5A5D"/>
<path d="M9.90799 41.049C10.383 41.049 10.767 40.664 10.767 40.19C10.767 39.713 10.381 39.33 9.90799 39.33C9.43099 39.33 9.048 39.715 9.048 40.19C9.048 40.664 9.43299 41.049 9.90799 41.049Z" fill="#FF5A5D"/>
<path d="M9.90799 25.992C10.383 25.992 10.767 25.607 10.767 25.131C10.767 24.656 10.381 24.272 9.90799 24.272C9.43099 24.272 9.048 24.658 9.048 25.131C9.048 25.607 9.43299 25.992 9.90799 25.992Z" fill="#FF5A5D"/>
<path d="M9.90799 29.004C10.383 29.004 10.767 28.617 10.767 28.143C10.767 27.669 10.381 27.283 9.90799 27.283C9.43099 27.283 9.048 27.67 9.048 28.143C9.048 28.617 9.43299 29.004 9.90799 29.004Z" fill="#FF5A5D"/>
<path d="M6.896 12.44C7.372 12.44 7.755 12.055 7.755 11.58C7.755 11.104 7.37 10.719 6.896 10.719C6.42 10.719 6.03601 11.104 6.03601 11.58C6.03601 12.055 6.422 12.44 6.896 12.44Z" fill="#FF5A5D"/>
<path d="M6.896 15.452C7.372 15.452 7.755 15.067 7.755 14.592C7.755 14.116 7.37 13.731 6.896 13.731C6.42 13.731 6.03601 14.116 6.03601 14.592C6.03601 15.066 6.422 15.452 6.896 15.452Z" fill="#FF5A5D"/>
<path d="M6.896 18.463C7.372 18.463 7.755 18.078 7.755 17.603C7.755 17.127 7.37 16.742 6.896 16.742C6.42 16.742 6.03601 17.127 6.03601 17.603C6.03601 18.078 6.422 18.463 6.896 18.463Z" fill="#FF5A5D"/>
<path d="M6.896 21.475C7.372 21.475 7.755 21.089 7.755 20.615C7.755 20.139 7.37 19.754 6.896 19.754C6.42 19.754 6.03601 20.139 6.03601 20.615C6.03601 21.089 6.422 21.475 6.896 21.475Z" fill="#FF5A5D"/>
<path d="M6.896 9.429C7.372 9.429 7.755 9.044 7.755 8.569C7.755 8.093 7.37 7.708 6.896 7.708C6.42 7.708 6.03601 8.093 6.03601 8.569C6.03601 9.043 6.422 9.429 6.896 9.429Z" fill="#FF5A5D"/>
<path d="M6.896 30.508C7.372 30.508 7.755 30.123 7.755 29.649C7.755 29.172 7.37 28.789 6.896 28.789C6.42 28.789 6.03601 29.174 6.03601 29.649C6.03601 30.123 6.422 30.508 6.896 30.508Z" fill="#FF5A5D"/>
<path d="M6.896 24.486C7.372 24.486 7.755 24.101 7.755 23.625C7.755 23.149 7.37 22.765 6.896 22.765C6.42 22.765 6.03601 23.15 6.03601 23.625C6.03601 24.102 6.422 24.486 6.896 24.486Z" fill="#FF5A5D"/>
<path d="M6.896 27.498C7.372 27.498 7.755 27.111 7.755 26.637C7.755 26.163 7.37 25.776 6.896 25.776C6.42 25.776 6.03601 26.164 6.03601 26.637C6.03601 27.111 6.422 27.498 6.896 27.498Z" fill="#FF5A5D"/>
<path d="M3.88599 13.946C4.36199 13.946 4.745 13.561 4.745 13.086C4.745 12.61 4.35999 12.225 3.88599 12.225C3.40999 12.225 3.02702 12.61 3.02702 13.086C3.02502 13.561 3.40999 13.946 3.88599 13.946Z" fill="#FF5A5D"/>
<path d="M3.88599 16.958C4.36199 16.958 4.745 16.573 4.745 16.098C4.745 15.622 4.35999 15.237 3.88599 15.237C3.40999 15.237 3.02702 15.622 3.02702 16.098C3.02502 16.572 3.40999 16.958 3.88599 16.958Z" fill="#FF5A5D"/>
<path d="M3.88599 19.969C4.36199 19.969 4.745 19.584 4.745 19.109C4.745 18.633 4.35999 18.248 3.88599 18.248C3.40999 18.248 3.02702 18.633 3.02702 19.109C3.02502 19.584 3.40999 19.969 3.88599 19.969Z" fill="#FF5A5D"/>
<path d="M3.88599 22.981C4.36199 22.981 4.745 22.595 4.745 22.12C4.745 21.645 4.35999 21.26 3.88599 21.26C3.40999 21.26 3.02701 21.645 3.02701 22.12C3.02701 22.595 3.40999 22.981 3.88599 22.981Z" fill="#FF5A5D"/>
<path d="M3.88599 25.992C4.36199 25.992 4.745 25.607 4.745 25.131C4.745 24.656 4.35999 24.272 3.88599 24.272C3.40999 24.272 3.02702 24.658 3.02702 25.131C3.02502 25.607 3.40999 25.992 3.88599 25.992Z" fill="#FF5A5D"/>
<path d="M26.573 0.594002C12.202 0.594002 0.510986 9.225 0.510986 19.834C0.510986 25.296 3.611 30.445 9.052 34.087L5.45999 44.475C5.28899 44.968 5.45601 45.516 5.87201 45.829C6.08701 45.991 6.34201 46.069 6.59601 46.069C6.83701 46.069 7.07899 45.999 7.28699 45.85L18.3 38.087C20.958 38.741 23.739 39.073 26.573 39.073C40.945 39.073 52.636 30.441 52.636 19.833C52.637 9.224 40.945 0.594002 26.573 0.594002ZM26.573 36.67C23.751 36.67 20.99 36.318 18.366 35.625C18.025 35.535 17.658 35.6 17.367 35.805L8.948 41.742L11.632 33.981C11.817 33.451 11.607 32.86 11.126 32.565C5.90601 29.35 2.91299 24.711 2.91299 19.836C2.91299 10.552 13.527 2.999 26.573 2.999C39.62 2.999 50.234 10.552 50.234 19.836C50.234 29.12 39.62 36.67 26.573 36.67Z" fill="#2B2622"/>
<path d="M37.113 14.168H16.033C15.37 14.168 14.831 14.504 14.831 15.168C14.831 15.832 15.37 16.168 16.033 16.168H37.113C37.777 16.168 38.315 15.832 38.315 15.168C38.315 14.504 37.777 14.168 37.113 14.168Z" fill="#2B2622"/>
<path d="M37.113 22.168H16.033C15.37 22.168 14.831 22.505 14.831 23.168C14.831 23.831 15.37 24.168 16.033 24.168H37.113C37.777 24.168 38.315 23.832 38.315 23.168C38.315 22.504 37.777 22.168 37.113 22.168Z" fill="#2B2622"/>
</svg>
