<svg width="57" height="57" viewBox="0 0 57 57" fill="none" xmlns="http://www.w3.org/2000/svg">
<path d="M22.789 43.258C22.74 43.731 23.084 44.153 23.557 44.203C24.031 44.25 24.453 43.906 24.5 43.433C24.548 42.959 24.203 42.537 23.73 42.49C23.26 42.441 22.836 42.785 22.789 43.258Z" fill="#FF5A5D"/>
<path d="M19.792 42.951C19.744 43.424 20.088 43.846 20.56 43.896C21.034 43.943 21.456 43.599 21.503 43.125C21.55 42.651 21.208 42.229 20.733 42.183C20.264 42.135 19.84 42.479 19.792 42.951Z" fill="#FF5A5D"/>
<path d="M21.598 40.109C21.549 40.582 21.893 41.004 22.367 41.051C22.84 41.099 23.262 40.756 23.309 40.281C23.359 39.807 23.012 39.385 22.541 39.34C22.068 39.293 21.645 39.637 21.598 40.109Z" fill="#FF5A5D"/>
<path d="M18.601 39.803C18.553 40.276 18.898 40.699 19.37 40.746C19.844 40.795 20.266 40.451 20.314 39.976C20.363 39.504 20.018 39.08 19.546 39.035C19.072 38.986 18.649 39.33 18.601 39.803Z" fill="#FF5A5D"/>
<path d="M15.605 39.496C15.556 39.969 15.901 40.391 16.374 40.439C16.847 40.486 17.269 40.144 17.317 39.67C17.365 39.194 17.021 38.774 16.547 38.728C16.077 38.68 15.653 39.023 15.605 39.496Z" fill="#FF5A5D"/>
<path d="M20.406 36.959C20.357 37.434 20.701 37.855 21.174 37.904C21.648 37.951 22.07 37.607 22.117 37.133C22.166 36.66 21.822 36.238 21.348 36.191C20.876 36.143 20.453 36.486 20.406 36.959Z" fill="#FF5A5D"/>
<path d="M17.41 36.654C17.362 37.127 17.706 37.549 18.178 37.597C18.653 37.644 19.074 37.299 19.122 36.826C19.17 36.352 18.826 35.93 18.353 35.883C17.88 35.836 17.458 36.18 17.41 36.654Z" fill="#FF5A5D"/>
<path d="M14.414 36.348C14.366 36.821 14.71 37.244 15.183 37.291C15.657 37.338 16.079 36.994 16.126 36.521C16.173 36.047 15.83 35.625 15.358 35.578C14.885 35.529 14.461 35.873 14.414 36.348Z" fill="#FF5A5D"/>
<path d="M19.214 33.811C19.166 34.285 19.51 34.707 19.983 34.754C20.456 34.803 20.878 34.459 20.926 33.986C20.974 33.513 20.631 33.09 20.157 33.043C19.685 32.994 19.262 33.338 19.214 33.811Z" fill="#FF5A5D"/>
<path d="M16.218 33.504C16.17 33.977 16.514 34.399 16.988 34.449C17.461 34.496 17.883 34.152 17.93 33.679C17.978 33.205 17.634 32.783 17.161 32.736C16.688 32.688 16.266 33.031 16.218 33.504Z" fill="#FF5A5D"/>
<path d="M13.222 33.197C13.174 33.67 13.518 34.092 13.992 34.142C14.465 34.189 14.888 33.845 14.934 33.371C14.984 32.897 14.638 32.475 14.166 32.429C13.694 32.381 13.27 32.725 13.222 33.197Z" fill="#FF5A5D"/>
<path d="M18.023 30.662C17.974 31.135 18.319 31.557 18.791 31.605C19.265 31.654 19.687 31.31 19.735 30.834C19.783 30.363 19.439 29.938 18.965 29.894C18.494 29.844 18.071 30.189 18.023 30.662Z" fill="#FF5A5D"/>
<path d="M15.027 30.355C14.978 30.828 15.323 31.25 15.796 31.297C16.27 31.345 16.692 31.002 16.739 30.526C16.787 30.053 16.443 29.631 15.969 29.586C15.499 29.537 15.075 29.883 15.027 30.355Z" fill="#FF5A5D"/>
<path d="M12.032 30.049C11.983 30.522 12.327 30.944 12.8 30.992C13.274 31.04 13.696 30.697 13.743 30.222C13.792 29.748 13.447 29.326 12.973 29.281C12.502 29.232 12.08 29.576 12.032 30.049Z" fill="#FF5A5D"/>
<path d="M16.832 27.512C16.784 27.986 17.128 28.408 17.6 28.456C18.075 28.504 18.496 28.159 18.544 27.686C18.592 27.213 18.248 26.791 17.776 26.744C17.302 26.695 16.879 27.04 16.832 27.512Z" fill="#FF5A5D"/>
<path d="M13.835 27.206C13.787 27.68 14.131 28.102 14.604 28.15C15.078 28.198 15.5 27.853 15.547 27.38C15.595 26.908 15.251 26.485 14.779 26.438C14.307 26.388 13.883 26.733 13.835 27.206Z" fill="#FF5A5D"/>
<path d="M18.636 24.67C18.588 25.143 18.932 25.565 19.405 25.614C19.879 25.662 20.3 25.318 20.348 24.845C20.398 24.372 20.053 23.95 19.579 23.902C19.107 23.853 18.684 24.197 18.636 24.67Z" fill="#FF5A5D"/>
<path d="M15.64 24.363C15.592 24.836 15.936 25.258 16.41 25.307C16.883 25.355 17.306 25.011 17.352 24.538C17.401 24.066 17.056 23.643 16.584 23.595C16.111 23.546 15.688 23.89 15.64 24.363Z" fill="#FF5A5D"/>
<path d="M12.644 24.057C12.596 24.53 12.941 24.952 13.414 25.001C13.887 25.049 14.31 24.705 14.357 24.232C14.406 23.759 14.06 23.336 13.588 23.289C13.116 23.24 12.692 23.583 12.644 24.057Z" fill="#FF5A5D"/>
<path d="M17.445 21.521C17.397 21.994 17.741 22.416 18.213 22.465C18.688 22.513 19.109 22.169 19.157 21.696C19.205 21.224 18.861 20.801 18.387 20.753C17.916 20.704 17.493 21.048 17.445 21.521Z" fill="#FF5A5D"/>
<path d="M14.449 21.214C14.401 21.687 14.745 22.109 15.218 22.158C15.692 22.206 16.114 21.862 16.161 21.389C16.209 20.916 15.865 20.494 15.391 20.446C14.92 20.397 14.497 20.741 14.449 21.214Z" fill="#FF5A5D"/>
<path d="M19.25 18.678C19.202 19.151 19.546 19.573 20.018 19.622C20.492 19.67 20.915 19.326 20.962 18.853C21.011 18.38 20.667 17.958 20.194 17.91C19.72 17.861 19.297 18.205 19.25 18.678Z" fill="#FF5A5D"/>
<path d="M16.253 18.372C16.205 18.845 16.549 19.267 17.022 19.316C17.496 19.364 17.918 19.02 17.965 18.547C18.013 18.074 17.669 17.652 17.197 17.604C16.724 17.555 16.301 17.898 16.253 18.372Z" fill="#FF5A5D"/>
<path d="M13.257 18.065C13.209 18.538 13.553 18.96 14.027 19.009C14.5 19.057 14.923 18.713 14.969 18.24C15.017 17.768 14.673 17.345 14.201 17.297C13.729 17.248 13.305 17.592 13.257 18.065Z" fill="#FF5A5D"/>
<path d="M21.055 15.835C21.006 16.308 21.35 16.73 21.824 16.779C22.297 16.827 22.719 16.483 22.766 16.01C22.815 15.537 22.469 15.115 21.996 15.067C21.525 15.019 21.102 15.363 21.055 15.835Z" fill="#FF5A5D"/>
<path d="M18.058 15.529C18.01 16.002 18.354 16.424 18.827 16.473C19.301 16.521 19.723 16.177 19.77 15.704C19.819 15.231 19.474 14.809 19.002 14.761C18.529 14.712 18.106 15.056 18.058 15.529Z" fill="#FF5A5D"/>
<path d="M15.062 15.222C15.013 15.695 15.358 16.117 15.831 16.166C16.304 16.214 16.727 15.87 16.774 15.397C16.822 14.925 16.478 14.502 16.005 14.454C15.533 14.405 15.11 14.75 15.062 15.222Z" fill="#FF5A5D"/>
<path d="M22.857 12.993C22.809 13.466 23.154 13.888 23.627 13.937C24.1 13.985 24.522 13.641 24.57 13.168C24.618 12.695 24.273 12.273 23.799 12.225C23.33 12.176 22.906 12.52 22.857 12.993Z" fill="#FF5A5D"/>
<path d="M19.863 12.687C19.815 13.16 20.159 13.582 20.631 13.631C21.104 13.679 21.527 13.335 21.574 12.862C21.622 12.389 21.279 11.967 20.803 11.919C20.334 11.87 19.911 12.213 19.863 12.687Z" fill="#FF5A5D"/>
<path d="M16.867 12.38C16.819 12.853 17.163 13.275 17.635 13.324C18.11 13.372 18.531 13.028 18.579 12.555C18.627 12.082 18.283 11.66 17.809 11.612C17.337 11.563 16.915 11.907 16.867 12.38Z" fill="#FF5A5D"/>
<path d="M24.662 10.15C24.615 10.623 24.959 11.045 25.432 11.094C25.906 11.142 26.328 10.798 26.375 10.325C26.422 9.852 26.078 9.43 25.607 9.382C25.133 9.333 24.711 9.678 24.662 10.15Z" fill="#FF5A5D"/>
<path d="M21.666 9.844C21.619 10.317 21.963 10.74 22.436 10.788C22.91 10.836 23.332 10.492 23.379 10.019C23.428 9.547 23.082 9.124 22.611 9.076C22.139 9.027 21.715 9.371 21.666 9.844Z" fill="#FF5A5D"/>
<path d="M18.671 9.537C18.623 10.01 18.967 10.432 19.44 10.481C19.914 10.529 20.336 10.185 20.383 9.712C20.432 9.239 20.088 8.817 19.615 8.769C19.142 8.72 18.719 9.064 18.671 9.537Z" fill="#FF5A5D"/>
<path d="M26.467 7.308C26.42 7.781 26.764 8.203 27.236 8.252C27.711 8.3 28.132 7.956 28.18 7.483C28.227 7.01 27.883 6.588 27.41 6.54C26.938 6.491 26.516 6.835 26.467 7.308Z" fill="#FF5A5D"/>
<path d="M23.471 7.001C23.424 7.474 23.768 7.896 24.242 7.945C24.715 7.993 25.137 7.649 25.184 7.176C25.232 6.704 24.887 6.281 24.416 6.233C23.943 6.185 23.52 6.528 23.471 7.001Z" fill="#FF5A5D"/>
<path d="M20.477 6.695C20.428 7.168 20.773 7.59 21.246 7.639C21.719 7.687 22.141 7.343 22.188 6.87C22.238 6.397 21.891 5.975 21.42 5.927C20.947 5.878 20.523 6.222 20.477 6.695Z" fill="#FF5A5D"/>
<path d="M28.271 4.465C28.223 4.938 28.568 5.36 29.039 5.409C29.514 5.457 29.935 5.113 29.984 4.64C30.031 4.167 29.687 3.745 29.213 3.697C28.742 3.648 28.32 3.993 28.271 4.465Z" fill="#FF5A5D"/>
<path d="M25.275 4.159C25.227 4.632 25.572 5.054 26.045 5.103C26.518 5.151 26.941 4.807 26.988 4.334C27.035 3.861 26.691 3.439 26.217 3.391C25.746 3.342 25.324 3.686 25.275 4.159Z" fill="#FF5A5D"/>
<path d="M22.279 3.852C22.232 4.325 22.576 4.747 23.049 4.796C23.522 4.844 23.945 4.5 23.992 4.027C24.04 3.554 23.695 3.132 23.221 3.084C22.752 3.035 22.328 3.379 22.279 3.852Z" fill="#FF5A5D"/>
<path d="M25.625 49.438C26.1 49.485 26.521 49.141 26.57 48.668C26.617 48.195 26.273 47.773 25.799 47.725C25.326 47.678 24.904 48.022 24.857 48.494C24.809 48.967 25.152 49.389 25.625 49.438Z" fill="#FF5A5D"/>
<path d="M22.783 47.633C23.256 47.68 23.678 47.336 23.725 46.865C23.775 46.39 23.43 45.969 22.957 45.92C22.484 45.873 22.061 46.217 22.014 46.688C21.967 47.162 22.311 47.584 22.783 47.633Z" fill="#FF5A5D"/>
<path d="M22.477 50.629C22.951 50.676 23.373 50.332 23.42 49.859C23.468 49.385 23.125 48.963 22.652 48.916C22.178 48.869 21.756 49.213 21.709 49.684C21.66 50.156 22.004 50.58 22.477 50.629Z" fill="#FF5A5D"/>
<path d="M19.941 45.828C20.414 45.875 20.836 45.531 20.884 45.06C20.933 44.584 20.587 44.164 20.115 44.115C19.641 44.068 19.219 44.412 19.172 44.885C19.125 45.358 19.468 45.779 19.941 45.828Z" fill="#FF5A5D"/>
<path d="M19.634 48.824C20.108 48.871 20.53 48.527 20.578 48.056C20.627 47.58 20.281 47.16 19.808 47.111C19.336 47.064 18.913 47.408 18.866 47.879C18.817 48.354 19.162 48.775 19.634 48.824Z" fill="#FF5A5D"/>
<path d="M19.328 51.82C19.801 51.867 20.223 51.523 20.272 51.049C20.321 50.576 19.975 50.153 19.502 50.107C19.03 50.058 18.607 50.404 18.559 50.875C18.51 51.348 18.855 51.771 19.328 51.82Z" fill="#FF5A5D"/>
<path d="M16.792 47.02C17.265 47.067 17.688 46.723 17.736 46.252C17.784 45.777 17.44 45.356 16.965 45.307C16.493 45.26 16.07 45.604 16.024 46.076C15.975 46.549 16.319 46.971 16.792 47.02Z" fill="#FF5A5D"/>
<path d="M16.485 50.016C16.958 50.063 17.381 49.719 17.428 49.246C17.475 48.773 17.132 48.351 16.658 48.303C16.186 48.256 15.762 48.6 15.716 49.071C15.668 49.545 16.012 49.967 16.485 50.016Z" fill="#FF5A5D"/>
<path d="M16.178 53.01C16.653 53.059 17.074 52.715 17.121 52.242C17.17 51.769 16.826 51.347 16.352 51.299C15.878 51.251 15.456 51.596 15.41 52.067C15.362 52.539 15.706 52.963 16.178 53.01Z" fill="#FF5A5D"/>
<path d="M13.643 48.211C14.117 48.258 14.539 47.914 14.586 47.443C14.634 46.967 14.29 46.547 13.817 46.498C13.343 46.451 12.921 46.795 12.874 47.266C12.826 47.74 13.169 48.162 13.643 48.211Z" fill="#FF5A5D"/>
<path d="M13.336 51.207C13.809 51.254 14.232 50.91 14.278 50.437C14.327 49.963 13.983 49.541 13.509 49.494C13.035 49.445 12.613 49.791 12.567 50.262C12.519 50.734 12.863 51.158 13.336 51.207Z" fill="#FF5A5D"/>
<path d="M13.03 54.201C13.503 54.25 13.925 53.906 13.972 53.433C14.021 52.959 13.676 52.537 13.203 52.49C12.729 52.441 12.307 52.785 12.26 53.258C12.212 53.73 12.556 54.154 13.03 54.201Z" fill="#FF5A5D"/>
<path d="M10.494 49.402C10.967 49.449 11.389 49.105 11.435 48.631C11.486 48.158 11.14 47.735 10.667 47.689C10.194 47.643 9.77201 47.986 9.72401 48.457C9.67601 48.932 10.02 49.354 10.494 49.402Z" fill="#FF5A5D"/>
<path d="M10.188 52.398C10.661 52.445 11.083 52.101 11.131 51.627C11.179 51.153 10.834 50.731 10.361 50.685C9.88799 50.635 9.46499 50.982 9.41799 51.453C9.36999 51.926 9.71298 52.35 10.188 52.398Z" fill="#FF5A5D"/>
<path d="M7.34401 50.594C7.81801 50.641 8.24 50.297 8.287 49.824C8.334 49.351 7.99201 48.929 7.51701 48.881C7.04501 48.834 6.622 49.178 6.576 49.649C6.528 50.123 6.87201 50.545 7.34401 50.594Z" fill="#FF5A5D"/>
<path d="M7.03801 53.59C7.51101 53.637 7.93301 53.293 7.98201 52.82C8.03001 52.347 7.68501 51.924 7.21101 51.877C6.73901 51.828 6.31603 52.174 6.26903 52.645C6.22103 53.117 6.56501 53.541 7.03801 53.59Z" fill="#FF5A5D"/>
<path d="M56.002 26.917C57.35 13.733 50.432 2.264 40.557 1.102C39.973 0.865004 39.072 0.736004 37.691 0.595004C36.24 0.446004 34.537 0.385005 33.17 0.318005C32.297 0.276005 31.541 0.249004 31.148 0.209004C21.162 -0.812996 11.93 9.162 10.572 22.439C9.67798 31.158 12.425 38.794 17.428 43.214L1.57799 50.527C1.13599 50.732 0.858976 51.185 0.881976 51.673C0.902976 52.161 1.21897 52.587 1.67897 52.753L13.026 56.798C13.118 56.831 13.213 56.854 13.306 56.861C13.526 56.882 13.748 56.845 13.951 56.749L30.82 48.618C31.914 48.882 33.117 49.109 34.357 49.236L34.369 49.06C34.744 49.097 35.135 48.968 35.51 48.968H35.514C45.471 49.971 54.646 40.162 56.002 26.917ZM12.959 22.689C14.183 10.731 22.23 1.723 30.898 2.611C31.232 2.645 31.717 2.674 32.322 2.704C25.822 5.956 20.748 13.81 19.766 23.386C18.888 31.961 21.509 39.844 26.162 44.633L22.254 43.557C15.817 40.506 11.97 32.346 12.959 22.689ZM13.357 54.367L5.256 51.478L18.983 45.146L21.394 45.812C22.876 46.49 24.474 46.947 26.171 47.14C26.392 47.23 26.819 47.4 27.392 47.603L13.357 54.367ZM35.658 46.928C27.191 46.063 21.158 33.395 22.156 23.632C23.156 13.869 31.631 2.687 40.096 3.553C48.764 4.44 54.82 14.891 53.596 26.85C52.375 38.809 44.326 47.814 35.658 46.928Z" fill="#2B2622"/>
<path d="M38.957 14.698C34.488 14.24 30.367 18.598 29.771 24.41C29.176 30.222 32.33 35.326 36.797 35.783C41.264 36.24 45.385 31.883 45.982 26.069C46.578 20.257 43.426 15.155 38.957 14.698ZM37.043 33.393C33.893 33.069 31.703 29.151 32.164 24.655C32.623 20.16 35.56 16.766 38.711 17.088C41.863 17.411 44.053 21.33 43.592 25.825C43.133 30.318 40.193 33.715 37.043 33.393Z" fill="#2B2622"/>
</svg>
