<svg width="39" height="58" viewBox="0 0 39 58" fill="none" xmlns="http://www.w3.org/2000/svg">
<path d="M20.636 7.78C20.636 7.305 20.251 6.92 19.776 6.92C19.301 6.92 18.916 7.305 18.916 7.78C18.916 8.255 19.301 8.64 19.776 8.64C20.251 8.64 20.636 8.255 20.636 7.78Z" fill="#FF5A5D"/>
<path d="M19.13 10.792C19.13 10.317 18.745 9.932 18.271 9.932C17.794 9.932 17.41 10.317 17.41 10.792C17.41 11.267 17.795 11.652 18.271 11.652C18.746 11.651 19.13 11.267 19.13 10.792Z" fill="#FF5A5D"/>
<path d="M22.142 10.792C22.142 10.317 21.757 9.932 21.282 9.932C20.807 9.932 20.422 10.317 20.422 10.792C20.422 11.267 20.807 11.652 21.282 11.652C21.757 11.652 22.142 11.267 22.142 10.792Z" fill="#FF5A5D"/>
<path d="M17.625 13.803C17.625 13.328 17.24 12.943 16.766 12.943C16.289 12.943 15.905 13.328 15.905 13.803C15.905 14.278 16.29 14.663 16.766 14.663C17.24 14.663 17.625 14.278 17.625 13.803Z" fill="#FF5A5D"/>
<path d="M20.636 13.803C20.636 13.328 20.251 12.943 19.776 12.943C19.301 12.943 18.916 13.328 18.916 13.803C18.916 14.278 19.301 14.663 19.776 14.663C20.251 14.663 20.636 14.278 20.636 13.803Z" fill="#FF5A5D"/>
<path d="M23.648 13.803C23.648 13.328 23.263 12.943 22.788 12.943C22.313 12.943 21.928 13.328 21.928 13.803C21.928 14.278 22.313 14.663 22.788 14.663C23.263 14.663 23.648 14.278 23.648 13.803Z" fill="#FF5A5D"/>
<path d="M16.119 16.814C16.119 16.339 15.734 15.954 15.26 15.954C14.783 15.954 14.399 16.339 14.399 16.814C14.399 17.289 14.784 17.674 15.26 17.674C15.734 17.675 16.119 17.29 16.119 16.814Z" fill="#FF5A5D"/>
<path d="M19.13 16.814C19.13 16.339 18.745 15.954 18.271 15.954C17.794 15.954 17.41 16.339 17.41 16.814C17.41 17.289 17.795 17.674 18.271 17.674C18.746 17.675 19.13 17.29 19.13 16.814Z" fill="#FF5A5D"/>
<path d="M22.142 16.814C22.142 16.339 21.757 15.954 21.282 15.954C20.807 15.954 20.422 16.339 20.422 16.814C20.422 17.289 20.807 17.674 21.282 17.674C21.757 17.674 22.142 17.29 22.142 16.814Z" fill="#FF5A5D"/>
<path d="M25.154 16.814C25.154 16.339 24.769 15.954 24.294 15.954C23.819 15.954 23.434 16.339 23.434 16.814C23.434 17.289 23.819 17.674 24.294 17.674C24.769 17.674 25.154 17.29 25.154 16.814Z" fill="#FF5A5D"/>
<path d="M14.614 19.826C14.614 19.351 14.228 18.966 13.754 18.966C13.277 18.966 12.893 19.351 12.893 19.826C12.893 20.301 13.278 20.686 13.754 20.686C14.228 20.686 14.614 20.301 14.614 19.826Z" fill="#FF5A5D"/>
<path d="M17.625 19.826C17.625 19.351 17.24 18.966 16.766 18.966C16.289 18.966 15.905 19.351 15.905 19.826C15.905 20.301 16.29 20.686 16.766 20.686C17.24 20.686 17.625 20.301 17.625 19.826Z" fill="#FF5A5D"/>
<path d="M20.636 19.826C20.636 19.351 20.251 18.966 19.776 18.966C19.301 18.966 18.916 19.351 18.916 19.826C18.916 20.301 19.301 20.686 19.776 20.686C20.251 20.686 20.636 20.301 20.636 19.826Z" fill="#FF5A5D"/>
<path d="M23.648 19.826C23.648 19.351 23.263 18.966 22.788 18.966C22.313 18.966 21.928 19.351 21.928 19.826C21.928 20.301 22.313 20.686 22.788 20.686C23.263 20.686 23.648 20.301 23.648 19.826Z" fill="#FF5A5D"/>
<path d="M26.66 19.826C26.66 19.351 26.275 18.966 25.8 18.966C25.325 18.966 24.939 19.351 24.939 19.826C24.939 20.301 25.325 20.686 25.8 20.686C26.275 20.686 26.66 20.301 26.66 19.826Z" fill="#FF5A5D"/>
<path d="M13.108 22.837C13.108 22.362 12.722 21.977 12.248 21.977C11.772 21.977 11.387 22.362 11.387 22.837C11.387 23.312 11.773 23.697 12.248 23.697C12.722 23.698 13.108 23.312 13.108 22.837Z" fill="#FF5A5D"/>
<path d="M16.119 22.837C16.119 22.362 15.734 21.977 15.26 21.977C14.783 21.977 14.399 22.362 14.399 22.837C14.399 23.312 14.784 23.697 15.26 23.697C15.734 23.698 16.119 23.312 16.119 22.837Z" fill="#FF5A5D"/>
<path d="M19.13 22.837C19.13 22.362 18.745 21.977 18.271 21.977C17.794 21.977 17.41 22.362 17.41 22.837C17.41 23.312 17.795 23.697 18.271 23.697C18.746 23.698 19.13 23.312 19.13 22.837Z" fill="#FF5A5D"/>
<path d="M28.166 22.837C28.166 22.362 27.78 21.977 27.306 21.977C26.829 21.977 26.445 22.362 26.445 22.837C26.445 23.312 26.83 23.697 27.306 23.697C27.78 23.698 28.166 23.312 28.166 22.837Z" fill="#FF5A5D"/>
<path d="M22.142 22.837C22.142 22.362 21.757 21.977 21.282 21.977C20.807 21.977 20.422 22.362 20.422 22.837C20.422 23.312 20.807 23.697 21.282 23.697C21.757 23.697 22.142 23.312 22.142 22.837Z" fill="#FF5A5D"/>
<path d="M25.154 22.837C25.154 22.362 24.769 21.977 24.294 21.977C23.819 21.977 23.434 22.362 23.434 22.837C23.434 23.312 23.819 23.697 24.294 23.697C24.769 23.697 25.154 23.312 25.154 22.837Z" fill="#FF5A5D"/>
<path d="M11.602 25.849C11.602 25.374 11.217 24.989 10.742 24.989C10.267 24.989 9.88202 25.374 9.88202 25.849C9.88202 26.325 10.267 26.709 10.742 26.709C11.217 26.709 11.602 26.325 11.602 25.849Z" fill="#FF5A5D"/>
<path d="M14.614 25.849C14.614 25.374 14.228 24.989 13.754 24.989C13.277 24.989 12.893 25.374 12.893 25.849C12.893 26.325 13.278 26.709 13.754 26.709C14.228 26.709 14.614 26.325 14.614 25.849Z" fill="#FF5A5D"/>
<path d="M17.625 25.849C17.625 25.374 17.24 24.989 16.766 24.989C16.289 24.989 15.905 25.374 15.905 25.849C15.905 26.325 16.29 26.709 16.766 26.709C17.24 26.709 17.625 26.325 17.625 25.849Z" fill="#FF5A5D"/>
<path d="M20.636 25.849C20.636 25.374 20.251 24.989 19.776 24.989C19.301 24.989 18.916 25.374 18.916 25.849C18.916 26.325 19.301 26.709 19.776 26.709C20.251 26.709 20.636 26.325 20.636 25.849Z" fill="#FF5A5D"/>
<path d="M29.671 25.849C29.671 25.374 29.285 24.989 28.811 24.989C28.334 24.989 27.95 25.374 27.95 25.849C27.95 26.325 28.335 26.709 28.811 26.709C29.286 26.709 29.671 26.325 29.671 25.849Z" fill="#FF5A5D"/>
<path d="M23.648 25.849C23.648 25.374 23.263 24.989 22.788 24.989C22.313 24.989 21.928 25.374 21.928 25.849C21.928 26.325 22.313 26.709 22.788 26.709C23.263 26.709 23.648 26.325 23.648 25.849Z" fill="#FF5A5D"/>
<path d="M26.66 25.849C26.66 25.374 26.275 24.989 25.8 24.989C25.325 24.989 24.939 25.374 24.939 25.849C24.939 26.325 25.325 26.709 25.8 26.709C26.275 26.709 26.66 26.325 26.66 25.849Z" fill="#FF5A5D"/>
<path d="M10.096 28.86C10.096 28.385 9.71096 28.001 9.23596 28.001C8.76096 28.001 8.37598 28.386 8.37598 28.86C8.37598 29.336 8.76096 29.721 9.23596 29.721C9.71096 29.721 10.096 29.335 10.096 28.86Z" fill="#FF5A5D"/>
<path d="M13.108 28.86C13.108 28.385 12.722 28.001 12.248 28.001C11.772 28.001 11.387 28.386 11.387 28.86C11.387 29.336 11.773 29.721 12.248 29.721C12.722 29.721 13.108 29.335 13.108 28.86Z" fill="#FF5A5D"/>
<path d="M16.119 28.86C16.119 28.385 15.734 28.001 15.26 28.001C14.783 28.001 14.399 28.386 14.399 28.86C14.399 29.336 14.784 29.721 15.26 29.721C15.734 29.721 16.119 29.335 16.119 28.86Z" fill="#FF5A5D"/>
<path d="M19.13 28.86C19.13 28.385 18.745 28.001 18.271 28.001C17.794 28.001 17.41 28.386 17.41 28.86C17.41 29.336 17.795 29.721 18.271 29.721C18.746 29.721 19.13 29.335 19.13 28.86Z" fill="#FF5A5D"/>
<path d="M28.166 28.86C28.166 28.385 27.78 28.001 27.306 28.001C26.829 28.001 26.445 28.386 26.445 28.86C26.445 29.336 26.83 29.721 27.306 29.721C27.78 29.721 28.166 29.335 28.166 28.86Z" fill="#FF5A5D"/>
<path d="M31.176 28.86C31.176 28.385 30.791 28.001 30.317 28.001C29.84 28.001 29.456 28.386 29.456 28.86C29.456 29.336 29.841 29.721 30.317 29.721C30.792 29.721 31.176 29.335 31.176 28.86Z" fill="#FF5A5D"/>
<path d="M22.142 28.86C22.142 28.385 21.757 28.001 21.282 28.001C20.807 28.001 20.422 28.386 20.422 28.86C20.422 29.336 20.807 29.721 21.282 29.721C21.757 29.721 22.142 29.335 22.142 28.86Z" fill="#FF5A5D"/>
<path d="M25.154 28.86C25.154 28.385 24.769 28.001 24.294 28.001C23.819 28.001 23.434 28.386 23.434 28.86C23.434 29.336 23.819 29.721 24.294 29.721C24.769 29.721 25.154 29.335 25.154 28.86Z" fill="#FF5A5D"/>
<path d="M11.602 31.871C11.602 31.396 11.217 31.012 10.742 31.012C10.267 31.012 9.88202 31.397 9.88202 31.871C9.88202 32.348 10.267 32.732 10.742 32.732C11.217 32.732 11.602 32.348 11.602 31.871Z" fill="#FF5A5D"/>
<path d="M14.614 31.871C14.614 31.396 14.228 31.012 13.754 31.012C13.277 31.012 12.893 31.397 12.893 31.871C12.893 32.348 13.278 32.732 13.754 32.732C14.228 32.732 14.614 32.348 14.614 31.871Z" fill="#FF5A5D"/>
<path d="M17.625 31.871C17.625 31.396 17.24 31.012 16.766 31.012C16.289 31.012 15.905 31.397 15.905 31.871C15.905 32.348 16.29 32.732 16.766 32.732C17.24 32.732 17.625 32.348 17.625 31.871Z" fill="#FF5A5D"/>
<path d="M20.636 31.871C20.636 31.396 20.251 31.012 19.776 31.012C19.301 31.012 18.916 31.397 18.916 31.871C18.916 32.348 19.301 32.732 19.776 32.732C20.251 32.732 20.636 32.348 20.636 31.871Z" fill="#FF5A5D"/>
<path d="M8.59 31.871C8.59 31.396 8.205 31.012 7.73 31.012C7.255 31.012 6.87 31.397 6.87 31.871C6.87 32.348 7.255 32.732 7.73 32.732C8.205 32.732 8.59 32.348 8.59 31.871Z" fill="#FF5A5D"/>
<path d="M29.671 31.871C29.671 31.396 29.285 31.012 28.811 31.012C28.334 31.012 27.95 31.397 27.95 31.871C27.95 32.348 28.335 32.732 28.811 32.732C29.286 32.732 29.671 32.348 29.671 31.871Z" fill="#FF5A5D"/>
<path d="M32.682 31.871C32.682 31.396 32.297 31.012 31.822 31.012C31.347 31.012 30.962 31.397 30.962 31.871C30.962 32.348 31.347 32.732 31.822 32.732C32.297 32.732 32.682 32.348 32.682 31.871Z" fill="#FF5A5D"/>
<path d="M23.648 31.871C23.648 31.396 23.263 31.012 22.788 31.012C22.313 31.012 21.928 31.397 21.928 31.871C21.928 32.348 22.313 32.732 22.788 32.732C23.263 32.732 23.648 32.348 23.648 31.871Z" fill="#FF5A5D"/>
<path d="M26.66 31.871C26.66 31.396 26.275 31.012 25.8 31.012C25.325 31.012 24.939 31.397 24.939 31.871C24.939 32.348 25.325 32.732 25.8 32.732C26.275 32.732 26.66 32.348 26.66 31.871Z" fill="#FF5A5D"/>
<path d="M10.096 34.883C10.096 34.408 9.71096 34.024 9.23596 34.024C8.76096 34.024 8.37598 34.41 8.37598 34.883C8.37598 35.358 8.76096 35.744 9.23596 35.744C9.71096 35.744 10.096 35.357 10.096 34.883Z" fill="#FF5A5D"/>
<path d="M13.108 34.883C13.108 34.408 12.722 34.024 12.248 34.024C11.772 34.024 11.387 34.41 11.387 34.883C11.387 35.358 11.773 35.744 12.248 35.744C12.722 35.744 13.108 35.357 13.108 34.883Z" fill="#FF5A5D"/>
<path d="M16.119 34.883C16.119 34.408 15.734 34.024 15.26 34.024C14.783 34.024 14.399 34.41 14.399 34.883C14.399 35.358 14.784 35.744 15.26 35.744C15.734 35.744 16.119 35.357 16.119 34.883Z" fill="#FF5A5D"/>
<path d="M19.13 34.883C19.13 34.408 18.745 34.024 18.271 34.024C17.794 34.024 17.41 34.41 17.41 34.883C17.41 35.358 17.795 35.744 18.271 35.744C18.746 35.744 19.13 35.357 19.13 34.883Z" fill="#FF5A5D"/>
<path d="M7.08401 34.883C7.08401 34.408 6.69902 34.024 6.22502 34.024C5.74802 34.024 5.36401 34.41 5.36401 34.883C5.36401 35.358 5.74902 35.744 6.22502 35.744C6.70002 35.744 7.08401 35.357 7.08401 34.883Z" fill="#FF5A5D"/>
<path d="M28.166 34.883C28.166 34.408 27.78 34.024 27.306 34.024C26.829 34.024 26.445 34.41 26.445 34.883C26.445 35.358 26.83 35.744 27.306 35.744C27.78 35.744 28.166 35.357 28.166 34.883Z" fill="#FF5A5D"/>
<path d="M31.176 34.883C31.176 34.408 30.791 34.024 30.317 34.024C29.84 34.024 29.456 34.41 29.456 34.883C29.456 35.358 29.841 35.744 30.317 35.744C30.792 35.744 31.176 35.357 31.176 34.883Z" fill="#FF5A5D"/>
<path d="M34.188 34.883C34.188 34.408 33.803 34.024 33.328 34.024C32.853 34.024 32.468 34.41 32.468 34.883C32.468 35.358 32.853 35.744 33.328 35.744C33.803 35.744 34.188 35.357 34.188 34.883Z" fill="#FF5A5D"/>
<path d="M22.142 34.883C22.142 34.408 21.757 34.024 21.282 34.024C20.807 34.024 20.422 34.41 20.422 34.883C20.422 35.358 20.807 35.744 21.282 35.744C21.757 35.744 22.142 35.357 22.142 34.883Z" fill="#FF5A5D"/>
<path d="M25.154 34.883C25.154 34.408 24.769 34.024 24.294 34.024C23.819 34.024 23.434 34.41 23.434 34.883C23.434 35.358 23.819 35.744 24.294 35.744C24.769 35.744 25.154 35.357 25.154 34.883Z" fill="#FF5A5D"/>
<path d="M11.602 37.895C11.602 37.42 11.217 37.037 10.742 37.037C10.267 37.037 9.88202 37.422 9.88202 37.895C9.88202 38.37 10.267 38.754 10.742 38.754C11.217 38.754 11.602 38.369 11.602 37.895Z" fill="#FF5A5D"/>
<path d="M14.614 37.895C14.614 37.42 14.228 37.037 13.754 37.037C13.277 37.037 12.893 37.422 12.893 37.895C12.893 38.37 13.278 38.754 13.754 38.754C14.228 38.754 14.614 38.369 14.614 37.895Z" fill="#FF5A5D"/>
<path d="M17.625 37.895C17.625 37.42 17.24 37.037 16.766 37.037C16.289 37.037 15.905 37.422 15.905 37.895C15.905 38.37 16.29 38.754 16.766 38.754C17.24 38.754 17.625 38.369 17.625 37.895Z" fill="#FF5A5D"/>
<path d="M20.636 37.895C20.636 37.42 20.251 37.037 19.776 37.037C19.301 37.037 18.916 37.422 18.916 37.895C18.916 38.37 19.301 38.754 19.776 38.754C20.251 38.754 20.636 38.369 20.636 37.895Z" fill="#FF5A5D"/>
<path d="M5.57901 37.895C5.57901 37.42 5.19402 37.037 4.72002 37.037C4.24302 37.037 3.85901 37.422 3.85901 37.895C3.85901 38.37 4.24402 38.754 4.72002 38.754C5.19402 38.754 5.57901 38.369 5.57901 37.895Z" fill="#FF5A5D"/>
<path d="M8.59 37.895C8.59 37.42 8.205 37.037 7.73 37.037C7.255 37.037 6.87 37.422 6.87 37.895C6.87 38.37 7.255 38.754 7.73 38.754C8.205 38.754 8.59 38.369 8.59 37.895Z" fill="#FF5A5D"/>
<path d="M29.671 37.895C29.671 37.42 29.285 37.037 28.811 37.037C28.334 37.037 27.95 37.422 27.95 37.895C27.95 38.37 28.335 38.754 28.811 38.754C29.286 38.754 29.671 38.369 29.671 37.895Z" fill="#FF5A5D"/>
<path d="M32.682 37.895C32.682 37.42 32.297 37.037 31.822 37.037C31.347 37.037 30.962 37.422 30.962 37.895C30.962 38.37 31.347 38.754 31.822 38.754C32.297 38.754 32.682 38.369 32.682 37.895Z" fill="#FF5A5D"/>
<path d="M35.694 37.895C35.694 37.42 35.309 37.037 34.834 37.037C34.359 37.037 33.974 37.422 33.974 37.895C33.974 38.37 34.359 38.754 34.834 38.754C35.309 38.754 35.694 38.369 35.694 37.895Z" fill="#FF5A5D"/>
<path d="M23.648 37.895C23.648 37.42 23.263 37.037 22.788 37.037C22.313 37.037 21.928 37.422 21.928 37.895C21.928 38.37 22.313 38.754 22.788 38.754C23.263 38.754 23.648 38.369 23.648 37.895Z" fill="#FF5A5D"/>
<path d="M26.66 37.895C26.66 37.42 26.275 37.037 25.8 37.037C25.325 37.037 24.939 37.422 24.939 37.895C24.939 38.37 25.325 38.754 25.8 38.754C26.275 38.754 26.66 38.369 26.66 37.895Z" fill="#FF5A5D"/>
<path d="M10.096 40.906C10.096 40.431 9.71096 40.047 9.23596 40.047C8.76096 40.047 8.37598 40.432 8.37598 40.906C8.37598 41.38 8.76096 41.765 9.23596 41.765C9.71096 41.765 10.096 41.381 10.096 40.906Z" fill="#FF5A5D"/>
<path d="M13.108 40.906C13.108 40.431 12.722 40.047 12.248 40.047C11.772 40.047 11.387 40.432 11.387 40.906C11.387 41.38 11.773 41.765 12.248 41.765C12.722 41.766 13.108 41.381 13.108 40.906Z" fill="#FF5A5D"/>
<path d="M16.119 40.906C16.119 40.431 15.734 40.047 15.26 40.047C14.783 40.047 14.399 40.432 14.399 40.906C14.399 41.38 14.784 41.765 15.26 41.765C15.734 41.766 16.119 41.381 16.119 40.906Z" fill="#FF5A5D"/>
<path d="M19.13 40.906C19.13 40.431 18.745 40.047 18.271 40.047C17.794 40.047 17.41 40.432 17.41 40.906C17.41 41.38 17.795 41.765 18.271 41.765C18.746 41.766 19.13 41.381 19.13 40.906Z" fill="#FF5A5D"/>
<path d="M4.07404 40.906C4.07404 40.431 3.68804 40.047 3.21404 40.047C2.73704 40.047 2.35303 40.432 2.35303 40.906C2.35303 41.38 2.73804 41.765 3.21404 41.765C3.68804 41.766 4.07404 41.381 4.07404 40.906Z" fill="#FF5A5D"/>
<path d="M7.08401 40.906C7.08401 40.431 6.69902 40.047 6.22502 40.047C5.74802 40.047 5.36401 40.432 5.36401 40.906C5.36401 41.38 5.74902 41.765 6.22502 41.765C6.70002 41.766 7.08401 41.381 7.08401 40.906Z" fill="#FF5A5D"/>
<path d="M28.166 40.906C28.166 40.431 27.78 40.047 27.306 40.047C26.829 40.047 26.445 40.432 26.445 40.906C26.445 41.38 26.83 41.765 27.306 41.765C27.78 41.766 28.166 41.381 28.166 40.906Z" fill="#FF5A5D"/>
<path d="M31.176 40.906C31.176 40.431 30.791 40.047 30.317 40.047C29.84 40.047 29.456 40.432 29.456 40.906C29.456 41.38 29.841 41.765 30.317 41.765C30.792 41.766 31.176 41.381 31.176 40.906Z" fill="#FF5A5D"/>
<path d="M34.188 40.906C34.188 40.431 33.803 40.047 33.328 40.047C32.853 40.047 32.468 40.432 32.468 40.906C32.468 41.38 32.853 41.765 33.328 41.765C33.803 41.766 34.188 41.381 34.188 40.906Z" fill="#FF5A5D"/>
<path d="M37.2 40.906C37.2 40.431 36.815 40.047 36.34 40.047C35.865 40.047 35.48 40.432 35.48 40.906C35.48 41.38 35.865 41.765 36.34 41.765C36.815 41.766 37.2 41.381 37.2 40.906Z" fill="#FF5A5D"/>
<path d="M22.142 40.906C22.142 40.431 21.757 40.047 21.282 40.047C20.807 40.047 20.422 40.432 20.422 40.906C20.422 41.38 20.807 41.765 21.282 41.765C21.757 41.766 22.142 41.381 22.142 40.906Z" fill="#FF5A5D"/>
<path d="M25.154 40.906C25.154 40.431 24.769 40.047 24.294 40.047C23.819 40.047 23.434 40.432 23.434 40.906C23.434 41.38 23.819 41.765 24.294 41.765C24.769 41.765 25.154 41.381 25.154 40.906Z" fill="#FF5A5D"/>
<path d="M38.334 40.947L20.794 0.798004C20.603 0.360004 20.171 0.0780029 19.692 0.0780029C19.214 0.0780029 18.782 0.360004 18.591 0.798004L0.977983 41.113C0.815983 41.484 0.851983 41.65 1.07498 41.988C1.29698 42.328 1.67499 42.269 2.07999 42.269H3.37299C3.77199 50.269 10.929 57.869 19.692 57.869C28.457 57.869 35.612 50.269 36.012 42.269H37.305H37.321C37.984 42.269 38.522 41.994 38.522 41.331C38.523 41.094 38.455 41.133 38.334 40.947ZM19.693 4.157L35.47 40.27H34.828H4.55699H3.91498L19.693 4.157ZM19.693 55.467C12.253 55.467 6.15298 49.27 5.75798 42.27H33.628C33.233 49.27 27.134 55.467 19.693 55.467Z" fill="#2B2622"/>
</svg>
