<svg width="77" height="52" viewBox="0 0 77 52" fill="none" xmlns="http://www.w3.org/2000/svg">
<path d="M71.824 0.738007H4.49997C2.03097 0.738007 0.0219727 2.74701 0.0219727 5.21701V13.724V22.423V46.968C0.0219727 49.437 2.03097 51.447 4.49997 51.447H71.824C74.294 51.447 76.303 49.437 76.303 46.968V22.423V13.724V5.21701C76.303 2.74701 74.294 0.738007 71.824 0.738007ZM4.49997 3.83701H71.824C72.585 3.83701 73.202 4.45601 73.202 5.21701V12.175H3.12097V5.21701C3.12097 4.45601 3.73897 3.83701 4.49997 3.83701ZM71.824 48.347H4.49997C3.73897 48.347 3.12097 47.729 3.12097 46.968V23.971H73.202V46.968C73.202 47.729 72.585 48.347 71.824 48.347Z" fill="#64605D"/>
</svg>
