<svg width="84" height="54" viewBox="0 0 84 54" fill="none" xmlns="http://www.w3.org/2000/svg">
<path d="M7.78 20.531C8.622 20.531 8.957 20.958 8.957 21.815C8.957 24.396 7.272 26.333 4.6 26.333C1.883 26.333 0 24.181 0 21.415C0 18.632 1.87 16.492 4.6 16.492C6.617 16.492 8.275 17.442 8.275 18.379C8.275 18.953 7.914 19.316 7.446 19.316C6.537 19.316 6.349 18.338 4.6 18.338C2.927 18.338 2.085 19.796 2.085 21.415C2.085 23.044 2.901 24.489 4.6 24.489C5.655 24.489 6.871 23.901 6.871 22.377H5.509C4.959 22.377 4.571 21.989 4.571 21.44C4.571 20.879 5 20.531 5.509 20.531H7.78V20.531Z" fill="#64605D"/>
<path d="M11.129 17.697C11.129 17.055 11.488 16.655 12.157 16.655H14.511C16.57 16.655 17.84 17.576 17.84 19.675C17.84 21.147 16.729 21.988 15.366 22.201L17.639 24.636C17.827 24.835 17.907 25.036 17.907 25.225C17.907 25.746 17.493 26.254 16.905 26.254C16.664 26.254 16.343 26.161 16.129 25.905L13.161 22.31H13.135V25.21C13.135 25.879 12.707 26.253 12.132 26.253C11.557 26.253 11.13 25.879 11.13 25.21V17.697H11.129ZM13.134 20.865H14.511C15.246 20.865 15.754 20.425 15.754 19.675C15.754 18.914 15.246 18.499 14.511 18.499H13.134V20.865Z" fill="#64605D"/>
<path d="M22.11 17.603C22.339 16.989 22.86 16.494 23.542 16.494C24.249 16.494 24.743 16.961 24.97 17.603L27.591 24.876C27.671 25.089 27.699 25.276 27.699 25.37C27.699 25.891 27.272 26.253 26.777 26.253C26.214 26.253 25.932 25.96 25.799 25.557L25.4 24.302H21.682L21.282 25.545C21.148 25.96 20.867 26.253 20.318 26.253C19.783 26.253 19.329 25.851 19.329 25.317C19.329 25.102 19.395 24.941 19.425 24.876L22.11 17.603ZM22.256 22.457H24.799L23.553 18.579H23.527L22.256 22.457Z" fill="#64605D"/>
<path d="M30.042 18.5H28.586C27.943 18.5 27.676 18.03 27.676 17.576C27.676 17.108 28.01 16.653 28.586 16.653H33.505C34.081 16.653 34.414 17.108 34.414 17.576C34.414 18.03 34.146 18.5 33.505 18.5H32.049V25.211C32.049 25.88 31.621 26.254 31.045 26.254C30.47 26.254 30.042 25.88 30.042 25.211V18.5V18.5Z" fill="#64605D"/>
<path d="M36.198 17.617C36.198 16.948 36.625 16.573 37.201 16.573C37.776 16.573 38.203 16.948 38.203 17.617V25.211C38.203 25.88 37.776 26.254 37.201 26.254C36.625 26.254 36.198 25.88 36.198 25.211V17.617Z" fill="#64605D"/>
<path d="M46.374 17.83C46.374 18.352 46.027 18.819 45.478 18.819C44.931 18.819 44.502 18.418 43.7 18.418C43.126 18.418 42.604 18.726 42.604 19.288C42.604 20.665 47.07 19.783 47.07 23.232C47.07 25.143 45.491 26.333 43.646 26.333C42.618 26.333 40.397 26.093 40.397 24.836C40.397 24.315 40.747 23.888 41.293 23.888C41.922 23.888 42.67 24.409 43.539 24.409C44.422 24.409 44.903 23.914 44.903 23.259C44.903 21.683 40.437 22.632 40.437 19.53C40.437 17.657 41.975 16.495 43.753 16.495C44.502 16.494 46.374 16.775 46.374 17.83Z" fill="#64605D"/>
<path d="M21.657 53.194C15.921 53.194 11.255 48.528 11.255 42.792C11.255 37.058 15.921 32.392 21.657 32.392C27.39 32.392 32.056 37.058 32.056 42.792C32.056 48.528 27.39 53.194 21.657 53.194ZM21.657 35.735C17.764 35.735 14.598 38.901 14.598 42.792C14.598 46.684 17.764 49.85 21.657 49.85C25.547 49.85 28.713 46.684 28.713 42.792C28.712 38.901 25.546 35.735 21.657 35.735Z" fill="#64605D"/>
<path d="M68.136 53.194C62.403 53.194 57.735 48.528 57.735 42.792C57.735 37.058 62.403 32.392 68.136 32.392C73.871 32.392 78.537 37.058 78.537 42.792C78.538 48.528 73.872 53.194 68.136 53.194ZM68.136 35.735C64.244 35.735 61.078 38.901 61.078 42.792C61.078 46.684 64.244 49.85 68.136 49.85C72.028 49.85 75.194 46.684 75.194 42.792C75.194 38.901 72.028 35.735 68.136 35.735Z" fill="#64605D"/>
<path d="M81.695 44.464H76.866C75.943 44.464 75.194 43.715 75.194 42.792C75.194 38.902 72.028 35.736 68.135 35.736C64.245 35.736 61.079 38.902 61.079 42.792C61.079 43.715 60.329 44.464 59.406 44.464H55.138C54.214 44.464 53.466 43.715 53.466 42.792V8.81201C53.466 7.88701 54.214 7.14001 55.138 7.14001H69.415C74.292 7.36401 83.365 10.328 83.365 19.948V42.792C83.367 43.715 82.618 44.464 81.695 44.464ZM78.404 41.12H80.023V19.948C80.023 16.266 78.278 13.568 74.838 11.927C72.104 10.624 69.365 10.485 69.34 10.481L56.811 10.485V41.12H57.869C58.673 36.178 62.972 32.391 68.136 32.391C73.301 32.391 77.601 36.177 78.404 41.12Z" fill="#64605D"/>
<path d="M81.695 29.045H66.44C65.517 29.045 64.768 28.295 64.768 27.373V17.663C64.768 16.74 65.517 15.991 66.44 15.991H81.476C82.399 15.991 83.148 16.74 83.148 17.663C83.148 18.586 82.399 19.335 81.476 19.335H68.112V25.701H81.695C82.618 25.701 83.367 26.45 83.367 27.373C83.367 28.295 82.618 29.045 81.695 29.045Z" fill="#64605D"/>
<path d="M51.979 0H5.89004C3.22604 0 1.05804 2.169 1.05804 4.832V10.725H4.40204V4.832C4.40204 4.013 5.07004 3.345 5.89004 3.345H51.979C52.798 3.345 53.466 4.013 53.466 4.832V41.12H31.923C31.12 36.178 26.821 32.392 21.655 32.392C16.488 32.392 12.19 36.177 11.388 41.12H5.89004C5.07004 41.12 4.40204 40.453 4.40204 39.633V32.393H1.05804V39.633C1.05804 42.298 3.22604 44.465 5.89004 44.465H12.927C13.85 44.465 14.6 43.716 14.6 42.792C14.6 38.9 17.765 35.736 21.656 35.736C25.547 35.736 28.714 38.9 28.714 42.792C28.714 43.716 29.461 44.465 30.384 44.465H55.14C56.064 44.465 56.812 43.716 56.812 42.792V4.832C56.811 2.169 54.643 0 51.979 0Z" fill="#64605D"/>
</svg>
