<svg width="32" height="33" viewBox="0 0 32 33" fill="none" xmlns="http://www.w3.org/2000/svg">
<path d="M13.543 26.531H17.455V16.734H20.184L20.475 13.455H17.455V11.586C17.455 10.813 17.611 10.507 18.359 10.507H20.475V7.103H17.767C14.855 7.103 13.543 8.38501 13.543 10.838V13.455H11.508V16.774H13.543V26.531V26.531Z" fill="#FF5959"/>
<path d="M31.999 1.48801V23.14C31.999 28.432 27.694 32.738 22.402 32.738H9.59698C4.30598 32.738 0.000976562 28.432 0.000976562 23.14V1.48801C0.000976562 1.07401 0.334977 0.738007 0.748977 0.738007H31.249C31.664 0.738007 31.999 1.07401 31.999 1.48801ZM1.49898 23.141C1.49898 27.608 5.13198 31.239 9.59698 31.239H22.402C26.868 31.239 30.501 27.608 30.501 23.141V2.23901H1.49898V23.141Z" fill="#FF5959"/>
</svg>
