<svg width="33" height="33" viewBox="0 0 33 33" fill="none" xmlns="http://www.w3.org/2000/svg">
<path d="M18.704 15.451H12.415L12.423 17.252H16.662C16.161 19.445 14.614 20.79 12.536 20.79C9.811 20.79 7.603 18.581 7.603 15.856C7.603 13.131 9.811 10.923 12.536 10.923C13.832 10.923 15.01 11.423 15.891 12.239L17.282 11.04C16.061 9.83701 14.386 9.095 12.536 9.095C8.802 9.095 5.77399 12.121 5.77399 15.856C5.77399 19.591 8.802 22.619 12.536 22.619C16.123 22.619 18.714 19.884 18.714 16.148L18.704 15.451Z" fill="#FF5959"/>
<path d="M27.742 15.526H20.894V17.181H27.742V15.526Z" fill="#FF5959"/>
<path d="M25.145 12.93H23.489V19.779H25.145V12.93Z" fill="#FF5959"/>
<path d="M32.757 1.48801V23.14C32.757 28.432 28.451 32.738 23.159 32.738H10.354C5.06399 32.738 0.757996 28.432 0.757996 23.14V1.48801C0.757996 1.07401 1.092 0.738007 1.506 0.738007H32.006C32.421 0.738007 32.757 1.07401 32.757 1.48801ZM2.256 23.141C2.256 27.608 5.88899 31.239 10.354 31.239H23.159C27.626 31.239 31.259 27.608 31.259 23.141V2.23901H2.25699V23.141H2.256Z" fill="#FF5959"/>
</svg>
