<svg width="68" height="62" viewBox="0 0 68 62" fill="none" xmlns="http://www.w3.org/2000/svg">
<path d="M64.861 5.83798C62.976 3.95198 60.361 2.91998 57.728 2.96498L56.544 0.195984L51.791 6.54099L59.661 7.48598L58.59 4.97999C60.403 5.14199 62.147 5.93498 63.455 7.24298C64.838 8.62698 65.684 10.519 65.775 12.437C65.846 13.926 65.499 16.134 63.442 18.191C63.053 18.58 63.053 19.209 63.441 19.597C63.635 19.791 63.89 19.888 64.144 19.888C64.398 19.888 64.653 19.791 64.846 19.597C66.853 17.59 67.888 15.014 67.76 12.342C67.647 9.93799 66.591 7.56598 64.861 5.83798Z" fill="#FF5959"/>
<path d="M54.878 11.597H5.05798C2.39598 11.597 0.22998 13.763 0.22998 16.425V56.471C0.22998 59.134 2.39598 61.3 5.05798 61.3H54.878C57.54 61.3 59.706 59.134 59.706 56.471V16.425C59.706 13.763 57.54 11.597 54.878 11.597ZM57.007 56.483L34.342 36.942L57.008 17.4V56.47L57.007 56.483ZM2.92998 56.483L2.92897 56.47V17.4L25.594 36.942L2.92998 56.483ZM54.878 14.297C55.315 14.297 55.72 14.43 56.058 14.654L32.346 35.098H27.591L3.87898 14.654C4.21698 14.429 4.62098 14.297 5.05798 14.297H54.878V14.297ZM5.05798 58.6C4.92098 58.6 4.78698 58.583 4.65898 58.559L27.592 38.788H32.347L55.28 58.559C55.15 58.583 55.017 58.6 54.88 58.6H5.05798V58.6Z" fill="#FF5959"/>
</svg>
