<svg width="33" height="33" viewBox="0 0 33 33" fill="none" xmlns="http://www.w3.org/2000/svg">
<path d="M11.175 18.598C11.426 18.7 11.652 18.601 11.724 18.325C11.774 18.133 11.894 17.646 11.947 17.445C12.022 17.17 11.992 17.073 11.79 16.834C11.348 16.313 11.066 15.637 11.066 14.683C11.066 11.912 13.139 9.43301 16.466 9.43301C19.41 9.43301 21.028 11.232 21.028 13.634C21.028 16.796 19.628 19.463 17.551 19.463C16.404 19.463 15.545 18.516 15.82 17.352C16.151 15.963 16.788 14.463 16.788 13.46C16.788 12.564 16.306 11.815 15.309 11.815C14.136 11.815 13.195 13.027 13.195 14.651C13.195 15.687 13.544 16.386 13.544 16.386C13.544 16.386 12.344 21.471 12.134 22.361C11.716 24.134 12.071 26.308 12.102 26.528C12.119 26.659 12.287 26.689 12.362 26.592C12.47 26.449 13.866 24.725 14.341 23.002C14.476 22.515 15.113 19.99 15.113 19.99C15.494 20.716 16.608 21.354 17.791 21.354C21.317 21.354 23.706 18.141 23.706 13.839C23.706 10.587 20.953 7.55899 16.765 7.55899C11.556 7.55899 8.92902 11.294 8.92902 14.409C8.92902 16.296 9.64402 17.973 11.175 18.598Z" fill="#FF5959"/>
<path d="M32.317 1.48801V23.14C32.317 28.432 28.012 32.738 22.719 32.738H9.91497C4.62397 32.738 0.31897 28.432 0.31897 23.14V1.48801C0.31897 1.07401 0.652971 0.738007 1.06697 0.738007H31.567C31.981 0.738007 32.317 1.07401 32.317 1.48801ZM1.81697 23.141C1.81697 27.608 5.44997 31.239 9.91497 31.239H22.719C27.186 31.239 30.819 27.608 30.819 23.141V2.23901H1.81697V23.141V23.141Z" fill="#FF5959"/>
</svg>
