<svg width="30" height="31" viewBox="0 0 30 31" fill="none" xmlns="http://www.w3.org/2000/svg">
<path d="M29.721 15.812C29.721 7.605 23.069 0.951996 14.861 0.951996C6.65298 0.951996 0.000976562 7.605 0.000976562 15.812C0.000976562 24.019 6.65298 30.671 14.86 30.671C23.068 30.672 29.721 24.02 29.721 15.812Z" fill="#FF5A5D"/>
<path d="M22.324 20.571C22.324 21.084 21.909 21.5 21.395 21.5H8.25397C7.73997 21.5 7.32397 21.084 7.32397 20.571V11.428C7.32397 10.915 7.73997 10.499 8.25397 10.499H21.396C21.91 10.499 22.325 10.915 22.325 11.428V20.571H22.324Z" stroke="#F9F9F9" stroke-miterlimit="10"/>
<path d="M7.50598 10.985L14.859 16.812L22.005 10.985" stroke="#F9F9F9" stroke-miterlimit="10"/>
</svg>
