<svg width="30" height="28" viewBox="0 0 30 28" fill="none" xmlns="http://www.w3.org/2000/svg">
<path d="M28.487 14.088L29.852 6.245C29.895 5.995 29.826 5.737 29.663 5.542C29.5 5.348 29.258 5.236 29.004 5.236H9.18504L8.00104 0.646C7.90204 0.266 7.56104 0 7.16704 0H1.02504C0.55004 0 0.165039 0.386 0.165039 0.862C0.165039 1.337 0.55104 1.723 1.02504 1.723H6.50003L10.997 19.16C11.096 19.541 11.436 19.806 11.831 19.806H28.435C28.911 19.806 29.295 19.42 29.295 18.945C29.295 18.47 28.91 18.085 28.435 18.085H12.497L11.65 14.803H27.638C28.059 14.802 28.416 14.501 28.487 14.088ZM11.207 13.079L9.62904 6.958H27.98L26.916 13.079H11.207Z" fill="#FF5959"/>
<path d="M25.739 21.609C24.073 21.609 22.718 22.964 22.718 24.631C22.718 26.297 24.073 27.652 25.739 27.652C27.406 27.652 28.76 26.297 28.76 24.631C28.761 22.965 27.406 21.609 25.739 21.609Z" fill="#FF5959"/>
<path d="M14.73 21.609C13.064 21.609 11.709 22.964 11.709 24.631C11.709 26.297 13.064 27.652 14.73 27.652C16.396 27.652 17.752 26.297 17.752 24.631C17.753 22.965 16.397 21.609 14.73 21.609Z" fill="#FF5959"/>
</svg>
