<svg width="33" height="33" viewBox="0 0 33 33" fill="none" xmlns="http://www.w3.org/2000/svg">
<path d="M8.47302 22.632C10.028 23.629 11.874 24.211 13.859 24.211C20.383 24.211 24.068 18.7 23.846 13.758C24.532 13.263 25.128 12.645 25.599 11.94C24.969 12.219 24.291 12.408 23.581 12.493C24.307 12.059 24.865 11.371 25.126 10.55C24.447 10.951 23.696 11.244 22.895 11.403C22.255 10.72 21.34 10.295 20.331 10.295C18.062 10.295 16.396 12.411 16.907 14.608C13.987 14.461 11.398 13.063 9.66602 10.936C8.74502 12.516 9.18802 14.582 10.754 15.627C10.177 15.608 9.63502 15.451 9.16002 15.188C9.12202 16.816 10.29 18.338 11.98 18.677C11.485 18.813 10.943 18.844 10.394 18.737C10.839 20.134 12.138 21.149 13.676 21.178C12.198 22.335 10.337 22.852 8.47302 22.632Z" fill="#FF5959"/>
<path d="M32.439 1.48801V23.14C32.439 28.432 28.134 32.738 22.842 32.738H10.037C4.74598 32.738 0.440979 28.432 0.440979 23.14V1.48801C0.440979 1.07401 0.77498 0.738007 1.18898 0.738007H31.689C32.104 0.738007 32.439 1.07401 32.439 1.48801ZM1.93898 23.141C1.93898 27.608 5.57198 31.239 10.037 31.239H22.841C27.307 31.239 30.94 27.608 30.94 23.141V2.23901H1.93898V23.141Z" fill="#FF5959"/>
</svg>
