<svg width="55" height="55" viewBox="0 0 55 55" fill="none" xmlns="http://www.w3.org/2000/svg">
<path d="M27.501 0.791016C12.764 0.791016 0.77301 12.781 0.77301 27.52C0.77301 42.257 12.763 54.247 27.501 54.247C42.237 54.247 54.229 42.258 54.229 27.52C54.229 12.781 42.237 0.791016 27.501 0.791016ZM29.063 51.04V50.094C29.063 49.231 28.363 48.531 27.501 48.531C26.637 48.531 25.938 49.231 25.938 50.094V51.04C14.173 50.264 4.757 40.848 3.98 29.082H4.92701C5.79001 29.082 6.48901 28.383 6.48901 27.52C6.48901 26.656 5.79001 25.957 4.92701 25.957H3.98C4.757 14.191 14.173 4.77402 25.938 3.99802V4.94501C25.938 5.80901 26.637 6.50802 27.501 6.50802C28.363 6.50802 29.063 5.80901 29.063 4.94501V3.99802C40.829 4.77402 50.245 14.191 51.022 25.957H50.075C49.212 25.957 48.513 26.656 48.513 27.52C48.513 28.383 49.212 29.082 50.075 29.082H51.022C50.245 40.848 40.829 50.264 29.063 51.04Z" fill="#FF5959"/>
<path d="M29.063 24.631V12.136C29.063 11.273 28.363 10.573 27.501 10.573C26.637 10.573 25.938 11.273 25.938 12.136V24.631C24.909 25.191 24.201 26.268 24.201 27.52C24.201 27.754 24.227 27.981 24.274 28.202L12.3 40.242C11.693 40.853 11.695 41.844 12.307 42.452C12.612 42.757 13.012 42.907 13.41 42.907C13.812 42.907 14.213 42.754 14.519 42.446L26.31 30.59C26.68 30.734 27.08 30.82 27.501 30.82C29.319 30.82 30.802 29.34 30.802 27.52C30.802 26.268 30.093 25.189 29.063 24.631Z" fill="#FF5959"/>
</svg>
