<svg width="84" height="54" viewBox="0 0 84 54" fill="none" xmlns="http://www.w3.org/2000/svg">
<path d="M7.78098 20.583C8.62298 20.583 8.95798 21.01 8.95798 21.867C8.95798 24.448 7.27298 26.385 4.60098 26.385C1.88398 26.385 0.000976562 24.233 0.000976562 21.467C0.000976562 18.684 1.87098 16.544 4.60098 16.544C6.61798 16.544 8.27598 17.494 8.27598 18.431C8.27598 19.005 7.91498 19.368 7.44698 19.368C6.53798 19.368 6.34998 18.39 4.60098 18.39C2.92798 18.39 2.08598 19.848 2.08598 21.467C2.08598 23.096 2.90198 24.541 4.60098 24.541C5.65598 24.541 6.87198 23.953 6.87198 22.429H5.50998C4.95998 22.429 4.57198 22.041 4.57198 21.492C4.57198 20.931 5.00098 20.583 5.50998 20.583H7.78098Z" fill="#FF5959"/>
<path d="M11.13 17.749C11.13 17.107 11.489 16.707 12.158 16.707H14.512C16.571 16.707 17.841 17.628 17.841 19.727C17.841 21.199 16.73 22.04 15.367 22.253L17.64 24.688C17.828 24.887 17.908 25.088 17.908 25.277C17.908 25.798 17.494 26.306 16.906 26.306C16.665 26.306 16.344 26.213 16.13 25.957L13.162 22.362H13.136V25.262C13.136 25.931 12.708 26.305 12.133 26.305C11.558 26.305 11.131 25.931 11.131 25.262V17.749H11.13ZM13.135 20.917H14.512C15.247 20.917 15.755 20.477 15.755 19.727C15.755 18.966 15.247 18.551 14.512 18.551H13.135V20.917Z" fill="#FF5959"/>
<path d="M22.111 17.655C22.34 17.041 22.861 16.546 23.543 16.546C24.25 16.546 24.744 17.013 24.971 17.655L27.592 24.928C27.672 25.141 27.7 25.328 27.7 25.422C27.7 25.943 27.273 26.305 26.778 26.305C26.215 26.305 25.933 26.012 25.8 25.609L25.401 24.354H21.683L21.283 25.597C21.149 26.012 20.868 26.305 20.319 26.305C19.784 26.305 19.33 25.903 19.33 25.369C19.33 25.154 19.396 24.993 19.426 24.928L22.111 17.655ZM22.257 22.509H24.8L23.554 18.631H23.528L22.257 22.509Z" fill="#FF5959"/>
<path d="M30.043 18.552H28.587C27.944 18.552 27.677 18.082 27.677 17.628C27.677 17.16 28.011 16.705 28.587 16.705H33.506C34.082 16.705 34.415 17.16 34.415 17.628C34.415 18.082 34.147 18.552 33.506 18.552H32.05V25.263C32.05 25.932 31.622 26.306 31.046 26.306C30.471 26.306 30.043 25.932 30.043 25.263V18.552V18.552Z" fill="#FF5959"/>
<path d="M36.199 17.669C36.199 17 36.626 16.625 37.202 16.625C37.777 16.625 38.204 17 38.204 17.669V25.263C38.204 25.932 37.777 26.306 37.202 26.306C36.626 26.306 36.199 25.932 36.199 25.263V17.669Z" fill="#FF5959"/>
<path d="M46.375 17.882C46.375 18.404 46.028 18.871 45.479 18.871C44.932 18.871 44.503 18.47 43.701 18.47C43.127 18.47 42.605 18.778 42.605 19.34C42.605 20.717 47.071 19.835 47.071 23.284C47.071 25.195 45.492 26.385 43.647 26.385C42.619 26.385 40.398 26.145 40.398 24.888C40.398 24.367 40.748 23.94 41.294 23.94C41.923 23.94 42.671 24.461 43.54 24.461C44.423 24.461 44.904 23.966 44.904 23.311C44.904 21.735 40.438 22.684 40.438 19.582C40.438 17.709 41.976 16.547 43.754 16.547C44.503 16.546 46.375 16.827 46.375 17.882Z" fill="#FF5959"/>
<path d="M21.658 53.246C15.922 53.246 11.256 48.58 11.256 42.844C11.256 37.11 15.922 32.444 21.658 32.444C27.391 32.444 32.057 37.11 32.057 42.844C32.057 48.58 27.391 53.246 21.658 53.246ZM21.658 35.787C17.765 35.787 14.599 38.953 14.599 42.844C14.599 46.736 17.765 49.902 21.658 49.902C25.548 49.902 28.714 46.736 28.714 42.844C28.713 38.953 25.547 35.787 21.658 35.787Z" fill="#FF5959"/>
<path d="M68.137 53.246C62.404 53.246 57.736 48.58 57.736 42.844C57.736 37.11 62.404 32.444 68.137 32.444C73.872 32.444 78.538 37.11 78.538 42.844C78.539 48.58 73.873 53.246 68.137 53.246ZM68.137 35.787C64.245 35.787 61.079 38.953 61.079 42.844C61.079 46.736 64.245 49.902 68.137 49.902C72.029 49.902 75.195 46.736 75.195 42.844C75.195 38.953 72.029 35.787 68.137 35.787Z" fill="#FF5959"/>
<path d="M81.696 44.516H76.867C75.944 44.516 75.195 43.767 75.195 42.844C75.195 38.954 72.029 35.788 68.136 35.788C64.246 35.788 61.08 38.954 61.08 42.844C61.08 43.767 60.33 44.516 59.407 44.516H55.139C54.215 44.516 53.467 43.767 53.467 42.844V8.86499C53.467 7.93999 54.215 7.19299 55.139 7.19299H69.416C74.293 7.41699 83.366 10.381 83.366 20.001V42.845C83.368 43.767 82.619 44.516 81.696 44.516ZM78.405 41.172H80.024V20C80.024 16.318 78.279 13.62 74.839 11.979C72.105 10.676 69.366 10.537 69.341 10.533L56.812 10.537V41.172H57.87C58.674 36.23 62.973 32.443 68.137 32.443C73.302 32.443 77.602 36.229 78.405 41.172Z" fill="#FF5959"/>
<path d="M81.696 29.097H66.441C65.518 29.097 64.769 28.347 64.769 27.425V17.715C64.769 16.792 65.518 16.043 66.441 16.043H81.477C82.4 16.043 83.149 16.792 83.149 17.715C83.149 18.638 82.4 19.387 81.477 19.387H68.113V25.753H81.696C82.619 25.753 83.368 26.502 83.368 27.425C83.368 28.347 82.619 29.097 81.696 29.097Z" fill="#FF5959"/>
<path d="M51.98 0.052002H5.89102C3.22702 0.052002 1.05902 2.221 1.05902 4.884V10.777H4.40302V4.884C4.40302 4.065 5.07102 3.397 5.89102 3.397H51.98C52.799 3.397 53.467 4.065 53.467 4.884V41.172H31.924C31.121 36.23 26.822 32.444 21.656 32.444C16.489 32.444 12.191 36.229 11.389 41.172H5.89102C5.07102 41.172 4.40302 40.505 4.40302 39.685V32.445H1.05902V39.685C1.05902 42.35 3.22702 44.517 5.89102 44.517H12.928C13.851 44.517 14.601 43.768 14.601 42.844C14.601 38.952 17.766 35.788 21.657 35.788C25.548 35.788 28.715 38.952 28.715 42.844C28.715 43.768 29.462 44.517 30.385 44.517H55.141C56.065 44.517 56.813 43.768 56.813 42.844V4.884C56.812 2.221 54.644 0.052002 51.98 0.052002Z" fill="#FF5959"/>
</svg>
