<svg width="41" height="41" viewBox="0 0 41 41" fill="none" xmlns="http://www.w3.org/2000/svg">
<g filter="url(#filter0_d)">
<path d="M22.427 14.416C22.71 14.416 23.101 14.27 23.506 13.789V14.344H24.438V9.327H23.506V13.135C23.392 13.278 23.139 13.51 22.956 13.51C22.757 13.51 22.709 13.374 22.709 13.173V9.32599H21.776V13.519C21.776 14.015 21.927 14.416 22.427 14.416Z" fill="#FF5959"/>
<path d="M18.276 13.092C18.276 13.976 18.739 14.437 19.643 14.437C20.393 14.437 20.983 13.935 20.983 13.092V10.634C20.983 9.848 20.399 9.28601 19.643 9.28601C18.821 9.28601 18.276 9.828 18.276 10.634V13.092ZM19.237 10.716C19.237 10.442 19.362 10.237 19.626 10.237C19.911 10.237 20.034 10.436 20.034 10.716V13.05C20.034 13.323 19.895 13.525 19.643 13.525C19.385 13.525 19.237 13.314 19.237 13.05V10.716Z" fill="#FF5959"/>
<path d="M16.052 14.344H17.103V11.585L18.324 7.543H17.259L16.585 10.261L15.86 7.543H14.802L16.052 11.585V14.344Z" fill="#FF5959"/>
<path d="M25.694 15.484H14.7C13.518 15.484 12.561 16.442 12.561 17.624V23.026C12.561 24.207 13.518 25.164 14.7 25.164H25.694C26.874 25.164 27.831 24.207 27.831 23.026V17.624C27.831 16.442 26.874 15.484 25.694 15.484ZM16.165 23.563H15.165V18.027H14.13V17.087H17.2V18.027H16.165V23.563ZM19.724 23.563H18.835V23.037C18.672 23.23 18.501 23.379 18.323 23.48C17.845 23.754 17.187 23.749 17.187 22.779V18.787H18.077V22.448C18.077 22.64 18.124 22.77 18.312 22.77C18.485 22.77 18.726 22.548 18.834 22.412V18.787H19.723V23.563H19.724ZM23.143 22.574C23.143 23.165 22.922 23.624 22.331 23.624C22.005 23.624 21.733 23.506 21.487 23.196V23.563H20.59V17.086H21.487V19.172C21.686 18.927 21.959 18.726 22.276 18.726C22.926 18.726 23.142 19.275 23.142 19.923V22.574H23.143ZM26.426 21.287H24.727V22.188C24.727 22.546 24.757 22.856 25.115 22.856C25.49 22.856 25.512 22.604 25.512 22.188V21.856H26.426V22.215C26.426 23.135 26.03 23.693 25.094 23.693C24.245 23.693 23.813 23.075 23.813 22.215V20.07C23.813 19.24 24.361 18.665 25.162 18.665C26.015 18.665 26.427 19.206 26.427 20.07V21.287H26.426Z" fill="#FF5959"/>
<path d="M36.196 1.48801V23.14C36.196 28.432 31.89 32.738 26.598 32.738H13.793C8.50203 32.738 4.19702 28.432 4.19702 23.14V1.48801C4.19702 1.07401 4.53102 0.738007 4.94502 0.738007H35.445C35.86 0.738007 36.196 1.07401 36.196 1.48801ZM5.69603 23.141C5.69603 27.608 9.32902 31.239 13.794 31.239H26.599C31.066 31.239 34.699 27.608 34.699 23.141V2.23901H5.69702V23.141H5.69603Z" fill="#FF5959"/>
</g>
<defs>
<filter id="filter0_d" x="0.197021" y="0.738007" width="39.999" height="40" filterUnits="userSpaceOnUse" color-interpolation-filters="sRGB">
<feFlood flood-opacity="0" result="BackgroundImageFix"/>
<feColorMatrix in="SourceAlpha" type="matrix" values="0 0 0 0 0 0 0 0 0 0 0 0 0 0 0 0 0 0 127 0"/>
<feOffset dy="4"/>
<feGaussianBlur stdDeviation="2"/>
<feColorMatrix type="matrix" values="0 0 0 0 0 0 0 0 0 0 0 0 0 0 0 0 0 0 0.25 0"/>
<feBlend mode="normal" in2="BackgroundImageFix" result="effect1_dropShadow"/>
<feBlend mode="normal" in="SourceGraphic" in2="effect1_dropShadow" result="shape"/>
</filter>
</defs>
</svg>
