<svg width="30" height="30" viewBox="0 0 30 30" fill="none" xmlns="http://www.w3.org/2000/svg">
<path d="M29.721 14.963C29.721 6.75601 23.069 0.102997 14.861 0.102997C6.65298 0.102997 0.000976562 6.75601 0.000976562 14.963C0.000976562 23.171 6.65298 29.823 14.86 29.823C23.068 29.823 29.721 23.171 29.721 14.963Z" fill="#FF5A5D"/>
<path d="M19.528 15.368L20.171 11.675C20.192 11.557 20.159 11.436 20.082 11.345C20.005 11.253 19.892 11.199 19.771 11.199H10.438L9.88002 9.039C9.83402 8.859 9.67302 8.73401 9.48702 8.73401H6.59702C6.37302 8.73401 6.19202 8.91601 6.19202 9.13901C6.19202 9.36201 6.37402 9.54401 6.59702 9.54401H9.17502L11.291 17.756C11.338 17.935 11.5 18.06 11.685 18.06H19.504C19.728 18.06 19.909 17.878 19.909 17.655C19.909 17.432 19.727 17.25 19.504 17.25H11.998L11.601 15.705H19.129C19.326 15.705 19.494 15.562 19.528 15.368ZM11.391 14.894L10.648 12.011H19.29L18.788 14.894H11.391Z" fill="white"/>
<path d="M18.234 18.91C17.449 18.91 16.811 19.548 16.811 20.333C16.811 21.118 17.449 21.756 18.234 21.756C19.018 21.756 19.657 21.118 19.657 20.333C19.657 19.548 19.019 18.91 18.234 18.91Z" fill="white"/>
<path d="M13.05 18.91C12.266 18.91 11.627 19.548 11.627 20.333C11.627 21.118 12.266 21.756 13.05 21.756C13.835 21.756 14.474 21.118 14.474 20.333C14.474 19.548 13.835 18.91 13.05 18.91Z" fill="white"/>
</svg>
