<svg width="33" height="33" viewBox="0 0 33 33" fill="none" xmlns="http://www.w3.org/2000/svg">
<path d="M9.65404 16.821C9.65404 14.467 9.66304 14.188 9.70404 13.26C9.74404 12.401 9.88804 11.934 10.009 11.623C10.168 11.211 10.359 10.918 10.667 10.61C10.975 10.301 11.27 10.109 11.68 9.95001C11.992 9.83101 12.458 9.686 13.316 9.647C14.247 9.605 14.525 9.595 16.879 9.595C19.231 9.595 19.509 9.605 20.44 9.647C21.298 9.686 21.764 9.83101 22.076 9.95001C22.486 10.109 22.781 10.302 23.089 10.61C23.398 10.918 23.588 11.211 23.747 11.623C23.868 11.934 24.012 12.4 24.052 13.26C24.093 14.188 24.102 14.467 24.102 16.821C24.102 19.175 24.093 19.453 24.052 20.382C24.012 21.241 23.868 21.708 23.747 22.019C23.588 22.431 23.398 22.724 23.089 23.032C22.781 23.341 22.486 23.531 22.076 23.692C21.764 23.811 21.298 23.955 20.44 23.995C19.509 24.037 19.231 24.047 16.879 24.047C14.525 24.047 14.247 24.037 13.316 23.995C12.458 23.955 11.992 23.811 11.68 23.692C11.27 23.531 10.975 23.34 10.667 23.032C10.359 22.724 10.168 22.431 10.009 22.019C9.88804 21.708 9.74404 21.242 9.70404 20.382C9.66404 19.453 9.65404 19.176 9.65404 16.821ZM8.06604 16.821C8.06604 19.215 8.07604 19.513 8.12004 20.454C8.16104 21.393 8.31004 22.034 8.52804 22.594C8.75304 23.174 9.05504 23.665 9.54504 24.154C10.035 24.644 10.527 24.946 11.105 25.171C11.666 25.39 12.307 25.538 13.246 25.582C14.184 25.625 14.485 25.636 16.879 25.636C19.272 25.636 19.572 25.625 20.512 25.582C21.449 25.538 22.09 25.39 22.651 25.171C23.23 24.946 23.721 24.645 24.212 24.154C24.701 23.666 25.003 23.175 25.228 22.594C25.446 22.034 25.595 21.394 25.637 20.454C25.68 19.514 25.691 19.215 25.691 16.821C25.691 14.427 25.68 14.128 25.637 13.187C25.595 12.249 25.446 11.608 25.228 11.048C25.003 10.468 24.701 9.97701 24.212 9.48801C23.721 8.99801 23.23 8.69601 22.651 8.47101C22.09 8.25201 21.449 8.104 20.512 8.06C19.572 8.017 19.272 8.00699 16.879 8.00699C14.485 8.00699 14.184 8.017 13.246 8.06C12.307 8.104 11.666 8.25201 11.105 8.47101C10.527 8.69601 10.035 8.99701 9.54504 9.48801C9.05504 9.97601 8.75304 10.467 8.52804 11.048C8.31004 11.608 8.16104 12.248 8.12004 13.187C8.07604 14.128 8.06604 14.428 8.06604 16.821Z" fill="#FF5959"/>
<path d="M12.354 16.821C12.354 19.32 14.38 21.346 16.879 21.346C19.378 21.346 21.404 19.32 21.404 16.821C21.404 14.322 19.378 12.296 16.879 12.296C14.38 12.296 12.354 14.322 12.354 16.821ZM19.816 16.821C19.816 18.444 18.502 19.759 16.879 19.759C15.256 19.759 13.942 18.444 13.942 16.821C13.942 15.198 15.256 13.883 16.879 13.883C18.502 13.883 19.816 15.198 19.816 16.821Z" fill="#FF5959"/>
<path d="M12.175 11.06C12.758 11.06 13.233 11.533 13.233 12.119C13.233 12.702 12.758 13.175 12.175 13.175C11.591 13.175 11.117 12.702 11.117 12.119C11.117 11.532 11.591 11.06 12.175 11.06Z" fill="#FF5959"/>
<path d="M32.878 1.48801V23.14C32.878 28.432 28.573 32.738 23.281 32.738H10.476C5.18501 32.738 0.880005 28.432 0.880005 23.14V1.48801C0.880005 1.07401 1.21401 0.738007 1.62801 0.738007H32.128C32.542 0.738007 32.878 1.07401 32.878 1.48801ZM2.37801 23.141C2.37801 27.608 6.01101 31.239 10.476 31.239H23.281C27.747 31.239 31.38 27.608 31.38 23.141V2.23901H2.37801V23.141Z" fill="#FF5959"/>
</svg>
