<svg width="27" height="27" viewBox="0 0 27 27" fill="none" xmlns="http://www.w3.org/2000/svg">
<path d="M23.692 19.98C23.595 19.818 21.216 15.984 11.893 15.984C9.43597 15.984 7.46498 16.252 5.88798 16.646C5.86198 16.65 5.83597 16.658 5.80997 16.666C1.46197 17.775 0.163976 19.861 0.0929756 19.98C0.0339756 20.082 0.000976562 20.197 0.000976562 20.314V25.675C0.000976562 26.036 0.293976 26.329 0.654976 26.329H23.13C23.491 26.329 23.784 26.036 23.784 25.675V20.314C23.784 20.197 23.752 20.082 23.692 19.98ZM16.58 17.695C15.776 18.351 14.248 19.252 11.893 19.252C9.61897 19.252 8.11398 18.363 7.29098 17.68C8.56698 17.442 10.085 17.289 11.893 17.289C13.741 17.289 15.288 17.449 16.58 17.695ZM22.477 25.023H1.30798V20.525C1.63298 20.123 2.84698 18.853 5.77298 18.031C6.48398 18.808 8.46097 20.558 11.893 20.558C15.485 20.558 17.483 18.728 18.098 18.054C20.968 18.88 22.162 20.13 22.477 20.525V25.023Z" fill="#FF5959"/>
<path d="M11.893 14.928C15.501 14.928 18.437 11.58 18.437 7.465C18.437 6.813 18.356 6.186 18.218 5.584C18.212 5.529 18.202 5.477 18.183 5.428C17.404 2.3 14.882 0 11.893 0C10.066 0 8.41302 0.861 7.22402 2.243C7.17802 2.286 7.13802 2.335 7.10702 2.389C6.01902 3.723 5.34802 5.504 5.34802 7.465C5.34802 11.58 8.28402 14.928 11.893 14.928ZM11.893 13.621C9.00402 13.621 6.65502 10.859 6.65502 7.465C6.65502 6.078 7.05102 4.802 7.71002 3.772C8.71602 4.702 11.199 6.119 17.034 6.295C17.096 6.674 17.131 7.065 17.131 7.465C17.131 10.859 14.782 13.621 11.893 13.621ZM11.893 1.306C14.028 1.306 15.865 2.817 16.68 4.975C11.244 4.751 9.19902 3.382 8.53602 2.743C9.44502 1.848 10.616 1.306 11.893 1.306Z" fill="#FF5959"/>
<path d="M23.05 3.62501V1.83901C23.05 1.61801 23.114 1.44101 23.243 1.30801C23.373 1.17601 23.551 1.10901 23.778 1.10901C24.007 1.10901 24.187 1.17601 24.317 1.30801C24.445 1.44101 24.51 1.61801 24.51 1.83901V3.62501H26.272C26.501 3.62501 26.681 3.69101 26.809 3.82401C26.938 3.95601 27.001 4.13301 27.001 4.35501C27.001 4.57701 26.936 4.75501 26.803 4.89201C26.67 5.02901 26.493 5.09601 26.272 5.09601H24.51V6.88301C24.51 7.09601 24.443 7.27201 24.311 7.40801C24.177 7.54501 23.999 7.61301 23.778 7.61301C23.559 7.61301 23.383 7.54501 23.249 7.40801C23.116 7.27101 23.05 7.09601 23.05 6.88301V5.09601H21.292C21.071 5.09601 20.895 5.03001 20.762 4.89201C20.63 4.75501 20.564 4.57701 20.564 4.35501C20.564 4.13301 20.628 3.95601 20.756 3.82401C20.885 3.69101 21.064 3.62501 21.292 3.62501H23.05V3.62501Z" fill="#FF5959"/>
</svg>
