<svg width="30" height="31" viewBox="0 0 30 31" fill="none" xmlns="http://www.w3.org/2000/svg">
<path d="M29.721 15.784C29.721 7.577 23.069 0.923996 14.861 0.923996C6.65298 0.923996 0.000976562 7.577 0.000976562 15.784C0.000976562 23.992 6.65298 30.644 14.86 30.644C23.068 30.645 29.721 23.992 29.721 15.784Z" fill="#FF5A5D"/>
<path d="M13.6984 19.7917V13.158H15.6645V19.7917H13.6984ZM14.6748 12.1817C14.3449 12.1817 14.0729 12.0881 13.8589 11.9009C13.6449 11.7047 13.5379 11.4551 13.5379 11.1519C13.5379 10.8488 13.6449 10.6036 13.8589 10.4163C14.0729 10.2291 14.3449 10.1355 14.6748 10.1355C15.0136 10.1355 15.2855 10.2291 15.4906 10.4163C15.7046 10.6036 15.8116 10.8488 15.8116 11.1519C15.8116 11.4551 15.7046 11.7047 15.4906 11.9009C15.2855 12.0881 15.0136 12.1817 14.6748 12.1817Z" fill="white"/>
</svg>
