<svg width="147" height="49" viewBox="0 0 147 49" fill="none" xmlns="http://www.w3.org/2000/svg">
<path d="M39.039 47.209C38.883 47.209 38.727 47.176 38.582 47.105L24.607 40.551L10.631 47.105C10.277 47.275 9.85999 47.234 9.53899 47.001C9.22699 46.771 9.05997 46.386 9.10497 45.994L11.019 30.682L0.468983 19.419C0.198983 19.132 0.112998 18.723 0.233998 18.35C0.356998 17.976 0.670014 17.699 1.05101 17.625L16.207 14.714L23.658 1.2C23.846 0.855999 24.209 0.641998 24.598 0.641998C24.994 0.641998 25.355 0.855999 25.539 1.2L32.99 14.714L48.143 17.625C48.531 17.698 48.846 17.977 48.965 18.35C49.084 18.723 48.992 19.132 48.73 19.419L38.18 30.686L40.096 45.998C40.145 46.388 39.979 46.77 39.658 47.004C39.484 47.141 39.264 47.209 39.039 47.209ZM24.607 38.287C24.764 38.287 24.919 38.322 25.066 38.391L37.725 44.329L35.992 30.452C35.953 30.137 36.055 29.816 36.275 29.583L45.836 19.376L32.106 16.737C31.793 16.677 31.52 16.48 31.367 16.2L24.613 3.952L17.859 16.2C17.707 16.479 17.43 16.678 17.119 16.737L3.38701 19.376L12.949 29.583C13.168 29.816 13.271 30.137 13.232 30.452L11.496 44.329L24.158 38.391C24.297 38.322 24.451 38.287 24.607 38.287ZM123.977 49C123.647 49 123.331 48.846 123.125 48.58L120.008 44.505L115.504 46.959C115.213 47.119 114.863 47.134 114.563 46.998C114.256 46.863 114.037 46.596 113.959 46.269L112.771 41.281L107.656 41.691C107.332 41.715 107.002 41.587 106.777 41.338C106.551 41.091 106.463 40.755 106.523 40.429L107.461 35.386L102.621 33.681C102.309 33.572 102.061 33.322 101.961 33.003C101.857 32.687 101.91 32.341 102.1 32.065L105.01 27.841L101.283 24.317C101.041 24.088 100.92 23.76 100.955 23.428C100.99 23.098 101.178 22.803 101.461 22.629L105.84 19.956L103.867 15.219C103.74 14.912 103.763 14.565 103.929 14.276C104.095 13.987 104.386 13.795 104.714 13.752L109.802 13.091L109.929 7.962C109.944 7.63 110.105 7.319 110.368 7.126C110.639 6.931 110.983 6.872 111.3 6.966L116.216 8.431L118.419 3.798C118.565 3.498 118.837 3.28 119.161 3.212C119.487 3.144 119.825 3.23 120.077 3.445L123.973 6.784L127.869 3.445C128.121 3.229 128.457 3.144 128.785 3.212C129.109 3.28 129.383 3.498 129.525 3.798L131.725 8.431L136.643 6.966C136.959 6.872 137.305 6.931 137.576 7.126C137.847 7.321 138.01 7.631 138.014 7.962L138.141 13.091L143.228 13.752C143.557 13.795 143.848 13.989 144.014 14.276C144.18 14.565 144.202 14.913 144.076 15.219L142.107 19.956L146.484 22.629C146.768 22.803 146.957 23.098 146.99 23.428C147.025 23.76 146.904 24.087 146.664 24.317L142.935 27.841L145.847 32.065C146.035 32.338 146.081 32.684 145.985 33.003C145.88 33.317 145.638 33.567 145.325 33.681L140.487 35.386L141.425 40.429C141.487 40.755 141.395 41.092 141.167 41.339C140.946 41.586 140.618 41.715 140.288 41.691L135.177 41.281L133.989 46.269C133.911 46.592 133.688 46.863 133.384 46.998C133.081 47.134 132.735 47.119 132.444 46.959L127.94 44.505L124.821 48.58C124.623 48.846 124.309 49 123.977 49ZM120.305 42.062C120.627 42.062 120.949 42.209 121.158 42.482L123.981 46.173L126.803 42.482C127.121 42.064 127.699 41.939 128.16 42.193L132.242 44.421L133.32 39.897C133.443 39.385 133.916 39.037 134.443 39.084L139.08 39.457L138.223 34.886C138.127 34.369 138.422 33.859 138.918 33.683L143.303 32.14L140.664 28.312C140.365 27.877 140.428 27.291 140.809 26.931L144.189 23.736L140.219 21.313C139.771 21.04 139.586 20.479 139.789 19.993L141.574 15.7L136.965 15.1C136.445 15.034 136.049 14.594 136.035 14.069L135.92 9.421L131.465 10.749C130.957 10.899 130.42 10.659 130.195 10.185L128.201 5.985L124.67 9.01C124.274 9.352 123.682 9.352 123.281 9.01L119.752 5.985L117.756 10.185C117.531 10.66 116.992 10.901 116.486 10.749L112.031 9.421L111.918 14.069C111.906 14.594 111.51 15.032 110.988 15.1L106.377 15.7L108.164 19.993C108.365 20.478 108.184 21.04 107.734 21.313L103.762 23.736L107.141 26.931C107.527 27.291 107.582 27.877 107.287 28.312L104.646 32.14L109.033 33.683C109.531 33.857 109.826 34.369 109.728 34.885L108.874 39.455L113.507 39.084C114.032 39.035 114.509 39.387 114.632 39.897L115.708 44.42L119.792 42.193C119.955 42.105 120.131 42.062 120.305 42.062Z" fill="#2B2622"/>
</svg>
